# This file uses feet as units for non-parametric coordinates.

mtllib Walls.mtl
g default
v -6.339842 0.178607 91.780747
v 6.339842 0.178607 91.780747
v -6.339842 274.498595 91.780747
v 6.339842 274.498595 91.780747
v -6.339842 274.498595 -182.539266
v 6.339842 274.498595 -182.539266
v -6.339842 0.178607 -182.539266
v 6.339842 0.178607 -182.539266
vt 0.488270 0.512047
vt 0.510338 0.512047
vt 0.488269 0.989490
vt 0.510338 0.989493
vt 0.017046 0.380625
vt 0.017046 0.359142
vt 0.481825 0.359142
vt 0.481825 0.380625
vt 0.987782 0.512047
vt 0.987782 0.989492
vt 0.010825 0.512047
vt 0.010825 0.989491
vt 0.019663 0.430120
vt 0.019663 0.403871
vt 0.017046 0.485960
vt 0.017046 0.464477
vt 0.481825 0.464477
vt 0.481825 0.485960
vt 0.587547 0.403871
vt 0.587547 0.430120
vn 0.000000 0.000000 1.000000
vn 0.000000 0.000000 1.000000
vn 0.000000 0.000000 1.000000
vn 0.000000 0.000000 1.000000
vn 0.000000 1.000000 0.000000
vn 0.000000 1.000000 0.000000
vn 0.000000 1.000000 0.000000
vn 0.000000 1.000000 0.000000
vn 0.000000 0.000000 -1.000000
vn 0.000000 0.000000 -1.000000
vn 0.000000 0.000000 -1.000000
vn 0.000000 0.000000 -1.000000
vn 0.000000 -1.000000 0.000000
vn 0.000000 -1.000000 0.000000
vn 0.000000 -1.000000 0.000000
vn 0.000000 -1.000000 0.000000
vn 1.000000 0.000000 0.000000
vn 1.000000 0.000000 0.000000
vn 1.000000 0.000000 0.000000
vn 1.000000 0.000000 0.000000
vn -1.000000 0.000000 0.000000
vn -1.000000 0.000000 0.000000
vn -1.000000 0.000000 0.000000
vn -1.000000 0.000000 0.000000
s off
g wall
usemtl lambert20SG
f 1/1/1 2/2/2 4/4/3 3/3/4
f 3/5/5 4/6/6 6/7/7 5/8/8
f 5/13/9 6/14/10 8/19/11 7/20/12
f 7/15/13 8/16/14 2/17/15 1/18/16
f 2/2/17 8/9/18 6/10/19 4/4/20
f 7/11/21 1/1/22 3/3/23 5/12/24
g default
v 184.910355 0.134673 182.880005
v 184.910355 0.134673 -182.880005
v 184.732971 274.454529 182.880005
v 184.732971 274.454529 -182.880005
v 182.865585 274.453308 182.880005
v 182.865585 274.453308 -182.880005
v 183.042877 0.133381 182.880005
v 183.042877 0.133381 -182.880005
v 182.906754 210.599686 -182.880005
v 182.906754 210.599686 182.880005
v 184.774338 210.600769 182.880005
v 184.774338 210.600769 -182.880005
v 182.906754 210.599686 -92.458405
v 182.865585 274.453308 -92.458412
v 184.732971 274.454529 -92.458412
v 184.774338 210.600769 -92.458412
v 184.910355 0.134673 -92.458412
v 183.042877 0.133381 -92.458412
vt 0.503871 0.383307
vt 0.664159 0.383307
vt 0.664159 0.496499
vt 0.503871 0.496499
vt 0.664159 0.499809
vt 0.503871 0.499809
vt 0.664159 0.613001
vt 0.503871 0.613001
vt 0.503871 0.986090
vt 0.664159 0.986090
vt 0.664159 0.989400
vt 0.503871 0.989400
vt 0.667470 0.383307
vt 0.667469 0.496499
vt 0.015785 0.613001
vt 0.012475 0.613001
vt 0.012475 0.499809
vt 0.015785 0.499809
vt 0.015785 0.986090
vt 0.012475 0.986090
vt 0.664159 0.010219
vt 0.667470 0.010219
vt 0.015785 0.496499
vt 0.015785 0.383307
vt 0.015785 0.010219
vt 0.503871 0.010219
vt 0.015785 0.989400
vt 0.507181 0.613002
vt 0.507181 0.986089
vt 0.664159 0.616312
vt 0.503871 0.616312
vn 1.000000 0.000647 0.000000
vn 1.000000 0.000648 0.000000
vn 1.000000 0.000648 0.000000
vn 1.000000 0.000648 0.000000
vn -0.000658 1.000000 0.000000
vn -0.000656 1.000000 0.000000
vn -0.000656 1.000000 0.000000
vn -0.000658 1.000000 0.000000
vn -1.000000 -0.000645 0.000000
vn -1.000000 -0.000645 0.000000
vn -1.000000 -0.000645 0.000000
vn -1.000000 -0.000646 0.000000
vn 0.000692 -1.000000 0.000000
vn 0.000695 -1.000000 0.000000
vn 0.000695 -1.000000 0.000000
vn 0.000692 -1.000000 0.000000
vn 0.000000 0.000000 -1.000000
vn 0.000000 0.000000 -1.000000
vn 0.000000 0.000000 -1.000000
vn 0.000000 0.000000 -1.000000
vn 0.000000 0.000000 1.000000
vn 0.000000 0.000000 1.000000
vn 0.000000 0.000000 1.000000
vn 0.000000 0.000000 1.000000
vn 0.000000 0.000000 1.000000
vn 0.000000 0.000000 1.000000
vn 0.000000 0.000000 1.000000
vn 0.000000 0.000000 1.000000
vn 0.000000 0.000000 -1.000000
vn 0.000000 0.000000 -1.000000
vn 0.000000 0.000000 -1.000000
vn 0.000000 0.000000 -1.000000
vn -1.000000 -0.000645 0.000000
vn -1.000000 -0.000645 0.000000
vn -1.000000 -0.000646 0.000000
vn -1.000000 -0.000646 0.000000
vn -0.000659 1.000000 0.000000
vn -0.000658 1.000000 0.000000
vn -0.000658 1.000000 0.000000
vn -0.000659 1.000000 0.000000
vn 1.000000 0.000647 0.000000
vn 1.000000 0.000647 0.000000
vn 1.000000 0.000648 0.000000
vn 1.000000 0.000648 0.000000
vn 1.000000 0.000646 0.000000
vn 1.000000 0.000646 0.000000
vn 1.000000 0.000647 0.000000
vn 1.000000 0.000647 0.000000
vn 0.000691 -1.000000 0.000000
vn 0.000692 -1.000000 0.000000
vn 0.000692 -1.000000 0.000000
vn 0.000691 -1.000000 0.000000
vn -1.000000 -0.000646 0.000000
vn -1.000000 -0.000646 0.000000
vn -1.000000 -0.000647 0.000000
vn -1.000000 -0.000647 0.000000
vn -0.000002 0.000000 -1.000000
vn -0.000002 0.000000 -1.000000
vn -0.000002 0.000000 -1.000000
vn -0.000002 0.000000 -1.000000
vn 0.000580 -1.000000 0.000000
vn 0.000580 -1.000000 0.000000
vn 0.000580 -1.000000 0.000000
vn 0.000580 -1.000000 0.000000
s off
g door_wall1
usemtl lambert20SG
f 24/21/25 20/22/26 12/23/27 23/24/28
f 23/24/29 12/23/30 14/25/31 22/26/32
f 22/26/33 14/25/34 17/27/35 21/28/36
f 26/29/37 16/30/38 10/31/39 25/32/40
f 20/22/41 17/33/42 14/34/43 12/23/44
f 18/35/45 19/36/46 11/37/47 13/38/48
f 15/39/49 9/40/50 19/36/51 18/35/52
f 10/41/53 16/42/54 17/33/55 20/22/56
f 13/38/57 22/26/58 21/28/59 18/35/60
f 11/43/61 23/24/62 22/26/63 13/38/64
f 19/44/65 24/21/66 23/24/67 11/43/68
f 9/45/69 25/46/70 24/21/71 19/44/72
f 15/39/73 26/29/74 25/32/75 9/47/76
f 18/35/77 21/28/78 26/29/79 15/39/80
f 26/29/81 21/28/82 24/48/83 25/49/84
f 21/28/85 17/27/86 20/50/87 24/51/88
g default
v -181.946259 0.015103 183.808441
v -181.946259 0.015103 -181.951569
v -181.946259 274.335114 183.808441
v -181.946259 274.335114 -181.951569
v -183.813751 274.335114 183.808441
v -183.813751 274.335114 -181.951569
v -183.813751 0.015103 183.808441
v -183.813751 0.015103 -181.951569
vt 0.012866 0.011424
vt 0.665937 0.011424
vt 0.665937 0.501227
vt 0.012866 0.501227
vt 0.665937 0.504562
vt 0.012866 0.504562
vt 0.665937 0.994365
vt 0.012866 0.994365
vt 0.012867 0.008089
vt 0.665937 0.008089
vt 0.669272 0.011424
vt 0.669272 0.501227
vt 0.009532 0.011424
vt 0.009532 0.501227
vn 1.000000 0.000000 -0.000000
vn 1.000000 0.000000 -0.000000
vn 1.000000 0.000000 -0.000000
vn 1.000000 0.000000 -0.000000
vn 0.000000 1.000000 0.000000
vn 0.000000 1.000000 0.000000
vn 0.000000 1.000000 0.000000
vn 0.000000 1.000000 0.000000
vn -1.000000 0.000000 0.000000
vn -1.000000 0.000000 0.000000
vn -1.000000 0.000000 0.000000
vn -1.000000 0.000000 0.000000
vn 0.000000 -1.000000 0.000000
vn 0.000000 -1.000000 0.000000
vn 0.000000 -1.000000 0.000000
vn 0.000000 -1.000000 0.000000
vn -0.000000 0.000000 -1.000000
vn -0.000000 0.000000 -1.000000
vn -0.000000 0.000000 -1.000000
vn -0.000000 0.000000 -1.000000
vn 0.000000 0.000000 1.000000
vn 0.000000 0.000000 1.000000
vn 0.000000 0.000000 1.000000
vn 0.000000 0.000000 1.000000
s off
g blank_wall2
usemtl lambert20SG
f 27/52/89 28/53/90 30/54/91 29/55/92
f 29/55/93 30/54/94 32/56/95 31/57/96
f 31/57/97 32/56/98 34/58/99 33/59/100
f 33/60/101 34/61/102 28/53/103 27/52/104
f 28/53/105 34/62/106 32/63/107 30/54/108
f 33/64/109 27/52/110 29/55/111 31/65/112
g default
v 182.880005 0.015103 182.874695
v -182.880005 0.015103 182.874695
v 182.880005 274.335114 182.874695
v -182.880005 274.335114 182.874695
v 182.880005 274.335114 184.742188
v -182.880005 274.335114 184.742188
v 182.880005 0.015103 184.742188
v -182.880005 0.015103 184.742188
vt 0.012866 0.011424
vt 0.665937 0.011424
vt 0.665937 0.501227
vt 0.012866 0.501227
vt 0.665937 0.504562
vt 0.012866 0.504562
vt 0.665937 0.994365
vt 0.012866 0.994365
vt 0.012867 0.008089
vt 0.665937 0.008089
vt 0.669272 0.011424
vt 0.669272 0.501227
vt 0.009532 0.011424
vt 0.009532 0.501227
vn 0.000000 0.000000 -1.000000
vn 0.000000 0.000000 -1.000000
vn 0.000000 0.000000 -1.000000
vn 0.000000 0.000000 -1.000000
vn 0.000000 1.000000 0.000000
vn 0.000000 1.000000 0.000000
vn 0.000000 1.000000 0.000000
vn 0.000000 1.000000 0.000000
vn -0.000000 0.000000 1.000000
vn -0.000000 0.000000 1.000000
vn -0.000000 0.000000 1.000000
vn -0.000000 0.000000 1.000000
vn 0.000000 -1.000000 0.000000
vn 0.000000 -1.000000 0.000000
vn 0.000000 -1.000000 0.000000
vn 0.000000 -1.000000 0.000000
vn -1.000000 0.000000 -0.000000
vn -1.000000 0.000000 -0.000000
vn -1.000000 0.000000 -0.000000
vn -1.000000 0.000000 -0.000000
vn 1.000000 0.000000 0.000000
vn 1.000000 0.000000 0.000000
vn 1.000000 0.000000 0.000000
vn 1.000000 0.000000 0.000000
s off
g blank_wall
usemtl lambert20SG
f 35/66/113 36/67/114 38/68/115 37/69/116
f 37/69/117 38/68/118 40/70/119 39/71/120
f 39/71/121 40/70/122 42/72/123 41/73/124
f 41/74/125 42/75/126 36/67/127 35/66/128
f 36/67/129 42/76/130 40/77/131 38/68/132
f 41/78/133 35/66/134 37/69/135 39/79/136
