# Blender 3.1.0
# www.blender.org
mtllib cigarette-crooked-stub.mtl
o Cigarette_Stub_Bent
v 0.565632 0.964904 2.497340
v 0.563168 0.964306 2.496486
v 0.561672 0.965017 2.494326
v 0.561683 0.965394 2.491691
v 0.563328 0.965174 2.489561
v 0.566128 0.964216 2.488738
v 0.568356 0.964049 2.489723
v 0.569778 0.964218 2.492273
v 0.569510 0.965093 2.494721
v 0.568015 0.965274 2.496670
v 0.566025 0.933166 2.499313
v 0.563500 0.931874 2.499121
v 0.562113 0.930793 2.497459
v 0.562200 0.929056 2.495446
v 0.563678 0.928726 2.493479
v 0.566057 0.928770 2.492843
v 0.568508 0.929457 2.493554
v 0.570077 0.930352 2.495241
v 0.570151 0.931599 2.497058
v 0.568587 0.933207 2.498423
v 0.563269 0.922065 2.501245
v 0.563142 0.920892 2.499841
v 0.564500 0.920447 2.498590
v 0.567224 0.921099 2.498201
v 0.568508 0.921635 2.501564
v 0.565800 0.923938 2.502279
v 0.564984 0.919659 2.501221
v 0.567772 0.964632 2.493459
v 0.563765 0.931903 2.498903
v 0.562469 0.930862 2.497482
v 0.569713 0.931548 2.497079
v 0.568292 0.933052 2.498232
v 0.566036 0.928947 2.493430
v 0.568266 0.929631 2.494036
v 0.562556 0.929162 2.495775
v 0.566042 0.933027 2.499045
v 0.569677 0.930384 2.495499
v 0.563872 0.928758 2.494061
v 0.569691 0.946114 2.492297
v 0.569698 0.946386 2.494790
v 0.563552 0.947238 2.490523
v 0.565943 0.947093 2.490438
v 0.563185 0.948171 2.497006
v 0.561457 0.947947 2.494411
v 0.568378 0.947538 2.497228
v 0.568308 0.946597 2.490818
v 0.561885 0.947086 2.491830
v 0.565779 0.948027 2.497893
v 0.569834 0.937901 2.492847
v 0.569804 0.940276 2.492271
v 0.566265 0.937092 2.486706
v 0.566510 0.941106 2.486551
v 0.563205 0.937758 2.491995
v 0.563441 0.940618 2.491462
v 0.568375 0.938013 2.494492
v 0.568320 0.940380 2.493932
v 0.568286 0.936694 2.488168
v 0.568381 0.940735 2.487828
v 0.563063 0.937608 2.489218
v 0.563357 0.939701 2.488851
v 0.566132 0.937848 2.495250
v 0.566387 0.940350 2.494587
v 0.569771 0.940522 2.490077
v 0.569749 0.937972 2.490739
v 0.564626 0.940489 2.487039
v 0.564368 0.937150 2.487411
v 0.564660 0.940565 2.493510
v 0.564198 0.937478 2.494254
v 0.562501 0.926413 2.500226
v 0.567664 0.928385 2.502019
v 0.567840 0.927451 2.497193
v 0.562662 0.925880 2.498186
v 0.565490 0.927880 2.502520
v 0.569248 0.926955 2.498941
v 0.564152 0.926333 2.496775
v 0.563485 0.926480 2.501872
v 0.569105 0.927155 2.500686
v 0.565976 0.926914 2.496406
v 0.565738 0.945172 2.497673
v 0.567673 0.945927 2.496791
v 0.563002 0.945274 2.496616
vn 0.4745 -0.0175 0.1566
vn 0.2671 -0.1594 0.3915
vn 0.3078 -0.0943 0.3825
vn 0.4763 -0.0277 0.1494
vn 0.0310 0.0347 -0.4978
vn 0.3187 0.0368 -0.3835
vn 0.3286 0.1048 -0.3620
vn 0.0793 0.1697 -0.4636
vn -0.4867 -0.0287 0.1109
vn -0.4639 -0.0221 -0.1852
vn -0.4581 0.0196 -0.1993
vn -0.4820 -0.1035 0.0834
vn 0.4832 0.0158 -0.1275
vn 0.4647 0.0423 -0.1796
vn -0.2475 0.0207 -0.4340
vn -0.2446 0.1165 -0.4202
vn -0.3028 0.0062 0.3978
vn -0.3506 -0.2065 0.2906
vn 0.3211 0.0043 0.3832
vn -0.0110 0.0067 0.4998
vn -0.0247 -0.2072 0.4544
vn 0.0542 -0.2185 -0.4465
vn 0.3219 -0.1864 -0.3341
vn 0.3308 -0.2283 -0.2973
vn 0.0309 -0.3113 -0.3901
vn -0.4872 0.0926 0.0637
vn -0.4657 -0.0581 -0.1724
vn -0.4821 -0.0588 -0.1187
vn -0.4771 0.1277 0.0780
vn 0.2825 0.2246 0.3460
vn -0.0580 0.2890 0.4038
vn -0.0832 0.3271 0.3689
vn 0.2578 0.2732 0.3300
vn 0.4623 -0.0778 -0.1738
vn 0.4683 -0.0831 -0.1543
vn -0.2615 -0.1950 -0.3790
vn -0.2998 -0.2345 -0.3242
vn 0.4825 0.0768 0.1065
vn 0.4761 0.1050 0.1109
vn -0.3449 0.2336 0.2765
vn -0.3300 0.2661 0.2652
vn -0.2751 0.0922 0.4072
vn -0.4793 0.0429 0.1358
vn -0.3994 -0.0899 0.2871
vn 0.3856 0.0475 0.3147
vn 0.2318 0.1676 0.4101
vn 0.0477 -0.0429 0.4959
vn 0.4366 -0.1956 0.1454
vn 0.0772 -0.2785 -0.4080
vn 0.3341 -0.2461 -0.2790
vn 0.2546 -0.2249 -0.3669
vn -0.4585 -0.1078 -0.1678
vn -0.4329 -0.1736 -0.1802
vn -0.0937 0.1901 0.4529
vn 0.4668 -0.1175 -0.1352
vn -0.1688 -0.2303 -0.4104
vn -0.1561 -0.2355 -0.4125
vn 0.0303 -0.4087 0.2864
vn 0.0516 0.4960 0.0357
vn 0.0441 0.4892 0.0935
vn 0.0263 0.4976 -0.0414
vn -0.0916 0.4842 -0.0844
vn -0.0915 0.4833 -0.0897
vn 0.0437 0.4886 -0.0966
vn 0.0653 0.4912 -0.0665
vn 0.0918 0.4901 -0.0365
vn 0.0054 0.4961 0.0618
vn -0.0401 0.4834 -0.1213
vn 0.1196 0.4782 -0.0839
vn 0.1147 -0.4382 -0.2118
vn -0.1071 -0.4173 -0.2537
vn 0.0776 -0.4417 0.2211
vn 0.0610 -0.3714 0.3292
vn 0.4483 0.0562 0.2141
vn 0.4191 -0.2602 -0.0815
vn 0.1424 -0.4272 0.2173
vn 0.1526 -0.4334 0.1972
vn 0.1701 -0.4251 0.2008
vn 0.1375 -0.4283 0.2183
vn -0.4474 -0.1928 -0.1125
vn 0.2321 -0.4023 -0.1852
vn 0.0293 -0.3651 0.3404
vn 0.2679 0.1974 0.3732
vn -0.0230 -0.3956 0.3048
vn 0.0389 -0.4225 0.2646
vn 0.0006 0.0169 0.4997
vn -0.3117 0.0114 0.3908
vn -0.4562 -0.0078 -0.2045
vn -0.2505 -0.0262 -0.4319
vn 0.2899 -0.0267 -0.4065
vn 0.4867 -0.0040 -0.1146
vn 0.3052 0.0150 0.3958
vn -0.4886 0.0035 0.1061
vn 0.0021 -0.0393 -0.4984
vn 0.4693 0.0072 0.1723
vn -0.0174 -0.1599 0.4734
vn -0.3819 -0.1592 0.2808
vn -0.0363 0.2836 0.4102
vn -0.2935 0.2195 0.3401
vn -0.4723 0.0832 0.1413
vt 0.476963 0.148909
vt 0.590300 0.163854
vt 0.484296 0.143736
vt 0.590300 0.154618
vt 0.487124 0.135039
vt 0.590300 0.145380
vt 0.484626 0.126447
vt 0.590300 0.135826
vt 0.477221 0.121202
vt 0.590300 0.125958
vt 0.466902 0.121202
vt 0.590300 0.206539
vt 0.590300 0.116864
vt 0.460742 0.126572
vt 0.590300 0.198097
vt 0.458755 0.136117
vt 0.590300 0.188534
vt 0.462076 0.144127
vt 0.590300 0.180631
vt 0.468601 0.149052
vt 0.590300 0.172403
vt 0.712276 0.162440
vt 0.712276 0.152260
vt 0.712276 0.143027
vt 0.712276 0.133237
vt 0.712276 0.124891
vt 0.712276 0.116864
vt 0.712276 0.206539
vt 0.712276 0.198222
vt 0.712276 0.190025
vt 0.712276 0.182365
vt 0.712276 0.172771
vt 0.531363 0.147735
vt 0.523213 0.131304
vt 0.531363 0.156422
vt 0.519882 0.127832
vt 0.531363 0.166288
vt 0.519810 0.123085
vt 0.531363 0.181407
vt 0.524345 0.118002
vt 0.531363 0.199281
vt 0.531363 0.121995
vt 0.531363 0.131590
vt 0.523877 0.125801
vt 0.466487 0.138159
vt 0.714171 0.152888
vt 0.566016 0.144671
vt 0.714171 0.143638
vt 0.566016 0.152745
vt 0.714171 0.181932
vt 0.566016 0.199868
vt 0.566016 0.121413
vt 0.714171 0.172453
vt 0.566016 0.128261
vt 0.714171 0.116864
vt 0.714171 0.206539
vt 0.566016 0.177775
vt 0.714171 0.198044
vt 0.566016 0.186156
vt 0.714171 0.133525
vt 0.566016 0.162024
vt 0.714171 0.162899
vt 0.566016 0.136210
vt 0.714171 0.189886
vt 0.566016 0.193180
vt 0.714171 0.124631
vt 0.566016 0.169815
vt 0.654224 0.189026
vt 0.651911 0.179899
vt 0.650488 0.126273
vt 0.652852 0.206539
vt 0.651290 0.116864
vt 0.644340 0.153697
vt 0.645558 0.143213
vt 0.646785 0.171069
vt 0.653630 0.197205
vt 0.649932 0.134516
vt 0.644897 0.162601
vt 0.684916 0.183005
vt 0.674940 0.183518
vt 0.680156 0.206539
vt 0.690087 0.116864
vt 0.671650 0.206539
vt 0.676733 0.116864
vt 0.686845 0.141418
vt 0.674798 0.140402
vt 0.686688 0.173416
vt 0.675012 0.173434
vt 0.683230 0.200578
vt 0.672725 0.199916
vt 0.686608 0.131314
vt 0.679263 0.130205
vt 0.688715 0.162098
vt 0.675252 0.162752
vt 0.673646 0.191716
vt 0.682372 0.190668
vt 0.677968 0.122520
vt 0.688290 0.123721
vt 0.674665 0.151799
vt 0.689378 0.151525
vt 0.547643 0.149560
vt 0.549484 0.130113
vt 0.555047 0.185820
vt 0.549436 0.158590
vt 0.547758 0.135582
vt 0.551841 0.193336
vt 0.553215 0.167911
vt 0.544600 0.142087
vt 0.550047 0.198712
vt 0.547262 0.123726
vt 0.554816 0.176733
vt 0.653676 0.162230
vt 0.652138 0.169404
vt 0.653355 0.153001
s 1
usemtl M_Sigarettes_512
f 40/69/1 80/113/2 56/88/3 50/80/4
f 42/71/5 46/76/6 58/90/7 52/83/8
f 44/74/9 47/77/10 60/92/11 54/86/12
f 39/68/13 40/69/1 50/80/4 63/95/14
f 41/70/15 42/72/5 52/84/8 65/97/16
f 43/73/17 44/74/9 81/114/18
f 45/75/19 48/78/20 79/112/21 80/113/2
f 46/76/6 39/68/13 63/95/14 58/90/7
f 47/77/10 41/70/15 65/97/16 60/92/11
f 48/78/20 43/73/17 81/114/18 79/112/21
f 51/81/22 57/89/23 17/29/24 16/28/25
f 53/85/26 59/91/27 14/25/28 13/24/29
f 55/87/30 61/93/31 11/22/32 20/32/33
f 57/89/23 64/96/34 18/30/35 17/29/24
f 59/91/27 66/98/36 15/26/37 14/25/28
f 64/96/34 49/79/38 19/31/39 18/30/35
f 66/98/36 51/82/22 16/27/25 15/26/37
f 68/100/40 53/85/26 13/24/29 12/23/41
f 49/79/38 55/87/30 20/32/33 19/31/39
f 76/108/42 69/101/43 21/33/44
f 77/110/45 70/102/46 26/43/47 25/42/48
f 78/111/49 71/103/50 24/39/51
f 69/101/43 72/104/52 22/35/53 21/33/44
f 70/102/46 73/105/54 26/43/47
f 71/103/50 74/106/55 25/41/48 24/39/51
f 72/104/52 75/107/56 23/37/57 22/35/53
f 73/105/54 76/108/42 21/33/44 26/43/47
f 74/106/55 77/109/45 25/41/48
f 75/107/56 78/111/49 24/39/51 23/37/57
f 25/42/48 26/43/47 27/44/58
f 21/34/44 22/36/53 27/44/58
f 24/40/51 25/42/48 27/44/58
f 22/36/53 23/38/57 27/44/58
f 26/43/47 21/34/44 27/44/58
f 23/38/57 24/40/51 27/44/58
f 4/7/59 3/5/60 28/45/61
f 1/1/62 10/20/63 28/45/61
f 8/16/64 7/14/65 28/45/61
f 5/9/66 4/7/59 28/45/61
f 2/3/67 1/1/62 28/45/61
f 9/18/68 8/16/64 28/45/61
f 6/11/69 5/9/66 28/45/61
f 3/5/60 2/3/67 28/45/61
f 10/20/63 9/18/68 28/45/61
f 7/14/65 6/11/69 28/45/61
f 15/26/37 16/27/25 33/55/70 38/66/71
f 18/30/72 19/31/73 31/50/74 37/64/75
f 11/22/76 12/23/77 29/46/78 36/62/79
f 14/25/28 15/26/37 38/66/71 35/60/80
f 17/29/24 18/30/72 37/64/75 34/58/81
f 20/32/82 11/22/76 36/62/79 32/53/83
f 13/24/84 14/25/28 35/60/80 30/48/85
f 16/28/25 17/29/24 34/58/81 33/56/70
f 19/31/73 20/32/82 32/53/83 31/50/74
f 12/23/77 13/24/84 30/48/85 29/46/78
f 1/2/86 2/4/87 43/73/17 48/78/20
f 4/8/88 5/10/89 41/70/15 47/77/10
f 7/15/90 8/17/91 39/68/13 46/76/6
f 10/21/92 1/2/86 48/78/20 45/75/19
f 3/6/93 4/8/88 47/77/10 44/74/9
f 6/12/94 7/15/90 46/76/6 42/71/5
f 9/19/95 10/21/92 45/75/19 40/69/1
f 2/4/87 3/6/93 44/74/9 43/73/17
f 5/10/89 6/13/94 42/72/5 41/70/15
f 8/17/91 9/19/95 40/69/1 39/68/13
f 68/100/40 61/93/31 62/94/96 67/99/97
f 66/98/36 59/91/27 60/92/11 65/97/16
f 64/96/34 57/89/23 58/90/7 63/95/14
f 61/93/31 55/87/30 56/88/3 62/94/96
f 59/91/27 53/85/26 54/86/12 60/92/11
f 57/89/23 51/81/22 52/83/8 58/90/7
f 55/87/30 49/79/38 50/80/4 56/88/3
f 53/85/26 68/100/40 67/99/97 54/86/12
f 51/82/22 66/98/36 65/97/16 52/84/8
f 49/79/38 64/96/34 63/95/14 50/80/4
f 61/93/31 68/100/40 12/23/41 11/22/32
f 38/67/71 33/57/70 78/111/49 75/107/56
f 37/65/75 31/51/74 77/109/45 74/106/55
f 36/63/98 29/47/99 76/108/42 73/105/54
f 35/61/80 38/67/71 75/107/56 72/104/52
f 34/59/81 37/65/75 74/106/55 71/103/50
f 32/54/83 36/63/98 73/105/54 70/102/46
f 30/49/100 35/61/80 72/104/52 69/101/43
f 33/57/70 34/59/81 71/103/50 78/111/49
f 31/52/74 32/54/83 70/102/46 77/110/45
f 29/47/99 30/49/100 69/101/43 76/108/42
f 80/113/2 79/112/21 62/94/96 56/88/3
f 80/113/2 40/69/1 45/75/19
f 81/114/18 44/74/9 54/86/12 67/99/97
f 79/112/21 81/114/18 67/99/97 62/94/96
