# Blender 3.1.0
# www.blender.org
mtllib cigarette-straight-stub.mtl
o Cigarette_Stub_Straight
v 0.565560 0.972445 2.524509
v 0.562871 0.972618 2.524295
v 0.561514 0.973815 2.522173
v 0.561261 0.974260 2.519410
v 0.562805 0.974310 2.517298
v 0.565304 0.974401 2.516510
v 0.567772 0.973428 2.516997
v 0.569606 0.971988 2.518731
v 0.569623 0.971499 2.521859
v 0.568063 0.972834 2.523687
v 0.565347 0.926465 2.524781
v 0.562831 0.926827 2.524173
v 0.561312 0.926525 2.521978
v 0.561257 0.926129 2.519303
v 0.562991 0.926700 2.517104
v 0.565518 0.927938 2.516178
v 0.568314 0.929554 2.517411
v 0.569402 0.929815 2.519401
v 0.569158 0.928746 2.521862
v 0.567834 0.927165 2.523819
v 0.565348 0.926465 2.524391
v 0.563060 0.926828 2.523853
v 0.561684 0.926531 2.521852
v 0.561627 0.926132 2.519419
v 0.563218 0.926707 2.517423
v 0.565528 0.927973 2.516583
v 0.568096 0.929577 2.517730
v 0.569045 0.929848 2.519534
v 0.568794 0.928755 2.521745
v 0.567606 0.927165 2.523509
v 0.565565 0.921922 2.523237
v 0.563593 0.922033 2.523058
v 0.562145 0.922736 2.520898
v 0.562213 0.922739 2.518660
v 0.563016 0.923465 2.517225
v 0.565328 0.923445 2.516266
v 0.567147 0.922472 2.517611
v 0.568325 0.922736 2.519308
v 0.568793 0.923524 2.521080
v 0.567534 0.922779 2.522459
v 0.564512 0.921245 2.518337
v 0.565586 0.971936 2.520859
v 0.570124 0.952059 2.516760
v 0.570068 0.951205 2.519237
v 0.563647 0.950615 2.514462
v 0.566122 0.951459 2.513653
v 0.563671 0.949801 2.521399
v 0.562125 0.949882 2.519247
v 0.568672 0.950121 2.521193
v 0.568764 0.952178 2.514714
v 0.562059 0.949999 2.516590
v 0.566185 0.949594 2.522060
vn 0.4779 0.0010 -0.1468
vn 0.4765 -0.0075 0.1512
vn 0.4516 0.0078 0.2145
vn 0.4886 -0.0280 -0.1024
vn -0.2847 -0.0027 -0.4110
vn 0.0254 0.0002 -0.4994
vn -0.0110 -0.0543 -0.4969
vn -0.3180 -0.0330 -0.3844
vn -0.2849 -0.0001 0.4109
vn -0.4791 0.0003 0.1432
vn -0.4758 0.0344 0.1498
vn -0.2771 0.0590 0.4120
vn 0.2919 -0.0023 0.4059
vn 0.2373 0.0419 0.4381
vn 0.2934 0.0057 -0.4048
vn 0.3044 -0.0526 -0.3932
vn -0.4732 -0.0024 -0.1614
vn -0.4795 -0.0002 -0.1418
vn 0.0358 0.0055 0.4987
vn 0.0133 0.0580 0.4964
vn 0.1468 -0.4738 -0.0628
vn 0.2200 -0.4482 0.0264
vn 0.2202 -0.4476 0.0350
vn 0.1457 -0.4741 -0.0631
vn -0.0137 -0.4997 0.0118
vn 0.0228 -0.4958 0.0605
vn -0.4363 -0.1523 0.1909
vn -0.2731 -0.1728 0.3815
vn 0.0711 -0.4384 -0.2297
vn 0.1490 -0.4555 -0.1425
vn 0.3488 -0.1214 0.3371
vn 0.0724 -0.4381 -0.2298
vn 0.1533 -0.4673 0.0901
vn 0.1297 -0.4750 0.0869
vn 0.0378 -0.4986 -0.0029
vn -0.4739 -0.1090 -0.1163
vn 0.0264 -0.4982 -0.0324
vn 0.0686 -0.1588 0.4691
vn -0.0141 -0.4942 -0.0746
vn -0.0171 -0.4899 -0.0987
vn -0.4431 -0.1912 0.1309
vn -0.2520 -0.2406 0.3587
vn 0.4935 -0.0369 0.0712
vn 0.3215 -0.2291 0.3069
vn 0.4745 -0.1197 0.1026
vn 0.1500 0.0042 -0.4769
vn 0.3782 -0.0329 -0.3254
vn 0.3380 -0.1188 -0.3488
vn 0.0824 -0.0460 -0.4910
vn -0.4556 -0.1454 -0.1460
vn 0.0883 -0.2829 0.4027
vn 0.4706 -0.0381 -0.1646
vn 0.4596 -0.1400 -0.1385
vn -0.2739 0.0338 -0.4169
vn -0.3015 -0.0385 -0.3970
vn -0.0314 -0.4826 -0.1270
vn 0.2043 0.4445 0.1033
vn 0.2261 0.4403 0.0709
vn 0.1090 0.4816 0.0786
vn -0.0230 0.4947 -0.0692
vn 0.0155 0.4722 -0.1636
vn 0.0804 0.4657 0.1633
vn 0.1195 0.4263 0.2323
vn 0.1268 0.4422 0.1958
vn 0.1634 0.4712 0.0356
vn 0.0658 0.4931 -0.0498
vn 0.0889 0.4305 0.2382
vn 0.0423 -0.0549 0.4952
vn -0.2998 -0.0567 0.3961
vn -0.4810 0.0010 -0.1366
vn -0.3032 0.0372 -0.3958
vn 0.2356 0.0585 -0.4371
vn 0.4664 0.0323 -0.1772
vn 0.2562 -0.0410 0.4274
vn -0.4812 -0.0306 0.1323
vn -0.0346 0.0584 -0.4954
vn 0.4657 -0.0103 0.1817
vt 0.829268 0.355969
vt 0.904894 0.582143
vt 0.838546 0.353925
vt 0.895550 0.582143
vt 0.843505 0.345487
vt 0.886447 0.582143
vt 0.843505 0.335628
vt 0.876678 0.582143
vt 0.837542 0.328648
vt 0.867617 0.582143
vt 0.828783 0.325844
vt 0.858475 0.582143
vt 0.819785 0.328784
vt 0.849759 0.582143
vt 0.813034 0.336420
vt 0.840546 0.582143
vt 0.932413 0.582143
vt 0.813404 0.347523
vt 0.921944 0.582143
vt 0.820015 0.354565
vt 0.914059 0.582143
vt 0.907475 0.420118
vt 0.898277 0.420478
vt 0.888728 0.419918
vt 0.879190 0.419951
vt 0.869411 0.421452
vt 0.860154 0.424763
vt 0.848662 0.428128
vt 0.840546 0.427990
vt 0.932413 0.429733
vt 0.924231 0.426409
vt 0.916418 0.422201
vt 0.907709 0.418599
vt 0.853648 0.394547
vt 0.898296 0.419044
vt 0.845040 0.394818
vt 0.888794 0.418619
vt 0.836706 0.393247
vt 0.879000 0.418337
vt 0.828850 0.391042
vt 0.868953 0.420111
vt 0.819499 0.390209
vt 0.902830 0.390306
vt 0.859282 0.423215
vt 0.895044 0.393565
vt 0.848262 0.426551
vt 0.886762 0.397858
vt 0.840546 0.426671
vt 0.932413 0.428422
vt 0.879758 0.399183
vt 0.924929 0.425334
vt 0.871139 0.397863
vt 0.917199 0.420948
vt 0.862575 0.395591
vt 0.852927 0.377392
vt 0.897066 0.353476
vt 0.845512 0.377385
vt 0.903022 0.355881
vt 0.835440 0.377466
vt 0.906214 0.363963
vt 0.827557 0.376533
vt 0.903767 0.371143
vt 0.820836 0.376575
vt 0.900155 0.376407
vt 0.890973 0.377010
vt 0.881851 0.376590
vt 0.886761 0.369771
vt 0.874555 0.377490
vt 0.884347 0.363189
vt 0.868346 0.378858
vt 0.884007 0.356750
vt 0.861029 0.378288
vt 0.889762 0.353773
vt 0.895824 0.368506
vt 0.827357 0.343255
vt 0.840546 0.507427
vt 0.932413 0.509418
vt 0.924205 0.506342
vt 0.867493 0.502633
vt 0.858363 0.505533
vt 0.896491 0.500287
vt 0.886818 0.500302
vt 0.915943 0.502138
vt 0.848792 0.507982
vt 0.876893 0.500544
vt 0.906055 0.499777
s 1
usemtl M_Sigarettes_512
f 43/77/1 44/78/2 19/31/3 18/30/4
f 45/79/5 46/80/6 16/27/7 15/26/8
f 47/81/9 48/82/10 13/24/11 12/23/12
f 44/78/2 49/83/13 20/32/14 19/31/3
f 46/80/6 50/84/15 17/28/16 16/27/7
f 48/82/10 51/85/17 14/25/18 13/24/11
f 49/83/13 52/86/19 11/22/20 20/32/14
f 50/84/15 43/76/1 18/29/4 17/28/16
f 51/85/17 45/79/5 15/26/8 14/25/18
f 52/86/19 47/81/9 12/23/12 11/22/20
f 15/26/21 16/27/22 26/44/23 25/41/24
f 12/23/25 13/24/26 23/37/27 22/35/28
f 19/31/29 20/32/30 30/53/31 29/51/32
f 16/27/22 17/28/33 27/46/34 26/44/23
f 13/24/26 14/25/35 24/39/36 23/37/27
f 20/32/30 11/22/37 21/33/38 30/53/31
f 17/28/33 18/29/39 28/48/40 27/46/34
f 14/25/35 15/26/21 25/41/24 24/39/36
f 11/22/37 12/23/25 22/35/28 21/33/38
f 18/30/39 19/31/29 29/51/32 28/49/40
f 22/36/28 23/38/27 33/59/41 32/57/42
f 29/52/43 30/54/31 40/72/44 39/70/45
f 26/45/46 27/47/47 37/66/48 36/65/49
f 23/38/27 24/40/36 34/61/50 33/59/41
f 30/54/31 21/34/38 31/55/51 40/72/44
f 27/47/47 28/50/52 38/68/53 37/66/48
f 24/40/36 25/42/54 35/63/55 34/61/50
f 21/34/38 22/36/28 32/57/42 31/55/51
f 28/50/52 29/52/43 39/70/45 38/68/53
f 25/43/54 26/45/46 36/65/49 35/64/55
f 39/71/45 40/73/44 41/74/56
f 36/65/49 37/67/48 41/74/56
f 33/60/41 34/62/50 41/74/56
f 40/73/44 31/56/51 41/74/56
f 37/67/48 38/69/53 41/74/56
f 34/62/50 35/64/55 41/74/56
f 31/56/51 32/58/42 41/74/56
f 38/69/53 39/71/45 41/74/56
f 35/64/55 36/65/49 41/74/56
f 32/58/42 33/60/41 41/74/56
f 4/7/57 3/5/58 42/75/59
f 1/1/60 10/20/61 42/75/59
f 8/15/62 7/13/63 42/75/59
f 5/9/64 4/7/57 42/75/59
f 2/3/65 1/1/60 42/75/59
f 9/18/66 8/15/62 42/75/59
f 6/11/67 5/9/64 42/75/59
f 3/5/58 2/3/65 42/75/59
f 10/20/61 9/18/66 42/75/59
f 7/13/63 6/11/67 42/75/59
f 1/2/68 2/4/69 47/81/9 52/86/19
f 4/8/70 5/10/71 45/79/5 51/85/17
f 7/14/72 8/16/73 43/76/1 50/84/15
f 10/21/74 1/2/68 52/86/19 49/83/13
f 3/6/75 4/8/70 51/85/17 48/82/10
f 6/12/76 7/14/72 50/84/15 46/80/6
f 9/19/77 10/21/74 49/83/13 44/78/2
f 2/4/69 3/6/75 48/82/10 47/81/9
f 5/10/71 6/12/76 46/80/6 45/79/5
f 8/17/73 9/19/77 44/78/2 43/77/1
