# Blender 3.1.0
# www.blender.org
mtllib cigarette pack blue.mtl
o CigarettePack_Blue
v 0.520889 0.988203 2.436076
v 0.520996 0.987991 2.392736
v 0.537365 0.979670 2.435800
v 0.537550 0.979521 2.392611
v 0.520183 0.917666 2.435651
v 0.521420 0.917687 2.436895
v 0.521419 0.916453 2.435656
v 0.520133 1.000862 2.435791
v 0.521123 1.001936 2.435849
v 0.521374 1.001083 2.436960
v 0.520228 0.917814 2.393286
v 0.521469 0.916569 2.393277
v 0.521468 0.917811 2.392035
v 0.520165 1.000967 2.393143
v 0.521403 1.001031 2.391890
v 0.521123 1.001951 2.392934
v 0.537923 0.918008 2.435730
v 0.536682 0.916745 2.435724
v 0.536685 0.917992 2.436962
v 0.537659 1.001767 2.435499
v 0.536561 1.001485 2.436709
v 0.536539 1.002434 2.435629
v 0.537911 0.917722 2.393106
v 0.536672 0.917721 2.391881
v 0.536669 0.916491 2.393122
v 0.537598 1.001898 2.392953
v 0.536471 1.002617 2.392751
v 0.536479 1.001594 2.391763
v 0.521532 0.987374 2.436942
v 0.520290 0.988019 2.435699
v 0.520093 0.989020 2.435705
v 0.521331 0.988442 2.436932
v 0.521331 0.988421 2.391871
v 0.520093 0.989020 2.393109
v 0.520098 0.988064 2.393109
v 0.521332 0.987429 2.391860
v 0.537246 0.981040 2.437002
v 0.538498 0.980447 2.435752
v 0.538083 0.978765 2.435762
v 0.536847 0.979407 2.436996
v 0.536876 0.978878 2.391695
v 0.538113 0.978241 2.392922
v 0.538152 0.979595 2.392822
v 0.536887 0.980199 2.391584
vn 0.4997 -0.0113 0.0142
vn 0.4997 0.0035 -0.0167
vn 0.4997 0.0046 0.0175
vn 0.4998 -0.0086 0.0097
vn 0.4981 0.0406 -0.0141
vn 0.4978 0.0454 0.0104
vn -0.0251 -0.0185 0.4990
vn 0.0474 0.0340 0.4966
vn -0.0237 0.0420 0.4977
vn -0.4986 -0.0341 0.0163
vn -0.4980 0.0425 -0.0138
vn -0.4984 -0.0367 -0.0164
vn -0.0437 -0.0097 0.4980
vn 0.0225 0.0071 0.4994
vn -0.0567 0.0123 0.4966
vn -0.4616 -0.0812 -0.1742
vn -0.4998 0.0054 0.0124
vn -0.4423 -0.1786 0.1499
vn 0.0400 0.0291 -0.4975
vn -0.0332 -0.0163 -0.4986
vn -0.0394 0.0410 -0.4968
vn 0.0028 0.4999 0.0110
vn -0.0467 0.4978 -0.0079
vn -0.0469 0.4977 0.0092
vn -0.4997 -0.0085 -0.0135
vn -0.4998 -0.0079 0.0134
vn 0.4624 -0.1076 0.1568
vn 0.4997 -0.0043 -0.0154
vn 0.4737 0.0245 -0.1582
vn -0.0620 0.0102 -0.4960
vn 0.0334 -0.0406 -0.4972
vn 0.0373 -0.0354 0.4973
vn 0.0173 0.0042 -0.4997
vn -0.0460 -0.0108 -0.4978
vn -0.0275 -0.4991 0.0123
vn -0.4982 0.0401 0.0143
vn -0.0370 -0.4985 -0.0120
vn 0.0341 -0.0098 0.4987
vn 0.0446 -0.4978 0.0139
vn 0.4997 -0.0116 -0.0141
vn 0.0348 -0.4987 -0.0109
vn 0.0319 -0.0113 -0.4989
vn -0.0004 0.4999 -0.0092
vn -0.4999 0.0069 -0.0089
vt 0.348749 0.935449
vt 0.363537 0.934528
vt 0.193819 0.934688
vt 0.487435 0.932256
vt 0.015645 0.836121
vt 0.421677 0.904413
vt 0.170029 0.835590
vt 0.429043 0.902381
vt 0.347229 0.683297
vt 0.351675 0.683371
vt 0.365408 0.685689
vt 0.348488 0.667119
vt 0.344103 0.667119
vt 0.347245 0.678959
vt 0.347730 0.980700
vt 0.347935 0.984539
vt 0.016329 0.986332
vt 0.365246 0.979978
vt 0.012410 0.985448
vt 0.351906 0.981491
vt 0.195786 0.683827
vt 0.195752 0.679374
vt 0.194106 0.666947
vt 0.191314 0.683816
vt 0.485770 0.684709
vt 0.189712 0.666949
vt 0.195272 0.981077
vt 0.485996 0.978255
vt 0.171438 0.985345
vt 0.190795 0.981305
vt 0.194525 0.984592
vt 0.167756 0.986334
vt 0.015895 0.615704
vt 0.015917 0.611189
vt 0.344343 0.613098
vt 0.419278 0.686764
vt 0.348728 0.613086
vt 0.011489 0.615646
vt 0.016719 0.915109
vt 0.013295 0.931860
vt 0.418838 0.981394
vt 0.012396 0.914101
vt 0.016257 0.917497
vt 0.017107 0.931937
vt 0.168258 0.614681
vt 0.189163 0.613135
vt 0.432139 0.684391
vt 0.172639 0.614678
vt 0.168202 0.610282
vt 0.193557 0.613147
vt 0.168804 0.915578
vt 0.169527 0.918148
vt 0.168400 0.932181
vt 0.171888 0.932150
vt 0.432820 0.980242
vt 0.173060 0.914494
vt 0.365806 0.931602
vt 0.351843 0.932485
vt 0.347401 0.934790
vt 0.347422 0.938368
vt 0.365094 0.935370
vt 0.351809 0.936302
vt 0.190726 0.936226
vt 0.486252 0.933773
vt 0.195153 0.938368
vt 0.195153 0.934951
vt 0.486247 0.930275
vt 0.190687 0.932680
vt 0.421255 0.909247
vt 0.011348 0.841018
vt 0.015815 0.838899
vt 0.015781 0.832888
vt 0.419848 0.903486
vt 0.011370 0.835181
vt 0.431420 0.900113
vt 0.173303 0.833291
vt 0.168915 0.831014
vt 0.169274 0.835856
vt 0.431379 0.904772
vt 0.173701 0.838013
s 1
usemtl M_Sigarettes_512
f 17/33/1 42/77/2 39/72/3
f 38/71/4 26/51/5 20/39/6
f 32/61/7 21/41/8 10/18/9
f 31/60/10 14/27/11 34/65/12
f 6/11/13 40/73/14 29/57/15
f 2/3/16 30/59/17 1/1/18
f 28/55/19 33/64/20 15/28/21
f 22/44/22 16/32/23 9/17/24
f 30/59/17 11/21/25 5/9/26
f 3/5/27 43/78/28 38/71/4
f 4/8/29 36/67/30 2/4/16
f 2/4/16 44/79/31 4/8/29
f 1/1/18 34/65/12 2/3/16
f 3/5/27 42/77/2 4/7/29
f 1/2/18 37/69/32 32/61/7
f 29/57/15 3/6/27 1/2/18
f 41/75/33 13/25/34 36/67/30
f 5/9/26 7/14/35 6/10/13
f 8/15/36 10/20/9 9/16/24
f 11/21/25 13/24/34 12/22/37
f 14/27/11 16/31/23 15/30/21
f 17/33/1 19/38/38 18/34/39
f 20/39/6 22/43/22 21/42/8
f 23/45/40 25/49/41 24/48/42
f 26/51/5 28/56/19 27/52/43
f 29/58/15 1/1/18 30/59/17
f 31/60/10 1/1/18 32/62/7
f 33/63/20 2/3/16 34/65/12
f 35/66/44 2/3/16 36/68/30
f 37/70/32 3/5/27 38/71/4
f 39/72/3 3/5/27 40/74/14
f 41/76/33 4/7/29 42/77/2
f 43/78/28 4/7/29 44/80/31
f 9/16/24 14/27/11 8/15/36
f 12/22/37 5/9/26 11/21/25
f 22/43/22 26/51/5 27/52/43
f 23/45/40 18/34/39 25/49/41
f 15/29/21 27/53/43 28/54/19
f 22/44/22 10/19/9 21/40/8
f 18/35/39 6/12/13 7/13/35
f 25/50/41 13/26/34 24/46/42
f 31/60/10 10/20/9 8/15/36
f 20/39/6 37/70/32 38/71/4
f 29/58/15 5/9/26 6/10/13
f 11/21/25 36/68/30 13/24/34
f 39/72/3 19/38/38 17/33/1
f 34/65/12 15/30/21 33/63/20
f 44/80/31 26/51/5 43/78/28
f 24/48/42 42/77/2 23/45/40
f 12/23/37 18/35/39 7/13/35
f 17/33/1 23/45/40 42/77/2
f 38/71/4 43/78/28 26/51/5
f 32/61/7 37/69/32 21/41/8
f 31/60/10 8/15/36 14/27/11
f 6/11/13 19/36/38 40/73/14
f 2/3/16 35/66/44 30/59/17
f 28/55/19 44/79/31 33/64/20
f 22/44/22 27/53/43 16/32/23
f 30/59/17 35/66/44 11/21/25
f 3/5/27 4/7/29 43/78/28
f 4/8/29 41/75/33 36/67/30
f 2/4/16 33/64/20 44/79/31
f 1/1/18 31/60/10 34/65/12
f 3/5/27 39/72/3 42/77/2
f 1/2/18 3/6/27 37/69/32
f 29/57/15 40/73/14 3/6/27
f 41/75/33 24/47/42 13/25/34
f 9/16/24 16/31/23 14/27/11
f 12/22/37 7/14/35 5/9/26
f 22/43/22 20/39/6 26/51/5
f 23/45/40 17/33/1 18/34/39
f 15/29/21 16/32/23 27/53/43
f 22/44/22 9/17/24 10/19/9
f 18/35/39 19/37/38 6/12/13
f 25/50/41 12/23/37 13/26/34
f 31/60/10 32/62/7 10/20/9
f 20/39/6 21/42/8 37/70/32
f 29/58/15 30/59/17 5/9/26
f 11/21/25 35/66/44 36/68/30
f 39/72/3 40/74/14 19/38/38
f 34/65/12 14/27/11 15/30/21
f 44/80/31 28/56/19 26/51/5
f 24/48/42 41/76/33 42/77/2
f 12/23/37 25/50/41 18/35/39
