# Blender 3.1.0
# www.blender.org
mtllib pinboard2.mtl
o PinBoard
v 0.021961 1.381394 -1.715076
v 0.021961 0.900438 -1.715076
v 0.021961 0.900438 -2.396350
v 0.021961 1.381394 -2.396350
v 0.010530 0.878299 -1.693612
v 0.010530 0.878299 -2.417814
v 0.010530 1.403533 -1.693612
v 0.010530 1.403533 -2.417814
v 0.030606 1.381394 -1.715076
v 0.034413 1.385486 -1.711063
v 0.034413 0.896346 -1.711063
v 0.030606 0.900438 -1.715076
v 0.034413 0.896346 -2.400362
v 0.030606 0.900438 -2.396350
v 0.034413 1.385486 -2.400362
v 0.030606 1.381394 -2.396350
v 0.034413 1.399726 -1.697419
v 0.030606 1.403533 -1.693612
v 0.030606 0.878299 -1.693612
v 0.034413 0.882107 -1.697419
v 0.030606 0.878299 -2.417814
v 0.034413 0.882107 -2.414007
v 0.030606 1.403533 -2.417814
v 0.034413 1.399726 -2.414007
vn 0.3807 -0.0000 -0.0000
vn -0.0000 -0.0000 0.3807
vn -0.0000 -0.3807 -0.0000
vn -0.0000 0.3807 -0.0000
vn -0.0000 -0.0000 -0.3807
vt 0.009541 0.989008
vt 0.709729 0.968589
vt 0.861982 0.526543
vt 0.009541 0.508058
vt 0.786743 0.398026
vt 0.862015 0.967218
vt 0.690806 0.508058
vt 0.786808 0.968583
vt 0.933061 0.526543
vt 0.690806 0.989008
vt 0.709663 0.398027
vt 0.933094 0.967218
vt 0.917192 0.987490
vt 0.846505 0.371699
vt 0.988314 0.501725
vt 0.846430 0.986472
vt 0.917234 0.501725
vt 0.769351 0.986476
vt 0.769426 0.371700
vt 0.988272 0.987489
vt 0.869902 0.526543
vt 0.719688 0.968547
vt 0.877693 0.520779
vt 0.729705 0.971838
vt 0.877693 0.970928
vt 0.806785 0.390746
vt 0.869936 0.967218
vt 0.796702 0.397983
vt 0.806783 0.971832
vt 0.948772 0.520779
vt 0.796766 0.968541
vt 0.940981 0.526543
vt 0.948772 0.970927
vt 0.729704 0.390746
vt 0.941015 0.967217
vt 0.719622 0.397984
vt 0.890251 0.507674
vt 0.741709 0.983340
vt 0.898668 0.501724
vt 0.752308 0.986474
vt 0.898625 0.987488
vt 0.829463 0.371697
vt 0.890250 0.984032
vt 0.818789 0.379243
vt 0.829388 0.986470
vt 0.969747 0.501724
vt 0.818789 0.983336
vt 0.961330 0.507674
vt 0.969704 0.987488
vt 0.752383 0.371698
vt 0.961329 0.984032
vt 0.741709 0.379244
s 1
usemtl M_Office_PinBoard_Photo_Notepad_1024
f 2/4/1 3/7/1 4/10/1 1/1/1
f 7/17/2 5/13/2 19/41/2 18/39/2
f 1/2/3 4/11/3 16/36/3 9/22/3
f 10/24/1 15/34/1 24/52/1 17/38/1
f 15/33/1 13/30/1 22/48/1 24/51/1
f 3/8/4 2/5/4 12/28/4 14/31/4
f 4/12/2 3/9/2 14/32/4 16/35/3
f 11/25/1 10/23/1 17/37/1 20/43/1
f 2/6/5 1/3/5 9/21/3 12/27/4
f 13/29/1 11/26/1 20/44/1 22/47/1
f 8/19/4 7/18/4 18/40/4 23/50/4
f 6/15/5 8/20/5 23/49/5 21/46/5
f 5/14/3 6/16/3 21/45/3 19/42/3
f 10/23/1 11/25/1 12/27/4 9/21/3
f 11/26/1 13/29/1 14/31/4 12/28/4
f 13/30/1 15/33/1 16/35/3 14/32/4
f 15/34/1 10/24/1 9/22/3 16/36/3
f 18/39/2 19/41/2 20/43/1 17/37/1
f 19/42/3 21/45/3 22/47/1 20/44/1
f 21/46/5 23/49/5 24/51/1 22/48/1
f 23/50/4 18/40/4 17/38/1 24/52/1
