# Blender 3.1.0
# www.blender.org
mtllib clipboard paper.mtl
o Clipboard_Paper
v -0.037649 1.159433 2.439058
v -0.036293 1.161555 2.236367
v -0.032274 1.442763 2.432887
v -0.043259 1.448459 2.231479
v -0.043004 1.429348 2.441485
v -0.040354 1.448459 2.424475
v -0.037102 1.354024 2.438757
v -0.043259 1.392032 2.441479
v -0.043259 1.317688 2.441479
v -0.041192 1.362416 2.421784
v -0.043259 1.266912 2.231479
v -0.043259 1.158459 2.252371
v -0.043259 1.176066 2.441479
v -0.043259 1.158459 2.401079
vn 0.3544 0.1276 -0.0556
vn 0.3804 0.0152 -0.0045
vn 0.3781 0.0429 -0.0117
vn 0.3670 -0.0212 -0.0989
vn 0.3799 0.0049 -0.0241
vn 0.3793 0.0073 0.0318
vn 0.3650 -0.0812 -0.0714
vn 0.3767 -0.0546 -0.0065
vn 0.3805 -0.0108 -0.0036
vn 0.3807 0.0002 0.0058
vn 0.3748 0.0126 0.0655
vn 0.3458 0.0301 0.1564
vn 0.3807 -0.0023 -0.0039
vn 0.1007 -0.2518 -0.2672
vt 0.510887 0.623889
vt 0.773378 0.623889
vt 0.510887 0.986376
vt 0.773378 0.986376
vt 0.510887 0.962489
vt 0.532226 0.986376
vt 0.510887 0.868336
vt 0.510887 0.915844
vt 0.510887 0.822918
vt 0.534213 0.878825
vt 0.773378 0.759450
vt 0.747264 0.623889
vt 0.510887 0.645897
vt 0.561385 0.623889
s 1
usemtl M_Clipboard_Notepad_1024
f 1/1/1 14/14/2 13/13/3
f 7/7/4 10/10/5 8/8/6
f 8/8/6 10/10/5 6/6/7 5/5/8
f 9/9/9 10/10/5 7/7/4
f 11/11/10 12/12/11 2/2/12
f 13/13/3 14/14/2 10/10/5 9/9/9
f 10/10/5 14/14/2 11/11/10 4/4/13
f 11/11/10 14/14/2 12/12/11
f 6/6/7 10/10/5 4/4/13
f 6/6/7 3/3/14 5/5/8
