# Blender 3.1.0
# www.blender.org
mtllib filebox green.mtl
o FileBox_Green
v -0.223516 0.958510 4.872762
v -0.422901 1.290475 4.875904
v -0.480231 0.963490 4.875904
v -0.227286 0.963490 4.875904
v -0.223516 0.958510 4.958264
v -0.422901 1.290475 4.955122
v -0.480231 0.963490 4.955122
v -0.227286 0.963490 4.955122
v -0.422901 1.290475 4.872762
v -0.223516 1.093274 4.958264
v -0.422901 1.290475 4.958264
v -0.223516 1.093274 4.872762
v -0.480231 1.290475 4.875904
v -0.227286 1.097003 4.955122
v -0.227286 1.097003 4.875904
v -0.480231 1.290475 4.955122
v -0.483727 0.958510 4.877572
v -0.481144 0.958510 4.872762
v -0.481144 0.958510 4.958264
v -0.483727 0.958510 4.953454
v -0.481144 1.290475 4.872762
v -0.483727 1.290475 4.877572
v -0.483727 1.290475 4.953454
v -0.481144 1.290475 4.958264
v -0.483727 1.072056 4.915514
v -0.483727 1.070076 4.906837
v -0.483727 1.064526 4.899878
v -0.483727 1.056507 4.896016
v -0.483727 1.047606 4.896016
v -0.483727 1.039587 4.899878
v -0.483727 1.034037 4.906837
v -0.483727 1.032056 4.915514
v -0.483727 1.034037 4.924192
v -0.483727 1.039587 4.931151
v -0.483727 1.047606 4.935013
v -0.483727 1.056507 4.935013
v -0.483727 1.064526 4.931151
v -0.483727 1.070076 4.924192
v -0.485269 1.068908 4.915514
v -0.485269 1.067239 4.908203
v -0.485269 1.062563 4.902339
v -0.485269 1.055806 4.899085
v -0.485269 1.048306 4.899085
v -0.485269 1.041550 4.902339
v -0.485269 1.036874 4.908203
v -0.485269 1.035205 4.915514
v -0.485269 1.036874 4.922826
v -0.485269 1.041550 4.928689
v -0.485269 1.048306 4.931943
v -0.485269 1.055806 4.931943
v -0.485269 1.062563 4.928689
v -0.485269 1.067239 4.922826
v -0.480263 1.072056 4.915514
v -0.480263 1.070076 4.906837
v -0.480263 1.064526 4.899878
v -0.480263 1.056507 4.896016
v -0.480263 1.047606 4.896016
v -0.480263 1.039587 4.899878
v -0.480263 1.034037 4.906837
v -0.480263 1.032056 4.915514
v -0.480263 1.034037 4.924192
v -0.480263 1.039587 4.931151
v -0.480263 1.047606 4.935013
v -0.480263 1.056507 4.935013
v -0.480263 1.064526 4.931151
v -0.480263 1.070076 4.924192
v -0.478754 1.068908 4.915514
v -0.478754 1.067239 4.908203
v -0.478754 1.062563 4.902339
v -0.478754 1.055806 4.899085
v -0.478754 1.048306 4.899085
v -0.478754 1.041550 4.902339
v -0.478754 1.036874 4.908203
v -0.478754 1.035205 4.915514
v -0.478754 1.036874 4.922826
v -0.478754 1.041550 4.928689
v -0.478754 1.048306 4.931943
v -0.478754 1.055806 4.931943
v -0.478754 1.062563 4.928689
v -0.478754 1.067239 4.922826
v -0.481108 1.066205 4.915514
v -0.481108 1.064804 4.909375
v -0.481108 1.060878 4.904452
v -0.481108 1.055205 4.901721
v -0.481108 1.048908 4.901721
v -0.481108 1.043235 4.904452
v -0.481108 1.039309 4.909375
v -0.481108 1.037908 4.915514
v -0.481108 1.039309 4.921653
v -0.481108 1.043235 4.926576
v -0.481108 1.048908 4.929308
v -0.481108 1.055205 4.929308
v -0.481108 1.060878 4.926576
v -0.481108 1.064804 4.921653
vn -0.0000 -0.0000 -1.0958
vn -0.0000 -0.0003 -1.0958
vn -0.9984 -0.0000 -0.0617
vn -1.0000 0.0047 -0.0027
vn -1.0000 0.0031 -0.0000
vn -0.0000 1.0000 -0.0000
vn 0.6075 0.7943 -0.0000
vn -0.0000 -0.0000 1.0958
vn -0.0000 -0.0002 1.0958
vn 0.9994 0.0338 -0.0000
vn 1.0000 -0.0000 -0.0000
vn 0.7032 0.7110 -0.0000
vn 0.9994 0.0350 -0.0000
vn 1.0000 0.0027 -0.0000
vn 1.0000 0.0044 -0.0026
vn 1.0000 -0.0001 0.0001
vn -1.0000 -0.0000 -0.0000
vn -0.9893 -0.0000 0.1595
vn -0.9984 -0.0000 0.0623
vn -0.0000 -1.0000 -0.0000
vn -0.9553 0.1782 0.2586
vn -0.9990 -0.0088 -0.0481
vn -0.9998 -0.0105 -0.0159
vn -0.9603 -0.2487 -0.1386
vn -1.0000 0.0049 0.0073
vn -1.0000 0.0047 0.0027
vn -0.9603 0.2487 0.1386
vn -0.9999 -0.0119 -0.0069
vn -0.9644 -0.2646 -0.0000
vn -0.9644 0.2645 -0.0000
vn -1.0000 -0.0052 -0.0000
vn -0.9999 -0.0119 0.0069
vn -0.9998 -0.0105 0.0159
vn -0.9603 0.2487 -0.1386
vn -1.0000 0.0049 -0.0073
vn -0.9603 -0.2487 0.1386
vn -0.9991 -0.0089 0.0454
vn -0.9553 0.1782 -0.2586
vn -1.0000 0.0004 -0.0021
vn -0.9553 -0.1782 0.2586
vn -0.9577 -0.0661 -0.3068
vn -1.0000 0.0004 0.0022
vn -0.9577 0.0661 0.3068
vn -0.9553 -0.1782 -0.2586
vn 0.0158 -0.8748 0.5306
vn -0.9393 0.0664 -0.3687
vn 0.0146 0.5721 -0.8986
vn -0.9393 -0.0665 0.3687
vn 0.0146 -0.5721 0.8986
vn 0.0135 0.1887 -1.0760
vn 0.0135 -0.1887 1.0760
vn 0.0146 -0.5721 -0.8986
vn 0.0099 -0.2012 -1.0733
vn 0.0146 0.5721 0.8986
vn 0.0099 0.2012 1.0733
vn 0.0158 -0.8748 -0.5306
vn 0.0158 0.8748 0.5306
vn 0.0194 -0.9998 -0.0000
vn 0.0194 0.9998 -0.0000
vn 0.0158 0.8748 -0.5306
vn -0.9893 -0.0000 -0.1596
vn 0.9992 -0.0081 -0.0432
vn 0.9996 0.0225 0.0211
vn 0.9999 -0.0102 -0.0153
vn 1.0000 0.0046 0.0068
vn 0.9997 -0.0226 -0.0056
vn 1.0000 0.0044 0.0026
vn 0.9997 0.0226 0.0056
vn 0.9999 -0.0118 -0.0068
vn 0.9998 -0.0174 -0.0000
vn 0.9998 0.0174 -0.0000
vn 1.0000 -0.0045 -0.0000
vn 0.9999 -0.0118 0.0069
vn 0.9997 0.0226 -0.0056
vn 0.9997 -0.0226 0.0056
vn 0.9999 -0.0102 0.0153
vn 0.9996 0.0225 -0.0211
vn 1.0000 0.0046 -0.0069
vn 0.9996 -0.0225 0.0211
vn 0.9993 -0.0081 0.0406
vn 0.9981 0.0108 -0.0661
vn 1.0000 0.0004 -0.0000
vn 0.9981 -0.0108 0.0661
vn 0.9998 -0.0106 -0.0151
vn 1.0000 0.0004 0.0001
vn 0.9998 0.0106 0.0151
vn 0.9996 -0.0225 -0.0211
vn 1.0000 0.0004 -0.0003
vn 1.0000 -0.0001 -0.0001
vn 1.0000 0.0004 0.0003
vt 0.641511 0.216626
vt 0.635606 0.212934
vt 0.013058 0.122993
vt 0.208403 0.547663
vt 0.839926 0.551023
vt 0.988108 0.130272
vt 0.265708 0.220822
vt 0.285603 0.124612
vt 0.624990 0.126068
vt 0.767283 0.130272
vt 0.012873 0.220822
vt 0.540488 0.215924
vt 0.546263 0.212934
vt 0.013058 0.204636
vt 0.342062 0.550321
vt 1.208403 0.547663
vt 0.988108 0.199430
vt 1.265708 0.220822
vt 0.285603 0.202811
vt 1.012873 0.220822
vt 0.767283 0.199430
vt 0.624990 0.201710
vt 0.840936 0.548571
vt 0.540483 0.350707
vt 0.546263 0.353750
vt 0.341051 0.547868
vt 0.641511 0.351405
vt 0.635606 0.353750
vt 0.265708 0.547663
vt 0.898222 0.551546
vt 0.908655 0.550127
vt 0.608384 0.124612
vt 0.538734 0.356479
vt 0.549547 0.357647
vt 1.012873 0.354276
vt 0.752477 0.201710
vt 0.632322 0.357647
vt 0.643262 0.357183
vt 0.012873 0.354276
vt 0.752477 0.126068
vt 1.265708 0.547663
vt 0.988281 0.550127
vt 0.283766 0.550843
vt 0.608384 0.202811
vt 0.261525 0.127586
vt 0.910331 0.216448
vt 0.899169 0.216626
vt 0.905496 0.216448
vt 0.259058 0.122993
vt 0.282827 0.215926
vt 0.991440 0.216448
vt 0.259058 0.204636
vt 0.261525 0.200043
vt 0.986605 0.216448
vt 0.905496 0.550127
vt 0.899161 0.548632
vt 0.910331 0.550127
vt 0.986605 0.550127
vt 0.282827 0.547928
vt 0.991440 0.550127
vt 0.948469 0.330581
vt 0.939746 0.328590
vt 0.932752 0.323011
vt 0.928870 0.314951
vt 0.928870 0.306004
vt 0.932752 0.297943
vt 0.939746 0.292365
vt 0.948469 0.290374
vt 0.957192 0.292365
vt 0.964186 0.297943
vt 0.968068 0.306004
vt 0.968068 0.314951
vt 0.964186 0.323011
vt 0.957192 0.328590
vt 0.948469 0.327416
vt 0.941120 0.325738
vt 0.935226 0.321038
vt 0.931955 0.314247
vt 0.931955 0.306708
vt 0.935226 0.299916
vt 0.941120 0.295217
vt 0.948469 0.293539
vt 0.955819 0.295217
vt 0.961712 0.299916
vt 0.964983 0.306708
vt 0.964983 0.314247
vt 0.961712 0.321038
vt 0.955819 0.325738
vt 0.392774 0.163713
vt 0.390818 0.155147
vt 0.385340 0.148278
vt 0.377424 0.144465
vt 0.368638 0.144465
vt 0.360722 0.148278
vt 0.355243 0.155147
vt 0.353288 0.163713
vt 0.355243 0.172280
vt 0.360722 0.179149
vt 0.368638 0.182961
vt 0.377424 0.182961
vt 0.385340 0.179149
vt 0.390818 0.172280
vt 0.389665 0.163713
vt 0.388018 0.156496
vt 0.383402 0.150707
vt 0.376732 0.147495
vt 0.369329 0.147495
vt 0.362659 0.150707
vt 0.358043 0.156496
vt 0.356396 0.163713
vt 0.358043 0.170931
vt 0.362659 0.176718
vt 0.369329 0.179931
vt 0.376732 0.179931
vt 0.383402 0.176718
vt 0.388018 0.170931
vt 0.948469 0.324699
vt 0.386997 0.163713
vt 0.942299 0.323290
vt 0.385614 0.157653
vt 0.937351 0.319344
vt 0.381739 0.152793
vt 0.934604 0.313642
vt 0.376139 0.150097
vt 0.934604 0.307313
vt 0.369923 0.150097
vt 0.937351 0.301610
vt 0.364323 0.152793
vt 0.942299 0.297664
vt 0.360447 0.157653
vt 0.948469 0.296256
vt 0.359065 0.163713
vt 0.954640 0.297664
vt 0.360447 0.169773
vt 0.959588 0.301610
vt 0.364323 0.174632
vt 0.962334 0.307313
vt 0.369923 0.177329
vt 0.962334 0.313642
vt 0.376139 0.177329
vt 0.959588 0.319344
vt 0.381739 0.174632
vt 0.954640 0.323290
vt 0.385614 0.169773
s 1
usemtl M_Filebox_1024
f 1/1/1 18/47/2 12/27/1
f 22/57/3 26/62/4 25/61/5
f 13/30/6 9/23/7 21/56/6
f 10/24/8 24/59/9 19/50/8
f 12/27/1 21/56/1 9/23/1
f 5/12/8 10/24/8 19/50/8
f 12/28/10 5/13/11 1/2/11
f 7/17/6 4/10/6 3/6/6
f 16/42/6 22/57/6 23/58/6
f 14/33/12 11/26/7 10/24/13
f 15/38/12 9/23/7 2/5/7
f 16/43/6 11/26/7 6/15/7
f 14/34/12 12/28/10 15/37/12
f 3/7/8 2/4/8 13/29/8
f 7/18/1 14/35/1 8/20/1
f 3/7/8 15/39/8 2/4/8
f 7/18/1 16/41/1 6/16/1
f 53/89/14 54/90/15 13/32/16
f 8/22/17 15/40/17 4/9/17
f 21/55/6 22/57/6 13/31/6
f 23/58/6 24/60/6 16/42/6
f 18/48/2 22/57/3 21/55/1
f 20/54/18 24/60/9 23/58/19
f 20/53/20 17/45/20 18/49/20
f 44/80/21 29/65/22 30/66/23
f 52/88/24 37/73/25 38/74/26
f 45/81/27 30/66/23 31/67/28
f 39/75/29 38/74/26 25/61/5
f 46/82/30 31/67/28 32/68/31
f 33/69/32 46/82/30 32/68/31
f 26/62/4 39/75/29 25/61/5
f 34/70/33 47/83/34 33/69/32
f 27/63/35 40/76/36 26/62/4
f 35/71/37 48/84/38 34/70/33
f 28/64/39 41/77/40 27/63/35
f 50/86/41 35/71/37 36/72/42
f 43/79/43 28/64/39 29/65/22
f 51/87/44 36/72/42 37/73/25
f 41/77/40 82/119/45 40/76/36
f 49/85/46 90/135/47 48/84/38
f 42/78/48 83/121/49 41/77/40
f 50/86/41 91/137/50 49/85/46
f 43/79/43 84/123/51 42/78/48
f 50/86/41 93/141/52 92/139/53
f 43/79/43 86/127/54 85/125/55
f 51/87/44 94/143/56 93/141/52
f 44/80/21 87/129/57 86/127/54
f 52/88/24 81/117/58 94/143/56
f 45/81/27 88/131/59 87/129/57
f 47/83/34 88/131/59 46/82/30
f 40/76/36 81/117/58 39/75/29
f 48/84/38 89/133/60 47/83/34
f 20/54/18 33/69/32 32/68/31
f 36/72/42 35/71/37 20/54/18
f 22/57/3 17/46/61 28/64/39
f 57/93/62 72/108/63 58/94/64
f 65/101/65 80/116/66 66/102/67
f 58/94/64 73/109/68 59/95/69
f 66/102/67 67/103/70 53/89/14
f 59/95/69 74/110/71 60/96/72
f 61/97/73 74/110/71 75/111/74
f 54/90/15 67/103/70 68/104/75
f 62/98/76 75/111/74 76/112/77
f 55/91/78 68/104/75 69/105/79
f 63/99/80 76/112/77 77/113/81
f 56/92/82 69/105/79 70/106/83
f 63/99/80 78/114/84 64/100/85
f 56/92/82 71/107/86 57/93/62
f 64/100/85 79/115/87 65/101/65
f 82/120/45 69/105/79 68/104/75
f 90/136/47 77/113/81 76/112/77
f 83/122/49 70/106/83 69/105/79
f 91/138/50 78/114/84 77/113/81
f 84/124/51 71/107/86 70/106/83
f 78/114/84 93/142/52 79/115/87
f 71/107/86 86/128/54 72/108/63
f 79/115/87 94/144/56 80/116/66
f 72/108/63 87/130/57 73/109/68
f 80/116/66 81/118/58 67/103/70
f 73/109/68 88/132/59 74/110/71
f 88/132/59 75/111/74 74/110/71
f 81/118/58 68/104/75 67/103/70
f 89/134/60 76/112/77 75/111/74
f 60/96/72 61/97/73 7/19/88
f 7/19/88 64/100/85 16/44/89
f 56/92/82 57/93/62 3/8/90
f 37/73/25 23/58/19 38/74/26
f 23/58/19 22/57/3 25/61/5
f 38/74/26 23/58/19 25/61/5
f 22/57/3 27/63/35 26/62/4
f 13/30/6 2/5/7 9/23/7
f 10/24/8 11/26/8 24/59/9
f 12/27/1 18/47/2 21/56/1
f 12/28/10 10/25/13 5/13/11
f 7/17/6 8/21/6 4/10/6
f 16/42/6 13/31/6 22/57/6
f 14/33/12 6/15/7 11/26/7
f 15/38/12 12/27/10 9/23/7
f 16/43/6 24/59/6 11/26/7
f 14/34/12 10/25/13 12/28/10
f 7/18/1 6/16/1 14/35/1
f 3/7/8 4/11/8 15/39/8
f 13/32/16 16/44/89 53/89/14
f 16/44/89 65/101/65 66/102/67
f 16/44/89 66/102/67 53/89/14
f 54/90/15 55/91/78 13/32/16
f 8/22/17 14/36/17 15/40/17
f 18/48/2 17/46/61 22/57/3
f 20/54/18 19/51/8 24/60/9
f 18/49/20 1/3/20 5/14/20
f 5/14/20 19/52/20 18/49/20
f 19/52/20 20/53/20 18/49/20
f 44/80/21 43/79/43 29/65/22
f 52/88/24 51/87/44 37/73/25
f 45/81/27 44/80/21 30/66/23
f 39/75/29 52/88/24 38/74/26
f 46/82/30 45/81/27 31/67/28
f 33/69/32 47/83/34 46/82/30
f 26/62/4 40/76/36 39/75/29
f 34/70/33 48/84/38 47/83/34
f 27/63/35 41/77/40 40/76/36
f 35/71/37 49/85/46 48/84/38
f 28/64/39 42/78/48 41/77/40
f 50/86/41 49/85/46 35/71/37
f 43/79/43 42/78/48 28/64/39
f 51/87/44 50/86/41 36/72/42
f 41/77/40 83/121/49 82/119/45
f 49/85/46 91/137/50 90/135/47
f 42/78/48 84/123/51 83/121/49
f 50/86/41 92/139/53 91/137/50
f 43/79/43 85/125/55 84/123/51
f 50/86/41 51/87/44 93/141/52
f 43/79/43 44/80/21 86/127/54
f 51/87/44 52/88/24 94/143/56
f 44/80/21 45/81/27 87/129/57
f 52/88/24 39/75/29 81/117/58
f 45/81/27 46/82/30 88/131/59
f 47/83/34 89/133/60 88/131/59
f 40/76/36 82/119/45 81/117/58
f 48/84/38 90/135/47 89/133/60
f 30/66/23 17/46/61 31/67/28
f 17/46/61 20/54/18 32/68/31
f 31/67/28 17/46/61 32/68/31
f 20/54/18 34/70/33 33/69/32
f 23/58/19 37/73/25 36/72/42
f 35/71/37 34/70/33 20/54/18
f 23/58/19 36/72/42 20/54/18
f 17/46/61 30/66/23 29/65/22
f 28/64/39 27/63/35 22/57/3
f 17/46/61 29/65/22 28/64/39
f 57/93/62 71/107/86 72/108/63
f 65/101/65 79/115/87 80/116/66
f 58/94/64 72/108/63 73/109/68
f 66/102/67 80/116/66 67/103/70
f 59/95/69 73/109/68 74/110/71
f 61/97/73 60/96/72 74/110/71
f 54/90/15 53/89/14 67/103/70
f 62/98/76 61/97/73 75/111/74
f 55/91/78 54/90/15 68/104/75
f 63/99/80 62/98/76 76/112/77
f 56/92/82 55/91/78 69/105/79
f 63/99/80 77/113/81 78/114/84
f 56/92/82 70/106/83 71/107/86
f 64/100/85 78/114/84 79/115/87
f 82/120/45 83/122/49 69/105/79
f 90/136/47 91/138/50 77/113/81
f 83/122/49 84/124/51 70/106/83
f 91/138/50 92/140/53 78/114/84
f 84/124/51 85/126/55 71/107/86
f 78/114/84 92/140/53 93/142/52
f 71/107/86 85/126/55 86/128/54
f 79/115/87 93/142/52 94/144/56
f 72/108/63 86/128/54 87/130/57
f 80/116/66 94/144/56 81/118/58
f 73/109/68 87/130/57 88/132/59
f 88/132/59 89/134/60 75/111/74
f 81/118/58 82/120/45 68/104/75
f 89/134/60 90/136/47 76/112/77
f 7/19/88 3/8/90 60/96/72
f 3/8/90 58/94/64 59/95/69
f 3/8/90 59/95/69 60/96/72
f 61/97/73 62/98/76 7/19/88
f 7/19/88 62/98/76 63/99/80
f 64/100/85 65/101/65 16/44/89
f 7/19/88 63/99/80 64/100/85
f 13/32/16 55/91/78 56/92/82
f 57/93/62 58/94/64 3/8/90
f 13/32/16 56/92/82 3/8/90
