# Blender 3.1.0
# www.blender.org
mtllib folder.mtl
o Folder
v -0.017926 0.960482 5.063268
v -0.017926 1.276128 5.063268
v 0.014575 0.960482 5.063268
v 0.014575 1.276128 5.063268
v -0.035484 0.960482 4.825297
v -0.035484 1.276128 4.825297
v -0.015806 0.960482 5.063083
v -0.015806 1.276128 5.063083
v 0.012455 0.960482 5.063083
v 0.012455 1.276128 5.063083
v -0.038182 0.960482 4.825904
v -0.034588 0.960482 4.822606
v -0.038818 0.960482 4.823333
v -0.036894 0.960482 4.821786
v -0.034588 1.276128 4.822606
v -0.038182 1.276128 4.825904
v -0.036894 1.276128 4.821786
v -0.038818 1.276128 4.823333
v 0.031237 0.960482 4.822606
v 0.034831 0.960482 4.825904
v 0.033543 0.960482 4.821786
v 0.035467 0.960482 4.823333
v 0.034831 1.276128 4.825904
v 0.031237 1.276128 4.822606
v 0.035467 1.276128 4.823333
v 0.033543 1.276128 4.821786
v -0.001674 1.052465 4.822425
v 0.007402 1.050394 4.822425
v 0.014680 1.044589 4.822425
v 0.018720 1.036202 4.822425
v 0.018720 1.026892 4.822425
v 0.014680 1.018505 4.822425
v 0.007402 1.012700 4.822425
v -0.001674 1.010629 4.822425
v -0.010750 1.012700 4.822425
v -0.018029 1.018505 4.822425
v -0.022068 1.026892 4.822425
v -0.022068 1.036202 4.822425
v -0.018029 1.044589 4.822425
v -0.010750 1.050394 4.822425
v 0.032132 0.960482 4.825297
v 0.032132 1.276128 4.825297
v -0.001749 1.052465 4.825477
v -0.010825 1.050394 4.825477
v -0.018104 1.044589 4.825477
v -0.022143 1.036202 4.825477
v -0.022143 1.026892 4.825477
v -0.018104 1.018505 4.825477
v -0.010825 1.012700 4.825477
v -0.001749 1.010629 4.825477
v 0.007327 1.012700 4.825477
v 0.014606 1.018505 4.825477
v 0.018645 1.026892 4.825477
v 0.018645 1.036202 4.825477
v 0.014606 1.044589 4.825477
v 0.007327 1.050394 4.825477
v -0.001695 1.050330 4.821819
v -0.001712 1.048473 4.823951
v -0.001728 1.050330 4.826078
v -0.009878 1.048470 4.826078
v -0.009055 1.046797 4.823951
v -0.009845 1.048470 4.821819
v -0.016414 1.043258 4.826078
v -0.014945 1.042100 4.823951
v -0.016380 1.043258 4.821819
v -0.020041 1.035727 4.826078
v -0.018213 1.035313 4.823951
v -0.020007 1.035727 4.821819
v -0.020041 1.027367 4.826078
v -0.018213 1.027781 4.823951
v -0.020007 1.027367 4.821819
v -0.016414 1.019836 4.826078
v -0.014945 1.020994 4.823951
v -0.016380 1.019836 4.821819
v -0.009878 1.014624 4.826078
v -0.009055 1.016297 4.823951
v -0.009845 1.014624 4.821819
v -0.001728 1.012763 4.826078
v -0.001712 1.014621 4.823951
v -0.001695 1.012763 4.821819
v 0.006422 1.014624 4.826078
v 0.005632 1.016297 4.823951
v 0.006455 1.014624 4.821819
v 0.012957 1.019836 4.826078
v 0.011522 1.020994 4.823951
v 0.012991 1.019836 4.821819
v 0.016584 1.027367 4.826078
v 0.014790 1.027781 4.823951
v 0.016618 1.027367 4.821819
v 0.016584 1.035727 4.826078
v 0.014790 1.035313 4.823951
v 0.016618 1.035727 4.821819
v 0.012957 1.043258 4.826078
v 0.011522 1.042100 4.823951
v 0.012991 1.043258 4.821819
v 0.006422 1.048470 4.826078
v 0.005632 1.046797 4.823951
v 0.006455 1.048470 4.821819
v 0.013515 0.959380 5.064196
v 0.013515 1.277230 5.064196
v 0.033482 0.959380 4.825333
v 0.033482 1.277230 4.825333
v -0.035448 1.277230 4.823952
v 0.032097 1.277230 4.823951
v -0.016866 0.959380 5.064196
v -0.016866 1.277230 5.064196
v -0.036833 1.277230 4.825333
v -0.036833 0.959380 4.825333
v -0.036975 1.277916 4.823606
v 0.033624 1.277916 4.823606
v -0.035448 0.959380 4.823951
v 0.032097 0.959380 4.823951
v 0.033624 0.958694 4.823606
v -0.036975 0.958694 4.823606
vn 0.0733 -0.0373 -0.9966
vn -0.0157 -0.9902 0.1387
vn 0.0156 -0.9914 0.1299
vn -0.0556 -0.9985 -0.0000
vn 0.9964 -0.0000 0.0850
vn -0.0976 -0.6255 0.7741
vn 0.0556 -0.9985 -0.0000
vn 0.9966 -0.0000 -0.0825
vn 0.0925 -0.6259 0.7744
vn -0.9966 -0.0000 -0.0825
vn -0.0157 0.9902 0.1391
vn 0.0183 0.0008 -0.9998
vn 0.0156 0.9915 0.1295
vn 0.0555 0.9985 -0.0000
vn -0.9964 -0.0000 0.0850
vn 0.0976 0.6255 0.7741
vn -0.0925 0.6259 0.7744
vn -0.0556 0.9985 -0.0000
vn 0.9964 -0.0000 0.0851
vn -0.9544 -0.0038 -0.2984
vn -0.1694 -0.0039 -0.9855
vn -0.2233 -0.9481 -0.2265
vn -0.1694 0.0039 -0.9855
vn -0.9544 0.0038 -0.2984
vn -0.2233 0.9481 -0.2265
vn 0.1694 -0.0039 -0.9855
vn -0.0734 -0.0364 -0.9966
vn 0.9544 -0.0038 -0.2985
vn 0.2234 -0.9480 -0.2266
vn 0.9544 0.0038 -0.2984
vn 0.1694 0.0039 -0.9855
vn 0.2233 0.9481 -0.2265
vn -0.0183 0.0007 -0.9998
vn -0.0000 0.0008 -1.0000
vn -0.0004 0.0008 -1.0000
vn -0.0000 -0.0033 -1.0000
vn 0.0014 -0.0028 -1.0000
vn 0.0138 -0.0000 -0.9999
vn -0.0138 -0.0000 -0.9999
vn 0.0002 0.0008 1.0000
vn -0.0007 -0.0031 1.0000
vn -0.0135 -0.0000 0.9999
vn 0.0133 -0.0000 0.9999
vn 0.0015 -0.2630 -0.9648
vn -0.1211 0.2461 -0.9616
vn -0.0023 0.2733 -0.9619
vn 0.1160 -0.2373 -0.9645
vn -0.2167 0.1697 -0.9614
vn 0.2082 -0.1639 -0.9643
vn -0.2687 0.0614 -0.9613
vn 0.2464 0.0583 -0.9674
vn 0.2741 -0.0586 -0.9599
vn 0.2082 0.1639 -0.9643
vn -0.2693 -0.0588 -0.9613
vn 0.1160 0.2373 -0.9645
vn -0.2167 -0.1696 -0.9614
vn 0.0015 0.2630 -0.9648
vn -0.1211 -0.2462 -0.9616
vn -0.1123 0.2367 -0.9651
vn -0.0023 -0.2733 -0.9619
vn -0.2031 0.1641 -0.9653
vn 0.1160 -0.2463 -0.9622
vn -0.2398 0.0584 -0.9691
vn 0.2107 -0.1711 -0.9625
vn 0.2635 0.0629 -0.9626
vn 0.2641 -0.0602 -0.9626
vn -0.2660 -0.0588 -0.9622
vn 0.2107 0.1711 -0.9625
vn -0.2031 -0.1641 -0.9653
vn 0.1160 0.2463 -0.9622
vn -0.1123 -0.2367 -0.9651
vn 0.1202 0.2441 0.9623
vn -0.0015 -0.2633 0.9647
vn -0.1161 -0.2375 0.9644
vn -0.0000 -1.0000 0.0001
vn -0.4339 -0.9010 -0.0035
vn 0.2149 0.1683 0.9620
vn -0.2084 -0.1640 0.9642
vn -0.7818 -0.6235 -0.0063
vn 0.2665 0.0609 0.9619
vn -0.2743 -0.0587 0.9598
vn -0.9756 -0.2178 -0.0260
vn -0.2467 0.0583 0.9673
vn 0.2672 -0.0582 0.9619
vn -0.9735 0.2272 -0.0268
vn -0.2084 0.1641 0.9642
vn 0.2149 -0.1682 0.9620
vn -0.7818 0.6235 -0.0063
vn -0.1161 0.2375 0.9644
vn 0.1201 -0.2441 0.9623
vn -0.4339 0.9010 -0.0035
vn -0.0015 0.2633 0.9647
vn 0.0023 -0.2710 0.9626
vn -0.0000 1.0000 -0.0001
vn 0.1124 0.2369 0.9650
vn -0.1151 -0.2442 0.9629
vn 0.4339 0.9010 0.0036
vn 0.2033 0.1643 0.9652
vn -0.2089 -0.1697 0.9631
vn 0.7818 0.6235 0.0064
vn 0.2402 0.0585 0.9690
vn -0.2619 -0.0597 0.9632
vn 0.9735 0.2272 0.0269
vn -0.2614 0.0623 0.9632
vn 0.2662 -0.0588 0.9621
vn 0.9756 -0.2178 0.0261
vn -0.2089 0.1697 0.9631
vn 0.2033 -0.1643 0.9652
vn 0.7818 -0.6235 0.0065
vn -0.1151 0.2442 0.9629
vn 0.1124 -0.2369 0.9650
vn 0.4339 -0.9010 0.0033
vn 0.0022 0.2710 0.9626
vn -0.0012 0.0007 -1.0000
vn 0.0012 0.0007 -1.0000
vn 0.0004 0.0008 -1.0000
vn 0.0034 -0.0021 -1.0000
vn -0.0029 -0.0023 -1.0000
vn -0.0014 -0.0028 -1.0000
vn 0.0101 -0.0008 -0.9999
vn -0.0102 -0.0008 -0.9999
vn 0.0006 0.0007 1.0000
vn -0.0000 0.0008 1.0000
vn -0.0006 0.0007 1.0000
vn -0.0002 0.0008 1.0000
vn -0.0020 -0.0025 1.0000
vn -0.0000 -0.0036 1.0000
vn 0.0020 -0.0025 1.0000
vn 0.0007 -0.0031 1.0000
vn -0.0014 0.0007 1.0000
vn -0.0040 -0.0019 1.0000
vn 0.0040 -0.0019 1.0000
vn 0.0014 0.0007 1.0000
vt 0.992501 0.009319
vt 0.992501 0.320310
vt 0.443327 0.009442
vt 0.443327 0.320432
vt 0.755417 0.329770
vt 0.685038 0.329552
vt 0.755417 0.640689
vt 0.685038 0.640683
vt 0.989643 0.329770
vt 0.989643 0.640689
vt 0.447404 0.329778
vt 0.447405 0.640698
vt 0.758637 0.009319
vt 0.685322 0.007301
vt 0.681115 0.007301
vt 0.756104 0.009319
vt 0.683029 0.007301
vt 0.685322 0.321268
vt 0.758637 0.320310
vt 0.683029 0.321268
vt 0.756104 0.320310
vt 0.681115 0.321268
vt 0.750797 0.007301
vt 0.677190 0.009442
vt 0.753092 0.007301
vt 0.679724 0.009442
vt 0.755006 0.007301
vt 0.677190 0.320432
vt 0.750797 0.321268
vt 0.755005 0.321268
vt 0.679724 0.320432
vt 0.753092 0.321268
vt 0.718061 0.098795
vt 0.727089 0.096734
vt 0.734329 0.090961
vt 0.738347 0.082618
vt 0.738347 0.073358
vt 0.734329 0.065015
vt 0.727089 0.059241
vt 0.718061 0.057181
vt 0.709034 0.059241
vt 0.701794 0.065015
vt 0.697776 0.073358
vt 0.697776 0.082618
vt 0.701794 0.090961
vt 0.709034 0.096734
vt 0.681630 0.329778
vt 0.751687 0.329552
vt 0.681630 0.640698
vt 0.751687 0.640683
vt 0.718290 0.420219
vt 0.709344 0.418177
vt 0.702170 0.412456
vt 0.698188 0.404188
vt 0.698188 0.395012
vt 0.702170 0.386745
vt 0.709344 0.381023
vt 0.718290 0.378982
vt 0.727237 0.381023
vt 0.734411 0.386745
vt 0.738393 0.395012
vt 0.738393 0.404189
vt 0.734411 0.412456
vt 0.727237 0.418177
vt 0.718041 0.096671
vt 0.718328 0.416284
vt 0.718024 0.094824
vt 0.718311 0.418115
vt 0.710277 0.416282
vt 0.711089 0.414632
vt 0.710719 0.093156
vt 0.709934 0.094821
vt 0.703836 0.411144
vt 0.705284 0.410003
vt 0.704861 0.088485
vt 0.703434 0.089637
vt 0.700261 0.403720
vt 0.702062 0.403313
vt 0.701611 0.081734
vt 0.699826 0.082145
vt 0.700261 0.395480
vt 0.702062 0.395888
vt 0.701611 0.074242
vt 0.699826 0.073831
vt 0.703836 0.388056
vt 0.705284 0.389198
vt 0.704861 0.067491
vt 0.703434 0.066339
vt 0.710277 0.382919
vt 0.711089 0.384569
vt 0.710719 0.062819
vt 0.709934 0.061155
vt 0.718311 0.381086
vt 0.718328 0.382917
vt 0.718024 0.061152
vt 0.718041 0.059304
vt 0.726344 0.382919
vt 0.725567 0.384569
vt 0.725329 0.062819
vt 0.726147 0.061155
vt 0.732786 0.388056
vt 0.731372 0.389198
vt 0.731187 0.067491
vt 0.732648 0.066339
vt 0.736361 0.395480
vt 0.734594 0.395888
vt 0.734438 0.074242
vt 0.736256 0.073831
vt 0.736361 0.403720
vt 0.734594 0.403313
vt 0.734438 0.081734
vt 0.736256 0.082145
vt 0.732786 0.411144
vt 0.731372 0.410003
vt 0.731187 0.088485
vt 0.732648 0.089637
vt 0.726344 0.416282
vt 0.725567 0.414632
vt 0.725329 0.093156
vt 0.726147 0.094821
vt 0.442412 0.008356
vt 0.446308 0.328693
vt 0.446308 0.641783
vt 0.442413 0.321518
vt 0.677753 0.008356
vt 0.681594 0.328693
vt 0.681594 0.641783
vt 0.677753 0.321518
vt 0.684467 0.322365
vt 0.685073 0.641769
vt 0.751652 0.322365
vt 0.751652 0.641769
vt 0.990739 0.328684
vt 0.993415 0.008233
vt 0.993415 0.321395
vt 0.990739 0.641775
vt 0.758075 0.321395
vt 0.755453 0.641775
vt 0.755453 0.328684
vt 0.758075 0.008233
vt 0.756373 0.322072
vt 0.753751 0.642451
vt 0.683568 0.642446
vt 0.682948 0.323047
vt 0.753171 0.323047
vt 0.683295 0.642459
vt 0.753157 0.642446
vt 0.679454 0.322194
vt 0.684467 0.006205
vt 0.685073 0.328466
vt 0.751653 0.006205
vt 0.751653 0.328466
vt 0.679454 0.007680
vt 0.753158 0.327790
vt 0.683296 0.328017
vt 0.753173 0.005523
vt 0.682948 0.005523
vt 0.683568 0.327790
vt 0.753751 0.328008
vt 0.756373 0.007557
s 1
usemtl M_OfficeAppliances_1024
f 12/14/1 112/151/2 111/149/3
f 101/125/4 3/3/5 99/121/6
f 108/139/7 7/9/8 105/133/9
f 9/11/10 42/49/10 41/47/10
f 6/7/8 7/9/8 5/5/8
f 104/131/11 15/18/12 103/129/13
f 107/137/14 2/2/15 106/135/16
f 105/133/9 8/10/8 106/136/16
f 100/123/17 9/11/10 99/122/6
f 102/127/18 10/12/10 100/123/17
f 23/28/19 3/3/5 20/24/5
f 13/16/20 108/140/7 11/13/15
f 13/15/20 14/17/21 114/157/22
f 14/17/21 111/149/3 114/157/22
f 17/20/23 103/129/13 15/18/12
f 17/20/23 18/22/24 109/144/25
f 18/21/24 107/137/14 109/141/25
f 21/25/26 112/151/2 19/23/27
f 21/25/26 22/27/28 113/156/29
f 22/26/28 101/125/4 113/153/29
f 25/31/30 102/128/18 23/28/19
f 25/30/30 26/32/31 110/145/32
f 26/32/31 104/131/11 110/145/32
f 12/14/1 17/20/23 15/18/12
f 14/17/21 18/22/24 17/20/23
f 13/16/20 16/19/15 18/21/24
f 20/24/5 25/31/30 23/28/19
f 22/27/28 26/32/31 25/30/30
f 21/25/26 24/29/33 26/32/31
f 16/19/15 1/1/15 2/2/15
f 27/33/34 40/46/35 15/18/12
f 34/40/36 33/39/37 19/23/27
f 30/36/38 24/29/33 19/23/27
f 12/14/1 15/18/12 38/44/39
s 0
f 43/51/40 56/64/40 42/50/40
f 50/58/41 49/57/41 5/6/41
f 46/54/42 6/8/42 5/6/42
f 41/48/43 42/50/43 54/62/43
s 1
f 57/65/44 40/46/45 27/33/46
f 62/72/47 39/45/48 40/46/45
f 65/76/49 38/44/50 39/45/48
f 71/84/51 38/44/50 68/80/52
f 74/88/53 37/43/54 71/84/51
f 77/92/55 36/42/56 74/88/53
f 80/96/57 35/41/58 77/92/55
f 83/100/59 34/40/60 80/96/57
f 86/104/61 33/39/62 83/100/59
f 89/108/63 32/38/64 86/104/61
f 89/108/63 30/36/65 31/37/66
f 92/112/67 29/35/68 30/36/65
f 95/116/69 28/34/70 29/35/68
f 98/120/71 27/33/46 28/34/70
f 56/64/72 59/68/73 96/117/74
f 96/117/74 58/66/75 97/118/76
f 97/119/76 57/65/44 98/120/71
f 55/63/77 96/117/74 93/113/78
f 93/113/78 97/118/76 94/114/79
f 94/115/79 98/120/71 95/116/69
f 54/62/80 93/113/78 90/109/81
f 90/109/81 94/114/79 91/110/82
f 91/111/82 95/116/69 92/112/67
f 54/62/80 87/105/83 53/61/84
f 87/105/83 91/110/82 88/106/85
f 91/111/82 89/108/63 88/107/85
f 53/61/84 84/101/86 52/60/87
f 87/105/83 85/102/88 84/101/86
f 88/107/85 86/104/61 85/103/88
f 52/60/87 81/97/89 51/59/90
f 84/101/86 82/98/91 81/97/89
f 85/103/88 83/100/59 82/99/91
f 51/59/90 78/93/92 50/58/93
f 81/97/89 79/94/94 78/93/92
f 82/99/91 80/96/57 79/95/94
f 50/58/93 75/89/95 49/57/96
f 78/93/92 76/90/97 75/89/95
f 79/95/94 77/92/55 76/91/97
f 49/57/96 72/85/98 48/56/99
f 75/89/95 73/86/100 72/85/98
f 76/91/97 74/88/53 73/87/100
f 48/56/99 69/81/101 47/55/102
f 72/85/98 70/82/103 69/81/101
f 73/87/100 71/84/51 70/83/103
f 46/54/104 69/81/101 66/77/105
f 69/81/101 67/78/106 66/77/105
f 67/79/106 71/84/51 68/80/52
f 45/53/107 66/77/105 63/73/108
f 63/73/108 67/78/106 64/74/109
f 64/75/109 68/80/52 65/76/49
f 44/52/110 63/73/108 60/69/111
f 60/69/111 64/74/109 61/70/112
f 61/71/112 65/76/49 62/72/47
f 43/51/113 60/69/111 59/68/73
f 59/68/73 61/70/112 58/66/75
f 58/67/75 62/72/47 57/65/44
f 4/4/5 102/128/18 100/124/17
f 4/4/5 99/121/6 3/3/5
f 101/126/4 9/11/10 41/47/10
f 104/132/11 6/8/8 42/50/10
f 1/1/15 106/135/16 2/2/15
f 107/138/14 8/10/8 6/7/8
f 1/1/15 108/140/7 105/134/9
f 111/150/3 41/48/10 5/6/8
f 109/142/25 107/138/14 6/7/8
f 103/130/13 109/143/25 6/8/8
f 102/127/18 110/146/32 42/49/10
f 110/147/32 104/132/11 42/50/10
f 112/152/2 113/154/29 41/48/10
f 113/155/29 101/126/4 41/47/10
f 114/158/22 111/150/3 5/6/8
f 108/139/7 114/159/22 5/5/8
f 12/14/1 19/23/27 112/151/2
f 101/125/4 20/24/5 3/3/5
f 108/139/7 5/5/8 7/9/8
f 9/11/10 10/12/10 42/49/10
f 6/7/8 8/10/8 7/9/8
f 104/131/11 24/29/33 15/18/12
f 107/137/14 16/19/15 2/2/15
f 105/133/9 7/9/8 8/10/8
f 100/123/17 10/12/10 9/11/10
f 102/127/18 42/49/10 10/12/10
f 23/28/19 4/4/5 3/3/5
f 13/16/20 114/160/22 108/140/7
f 14/17/21 12/14/1 111/149/3
f 17/20/23 109/144/25 103/129/13
f 18/21/24 16/19/15 107/137/14
f 21/25/26 113/156/29 112/151/2
f 22/26/28 20/24/5 101/125/4
f 25/31/30 110/148/32 102/128/18
f 26/32/31 24/29/33 104/131/11
f 12/14/1 14/17/21 17/20/23
f 14/17/21 13/15/20 18/22/24
f 13/16/20 11/13/15 16/19/15
f 20/24/5 22/26/28 25/31/30
f 22/27/28 21/25/26 26/32/31
f 21/25/26 19/23/27 24/29/33
f 16/19/15 11/13/15 1/1/15
f 40/46/35 39/45/114 15/18/12
f 15/18/12 24/29/33 27/33/34
f 24/29/33 29/35/115 28/34/116
f 24/29/33 28/34/116 27/33/34
f 33/39/37 32/38/117 19/23/27
f 19/23/27 12/14/1 34/40/36
f 12/14/1 36/42/118 35/41/119
f 12/14/1 35/41/119 34/40/36
f 30/36/38 29/35/115 24/29/33
f 19/23/27 32/38/117 31/37/120
f 31/37/120 30/36/38 19/23/27
f 37/43/121 36/42/118 12/14/1
f 15/18/12 39/45/114 38/44/39
f 38/44/39 37/43/121 12/14/1
s 0
f 56/64/122 55/63/122 42/50/122
f 42/50/123 6/8/123 43/51/123
f 6/8/124 45/53/124 44/52/124
f 6/8/125 44/52/125 43/51/125
f 49/57/126 48/56/126 5/6/126
f 5/6/127 41/48/127 50/58/127
f 41/48/128 52/60/128 51/59/128
f 41/48/129 51/59/129 50/58/129
f 46/54/130 45/53/130 6/8/130
f 5/6/131 48/56/131 47/55/131
f 47/55/42 46/54/42 5/6/42
f 53/61/132 52/60/132 41/48/132
f 42/50/133 55/63/133 54/62/133
f 54/62/43 53/61/43 41/48/43
s 1
f 57/65/44 62/72/47 40/46/45
f 62/72/47 65/76/49 39/45/48
f 65/76/49 68/80/52 38/44/50
f 71/84/51 37/43/54 38/44/50
f 74/88/53 36/42/56 37/43/54
f 77/92/55 35/41/58 36/42/56
f 80/96/57 34/40/60 35/41/58
f 83/100/59 33/39/62 34/40/60
f 86/104/61 32/38/64 33/39/62
f 89/108/63 31/37/66 32/38/64
f 89/108/63 92/112/67 30/36/65
f 92/112/67 95/116/69 29/35/68
f 95/116/69 98/120/71 28/34/70
f 98/120/71 57/65/44 27/33/46
f 56/64/72 43/51/113 59/68/73
f 96/117/74 59/68/73 58/66/75
f 97/119/76 58/67/75 57/65/44
f 55/63/77 56/64/72 96/117/74
f 93/113/78 96/117/74 97/118/76
f 94/115/79 97/119/76 98/120/71
f 54/62/80 55/63/77 93/113/78
f 90/109/81 93/113/78 94/114/79
f 91/111/82 94/115/79 95/116/69
f 54/62/80 90/109/81 87/105/83
f 87/105/83 90/109/81 91/110/82
f 91/111/82 92/112/67 89/108/63
f 53/61/84 87/105/83 84/101/86
f 87/105/83 88/106/85 85/102/88
f 88/107/85 89/108/63 86/104/61
f 52/60/87 84/101/86 81/97/89
f 84/101/86 85/102/88 82/98/91
f 85/103/88 86/104/61 83/100/59
f 51/59/90 81/97/89 78/93/92
f 81/97/89 82/98/91 79/94/94
f 82/99/91 83/100/59 80/96/57
f 50/58/93 78/93/92 75/89/95
f 78/93/92 79/94/94 76/90/97
f 79/95/94 80/96/57 77/92/55
f 49/57/96 75/89/95 72/85/98
f 75/89/95 76/90/97 73/86/100
f 76/91/97 77/92/55 74/88/53
f 48/56/99 72/85/98 69/81/101
f 72/85/98 73/86/100 70/82/103
f 73/87/100 74/88/53 71/84/51
f 46/54/104 47/55/102 69/81/101
f 69/81/101 70/82/103 67/78/106
f 67/79/106 70/83/103 71/84/51
f 45/53/107 46/54/104 66/77/105
f 63/73/108 66/77/105 67/78/106
f 64/75/109 67/79/106 68/80/52
f 44/52/110 45/53/107 63/73/108
f 60/69/111 63/73/108 64/74/109
f 61/71/112 64/75/109 65/76/49
f 43/51/113 44/52/110 60/69/111
f 59/68/73 60/69/111 61/70/112
f 58/67/75 61/71/112 62/72/47
f 4/4/5 23/28/19 102/128/18
f 4/4/5 100/124/17 99/121/6
f 101/126/4 99/122/6 9/11/10
f 104/132/11 103/130/13 6/8/8
f 1/1/15 105/134/9 106/135/16
f 107/138/14 106/136/16 8/10/8
f 1/1/15 11/13/15 108/140/7
f 111/150/3 112/152/2 41/48/10
