# Blender 3.1.0
# www.blender.org
mtllib green paperclip.mtl
o Paperclip2_Green
v 0.090188 0.986701 5.336671
v 0.090195 0.986106 5.336076
v 0.090202 0.985511 5.336671
v 0.090195 0.986106 5.337266
v 0.080134 0.986585 5.336671
v 0.080050 0.985990 5.336083
v 0.080145 0.985395 5.336671
v 0.080230 0.985991 5.337259
v 0.078571 0.986562 5.337166
v 0.078200 0.985960 5.336710
v 0.078608 0.985373 5.337153
v 0.078979 0.985976 5.337609
v 0.078044 0.986511 5.338267
v 0.077478 0.985889 5.338238
v 0.078101 0.985324 5.338212
v 0.078667 0.985946 5.338241
v 0.078571 0.986461 5.339368
v 0.078200 0.985819 5.339766
v 0.078608 0.985276 5.339270
v 0.078979 0.985917 5.338872
v 0.080136 0.986438 5.339864
v 0.080050 0.985790 5.340393
v 0.080143 0.985253 5.339752
v 0.080230 0.985901 5.339222
v 0.095891 0.986364 5.339863
v 0.095979 0.985715 5.340391
v 0.095859 0.985180 5.339753
v 0.095771 0.985829 5.339225
v 0.097648 0.986331 5.339204
v 0.097998 0.985675 5.339597
v 0.097528 0.985149 5.339139
v 0.097178 0.985806 5.338745
v 0.098245 0.986258 5.337738
v 0.098747 0.985584 5.337771
v 0.098072 0.985083 5.337796
v 0.097570 0.985757 5.337763
v 0.097648 0.986186 5.336272
v 0.097998 0.985493 5.335946
v 0.097528 0.985016 5.336454
v 0.097178 0.985708 5.336781
v 0.095890 0.986153 5.335612
v 0.095980 0.985454 5.335153
v 0.095860 0.984985 5.335841
v 0.095770 0.985684 5.336301
v 0.076355 0.986078 5.335613
v 0.076273 0.985378 5.335153
v 0.076406 0.984911 5.335840
v 0.076488 0.985611 5.336300
v 0.074283 0.986055 5.336431
v 0.073967 0.985351 5.336095
v 0.074471 0.984890 5.336586
v 0.074787 0.985594 5.336922
v 0.073576 0.986004 5.338233
v 0.073130 0.985291 5.338213
v 0.073843 0.984844 5.338200
v 0.074289 0.985557 5.338220
v 0.074283 0.985952 5.340035
v 0.073967 0.985231 5.340331
v 0.074471 0.984798 5.339814
v 0.074787 0.985520 5.339519
v 0.076357 0.985929 5.340854
v 0.076273 0.985204 5.341272
v 0.076405 0.984777 5.340559
v 0.076489 0.985503 5.340141
v 0.090842 0.985859 5.340857
v 0.090838 0.985134 5.341282
v 0.090837 0.984708 5.340556
v 0.090840 0.985434 5.340131
vn -0.0118 0.9999 -0.0042
vn 0.0306 -0.0005 0.9995
vn -0.0007 -0.0001 1.0000
vn -0.0000 -0.0001 -1.0000
vn -0.0188 0.9966 -0.0808
vn 0.0052 -0.9967 -0.0805
vn 0.0112 -0.9999 -0.0043
vn 0.5168 0.0212 0.8558
vn -0.0452 0.0002 -0.9990
vn -0.1849 0.9640 -0.1909
vn -0.1276 -0.9700 -0.2068
vn 0.9972 0.0743 0.0035
vn -0.6080 0.0028 -0.7939
vn -0.3445 0.9378 0.0432
vn -0.2633 -0.9637 -0.0444
vn -0.1846 0.9425 0.2786
vn -0.6080 -0.0702 0.7908
vn -0.9994 -0.0358 -0.0017
vn -0.1280 -0.9849 0.1168
vn -0.0016 0.9845 0.1754
vn 0.5168 0.1009 -0.8501
vn -0.0306 -0.0874 0.9957
vn -0.0072 -0.9998 -0.0168
vn -0.0269 0.1041 -0.9942
vn 0.0212 0.0983 -0.9949
vn 0.0155 0.9821 0.1876
vn -0.0039 -1.0000 -0.0064
vn -0.6422 0.1633 -0.7490
vn 0.0377 -0.0803 0.9961
vn 0.2665 0.9361 0.2297
vn 0.0902 -0.9873 0.1304
vn 0.4013 0.9148 -0.0454
vn 0.9959 -0.0906 0.0045
vn 0.6822 -0.0770 0.7271
vn 0.0941 -0.9943 0.0494
vn -0.6421 0.2374 0.7290
vn -0.9861 0.1661 -0.0082
vn 0.2664 0.9087 -0.3213
vn 0.0903 -0.9954 -0.0318
vn 0.0060 0.9570 -0.2902
vn 0.0320 -0.1722 -0.9845
vn 0.6822 -0.1486 -0.7159
vn 0.0037 -0.9934 0.1150
vn 0.0276 0.2141 0.9764
vn -0.0233 0.2004 0.9794
vn -0.0365 -0.1749 -0.9839
vn 0.0063 -0.9946 0.1039
vn -0.0173 0.9583 -0.2852
vn 0.6438 0.2794 0.7124
vn -0.3105 0.9052 -0.2900
vn -0.0287 -0.9986 -0.0445
vn -0.4656 0.8846 0.0252
vn -0.9894 -0.1452 -0.0041
vn -0.6860 -0.1550 -0.7109
vn 0.0086 -0.9996 -0.0285
vn 0.6437 0.3197 -0.6953
vn 0.9670 0.2547 0.0073
vn -0.3105 0.8873 0.3409
vn -0.0287 -0.9995 -0.0123
vn -0.0147 0.9388 0.3443
vn -0.0499 -0.2247 0.9732
vn -0.6860 -0.1951 0.7010
vn -0.0007 -0.9859 -0.1672
vn 0.0043 0.9664 0.2568
vn 0.0382 0.2690 -0.9624
vn -0.0013 -0.2501 0.9682
vn -0.0050 -0.9683 -0.2498
vn 1.0000 -0.0050 -0.0000
vn 1.0000 -0.0050 0.0001
vn 0.9999 0.0116 -0.0000
vn 0.9999 0.0116 -0.0004
vn 0.0005 0.2522 -0.9677
vn 1.0000 -0.0051 0.0003
vn 0.9999 0.0116 0.0001
vt 0.255469 0.821088
vt 0.255469 0.822400
vt 0.256700 0.821128
vt 0.255469 0.823713
vt 0.256700 0.819735
vt 0.255469 0.825025
vt 0.255469 0.819775
vt 0.244486 0.821088
vt 0.244486 0.822400
vt 0.244486 0.823713
vt 0.244486 0.819775
vt 0.244486 0.825025
vt 0.242711 0.821088
vt 0.242711 0.822400
vt 0.242711 0.823713
vt 0.242711 0.819775
vt 0.242711 0.825025
vt 0.241402 0.821088
vt 0.241402 0.822400
vt 0.241402 0.823713
vt 0.241402 0.819775
vt 0.241402 0.825025
vt 0.240094 0.821088
vt 0.240094 0.822400
vt 0.240094 0.823713
vt 0.240094 0.819775
vt 0.240094 0.825025
vt 0.238318 0.821088
vt 0.238318 0.822400
vt 0.238318 0.823713
vt 0.238318 0.819775
vt 0.238318 0.825025
vt 0.221132 0.821088
vt 0.221132 0.822400
vt 0.221132 0.823713
vt 0.221132 0.819775
vt 0.221132 0.825025
vt 0.219136 0.821088
vt 0.219136 0.822400
vt 0.219136 0.823713
vt 0.219136 0.819775
vt 0.219136 0.825025
vt 0.217479 0.821088
vt 0.217479 0.822400
vt 0.217479 0.823713
vt 0.217479 0.819775
vt 0.217479 0.825025
vt 0.215822 0.821088
vt 0.215822 0.822400
vt 0.215822 0.823713
vt 0.215822 0.819775
vt 0.215822 0.825025
vt 0.213826 0.821088
vt 0.213826 0.822400
vt 0.213826 0.823713
vt 0.213826 0.819775
vt 0.213826 0.825025
vt 0.192535 0.821088
vt 0.192535 0.822400
vt 0.192535 0.823713
vt 0.192535 0.819775
vt 0.192535 0.825025
vt 0.190186 0.821088
vt 0.190186 0.822400
vt 0.190186 0.823713
vt 0.190186 0.819775
vt 0.190186 0.825025
vt 0.188182 0.821088
vt 0.188182 0.822400
vt 0.188182 0.823713
vt 0.188182 0.819775
vt 0.188182 0.825025
vt 0.186178 0.821088
vt 0.186178 0.822400
vt 0.186178 0.823713
vt 0.186178 0.819775
vt 0.186178 0.825025
vt 0.183829 0.821088
vt 0.183829 0.822400
vt 0.183829 0.823713
vt 0.183829 0.819775
vt 0.183829 0.825025
vt 0.168038 0.821088
vt 0.166806 0.825066
vt 0.168038 0.822400
vt 0.166807 0.823672
vt 0.168038 0.823713
vt 0.168038 0.819775
vt 0.168038 0.825025
s 1
usemtl M_OfficeAppliances_1024
f 1/1/1 8/11/2 4/7/3
f 2/2/4 5/8/5 1/1/1
f 7/10/6 2/2/4 3/4/7
f 8/12/2 3/4/7 4/6/3
f 5/8/5 12/16/8 8/11/2
f 6/9/9 9/13/10 5/8/5
f 11/15/11 6/9/9 7/10/6
f 12/17/8 7/10/6 8/12/2
f 9/13/10 16/21/12 12/16/8
f 10/14/13 13/18/14 9/13/10
f 15/20/15 10/14/13 11/15/11
f 16/22/12 11/15/11 12/17/8
f 17/23/16 16/21/12 13/18/14
f 18/24/17 13/18/14 14/19/18
f 15/20/15 18/24/17 14/19/18
f 16/22/12 19/25/19 15/20/15
f 21/28/20 20/26/21 17/23/16
f 22/29/22 17/23/16 18/24/17
f 19/25/19 22/29/22 18/24/17
f 20/27/21 23/30/23 19/25/19
f 21/28/20 28/36/24 24/31/25
f 22/29/22 25/33/26 21/28/20
f 27/35/27 22/29/22 23/30/23
f 28/37/24 23/30/23 24/32/25
f 25/33/26 32/41/28 28/36/24
f 26/34/29 29/38/30 25/33/26
f 31/40/31 26/34/29 27/35/27
f 32/42/28 27/35/27 28/37/24
f 33/43/32 32/41/28 29/38/30
f 34/44/33 29/38/30 30/39/34
f 31/40/31 34/44/33 30/39/34
f 32/42/28 35/45/35 31/40/31
f 33/43/32 40/51/36 36/46/37
f 34/44/33 37/48/38 33/43/32
f 39/50/39 34/44/33 35/45/35
f 40/52/36 35/45/35 36/47/37
f 41/53/40 40/51/36 37/48/38
f 42/54/41 37/48/38 38/49/42
f 39/50/39 42/54/41 38/49/42
f 40/52/36 43/55/43 39/50/39
f 41/53/40 48/61/44 44/56/45
f 46/59/46 41/53/40 42/54/41
f 47/60/47 42/54/41 43/55/43
f 44/57/45 47/60/47 43/55/43
f 45/58/48 52/66/49 48/61/44
f 46/59/46 49/63/50 45/58/48
f 51/65/51 46/59/46 47/60/47
f 52/67/49 47/60/47 48/62/44
f 53/68/52 52/66/49 49/63/50
f 54/69/53 49/63/50 50/64/54
f 51/65/51 54/69/53 50/64/54
f 52/67/49 55/70/55 51/65/51
f 53/68/52 60/76/56 56/71/57
f 54/69/53 57/73/58 53/68/52
f 59/75/59 54/69/53 55/70/55
f 60/77/56 55/70/55 56/72/57
f 61/78/60 60/76/56 57/73/58
f 62/79/61 57/73/58 58/74/62
f 59/75/59 62/79/61 58/74/62
f 60/77/56 63/80/63 59/75/59
f 65/83/64 64/81/65 61/78/60
f 66/85/66 61/78/60 62/79/61
f 63/80/63 66/85/66 62/79/61
f 64/82/65 67/87/67 63/80/63
f 65/84/68 67/87/68 68/89/69
f 3/5/70 1/1/70 4/7/71
f 1/1/1 5/8/5 8/11/2
f 2/2/4 6/9/9 5/8/5
f 7/10/6 6/9/9 2/2/4
f 8/12/2 7/10/6 3/4/7
f 5/8/5 9/13/10 12/16/8
f 6/9/9 10/14/13 9/13/10
f 11/15/11 10/14/13 6/9/9
f 12/17/8 11/15/11 7/10/6
f 9/13/10 13/18/14 16/21/12
f 10/14/13 14/19/18 13/18/14
f 15/20/15 14/19/18 10/14/13
f 16/22/12 15/20/15 11/15/11
f 17/23/16 20/26/21 16/21/12
f 18/24/17 17/23/16 13/18/14
f 15/20/15 19/25/19 18/24/17
f 16/22/12 20/27/21 19/25/19
f 21/28/20 24/31/25 20/26/21
f 22/29/22 21/28/20 17/23/16
f 19/25/19 23/30/23 22/29/22
f 20/27/21 24/32/25 23/30/23
f 21/28/20 25/33/26 28/36/24
f 22/29/22 26/34/29 25/33/26
f 27/35/27 26/34/29 22/29/22
f 28/37/24 27/35/27 23/30/23
f 25/33/26 29/38/30 32/41/28
f 26/34/29 30/39/34 29/38/30
f 31/40/31 30/39/34 26/34/29
f 32/42/28 31/40/31 27/35/27
f 33/43/32 36/46/37 32/41/28
f 34/44/33 33/43/32 29/38/30
f 31/40/31 35/45/35 34/44/33
f 32/42/28 36/47/37 35/45/35
f 33/43/32 37/48/38 40/51/36
f 34/44/33 38/49/42 37/48/38
f 39/50/39 38/49/42 34/44/33
f 40/52/36 39/50/39 35/45/35
f 41/53/40 44/56/45 40/51/36
f 42/54/41 41/53/40 37/48/38
f 39/50/39 43/55/43 42/54/41
f 40/52/36 44/57/45 43/55/43
f 41/53/40 45/58/48 48/61/44
f 46/59/46 45/58/48 41/53/40
f 47/60/47 46/59/46 42/54/41
f 44/57/45 48/62/44 47/60/47
f 45/58/48 49/63/50 52/66/49
f 46/59/46 50/64/54 49/63/50
f 51/65/51 50/64/54 46/59/46
f 52/67/49 51/65/51 47/60/47
f 53/68/52 56/71/57 52/66/49
f 54/69/53 53/68/52 49/63/50
f 51/65/51 55/70/55 54/69/53
f 52/67/49 56/72/57 55/70/55
f 53/68/52 57/73/58 60/76/56
f 54/69/53 58/74/62 57/73/58
f 59/75/59 58/74/62 54/69/53
f 60/77/56 59/75/59 55/70/55
f 61/78/60 64/81/65 60/76/56
f 62/79/61 61/78/60 57/73/58
f 59/75/59 63/80/63 62/79/61
f 60/77/56 64/82/65 63/80/63
f 65/83/64 68/88/72 64/81/65
f 66/85/66 65/83/64 61/78/60
f 63/80/63 67/87/67 66/85/66
f 64/82/65 68/89/72 67/87/67
f 65/84/68 66/86/73 67/87/68
f 3/5/70 2/3/74 1/1/70
