# Blender 3.1.0
# www.blender.org
mtllib notebook.mtl
o Notebook
v 0.067858 1.087241 2.185277
v 0.067858 1.087241 1.978260
v 0.058904 1.087241 1.977119
v 0.206447 1.087241 1.977119
v 0.197493 1.087241 1.978260
v 0.197493 1.087241 2.185277
v 0.058522 1.085836 1.976250
v 0.064216 1.085836 1.970343
v 0.059285 1.085836 1.973297
v 0.061369 1.085836 1.971134
v 0.201136 1.085836 1.970343
v 0.206829 1.085836 1.976250
v 0.203982 1.085836 1.971134
v 0.206067 1.085836 1.973297
v 0.064216 1.085836 2.193194
v 0.058522 1.085836 2.187286
v 0.061369 1.085836 2.192402
v 0.059285 1.085836 2.190240
v 0.206829 1.085836 2.187286
v 0.201136 1.085836 2.193194
v 0.206067 1.085836 2.190240
v 0.203982 1.085836 2.192402
v 0.058904 1.087241 2.078439
v 0.067858 1.087241 2.085098
v 0.067858 1.086374 2.081768
v 0.197493 1.087241 2.085098
v 0.197493 1.087241 2.078439
v 0.197493 1.086374 2.081768
v 0.058522 1.085836 2.085125
v 0.058522 1.085836 2.078411
v 0.058522 1.084969 2.081768
v 0.206829 1.085836 2.078411
v 0.206829 1.085836 2.085125
v 0.206829 1.084969 2.081768
v 0.206829 1.087133 2.098268
v 0.206829 1.087737 2.115003
v 0.197493 1.089142 2.114729
v 0.197493 1.088537 2.098132
v 0.058522 1.087737 2.115003
v 0.058522 1.087133 2.098268
v 0.058904 1.088537 2.098132
v 0.067858 1.089142 2.114729
v 0.197493 1.089142 2.048808
v 0.197493 1.088537 2.065405
v 0.067858 1.089142 2.048808
v 0.067858 1.088537 2.065405
v 0.058522 1.087133 2.065269
v 0.058522 1.087737 2.048534
v 0.206829 1.087133 2.065269
v 0.206829 1.087737 2.048534
v 0.205150 1.091645 1.976816
v 0.205149 1.088613 2.186816
v 0.060149 1.088613 2.186816
v 0.060150 1.091646 1.976816
v 0.061164 1.086070 2.081816
v 0.204135 1.086070 2.081816
v 0.204135 1.086409 1.975201
v 0.204135 1.086409 2.188431
v 0.061164 1.086409 2.188431
v 0.061164 1.086409 1.975201
v 0.204135 1.088553 2.048636
v 0.061164 1.088553 2.048636
v 0.204135 1.088553 2.114995
v 0.061164 1.088553 2.114995
v 0.205150 1.096374 2.039372
v 0.205150 1.096374 2.019259
v 0.060149 1.096374 2.019259
v 0.060149 1.096374 2.039372
v 0.205149 1.092617 2.156059
v 0.205150 1.094494 2.129747
v 0.060149 1.094494 2.129747
v 0.060149 1.092617 2.156059
v 0.060149 1.090267 2.083601
v 0.205150 1.090267 2.083601
v 0.060149 1.089035 2.081816
v 0.205150 1.089035 2.081816
v 0.060149 1.091667 2.079013
v 0.060149 1.092871 2.076348
v 0.205150 1.092871 2.076348
v 0.205150 1.091667 2.079013
v 0.205743 1.090318 1.975728
v 0.059827 1.090318 1.975728
v 0.204229 1.095131 2.035447
v 0.061283 1.095131 2.040307
v 0.206123 1.087772 2.188369
v 0.058872 1.088058 2.186633
v 0.204227 1.091782 2.118120
v 0.061445 1.091782 2.120144
v 0.059663 1.087241 2.189347
v 0.058904 1.087241 2.186418
v 0.061737 1.087241 2.191491
v 0.064569 1.087241 2.192276
v 0.059663 1.087241 1.974190
v 0.061737 1.087241 1.972045
v 0.064569 1.087241 1.971260
v 0.206447 1.087241 2.186418
v 0.205688 1.087241 2.189347
v 0.203615 1.087241 2.191491
v 0.200782 1.087241 2.192276
v 0.200782 1.087241 1.971260
v 0.203615 1.087241 1.972045
v 0.205688 1.087241 1.974190
v 0.206447 1.086374 2.081768
v 0.206447 1.087241 2.078439
v 0.067858 1.087241 2.078439
v 0.058904 1.086374 2.081768
v 0.206447 1.087241 2.085098
v 0.058904 1.087241 2.085098
v 0.206447 1.089142 2.114729
v 0.206447 1.088537 2.098132
v 0.067858 1.088537 2.098132
v 0.058904 1.089142 2.114729
v 0.206447 1.089142 2.048808
v 0.206447 1.088537 2.065405
v 0.058904 1.089142 2.048808
v 0.058904 1.088537 2.065405
vn 0.0041 0.5476 -0.8368
vn 0.0056 0.5478 -0.8366
vn -0.0056 0.5478 -0.8366
vn -0.0041 0.5476 -0.8368
vn -0.0041 0.5476 0.8368
vn -0.0056 0.5478 0.8366
vn 0.0056 0.5478 0.8366
vn 0.0041 0.5476 0.8368
vn -0.0000 -0.9997 -0.0263
vn -0.9632 0.2684 -0.0121
vn -0.9608 0.2762 -0.0255
vn -0.9643 0.2648 -0.0044
vn -0.9644 0.2646 -0.0033
vn -0.9632 0.2684 0.0121
vn -0.9608 0.2762 0.0255
vn -0.7304 0.4961 0.4696
vn -0.7965 0.4625 0.3895
vn -0.4103 0.5692 0.7125
vn -0.4321 0.5674 0.7010
vn -0.7965 0.4625 -0.3895
vn -0.7303 0.4961 -0.4696
vn -0.4321 0.5674 -0.7010
vn -0.4104 0.5692 -0.7124
vn 0.9608 0.2762 0.0255
vn 0.9632 0.2684 0.0121
vn 0.7965 0.4625 0.3895
vn 0.7303 0.4961 0.4696
vn 0.4321 0.5674 0.7010
vn 0.4103 0.5692 0.7125
vn 0.4321 0.5674 -0.7010
vn 0.4103 0.5692 -0.7125
vn 0.7965 0.4625 -0.3895
vn 0.7303 0.4961 -0.4696
vn 0.9632 0.2684 -0.0121
vn 0.9608 0.2762 -0.0255
vn -0.0000 -0.9997 0.0263
vn -0.0000 -0.9915 0.1300
vn -0.0000 -1.0000 -0.0000
vn -0.0000 -0.9915 -0.1300
vn -0.9646 0.2614 -0.0358
vn -0.9647 0.2614 -0.0331
vn -0.9650 0.2622 -0.0000
vn -0.9647 0.2614 0.0332
vn -0.9646 0.2614 0.0358
vn 0.9647 0.2614 -0.0331
vn 0.9646 0.2614 -0.0358
vn 0.9650 0.2622 -0.0000
vn 0.9646 0.2614 0.0358
vn 0.9647 0.2614 0.0331
vn 0.9643 0.2648 0.0044
vn 0.9644 0.2645 0.0032
vn -0.9651 0.2614 0.0167
vn -0.9651 0.2614 0.0166
vn -0.9409 -0.3218 -0.1059
vn -0.9819 -0.1896 0.0019
vn -0.9738 -0.2265 0.0201
vn -0.9651 0.2614 -0.0166
vn -0.9651 0.2614 -0.0168
vn -0.9644 0.2646 0.0033
vn -0.9643 0.2648 0.0045
vn 0.9651 0.2614 -0.0168
vn 0.9651 0.2614 -0.0164
vn 0.9643 0.2648 -0.0044
vn 0.9644 0.2646 -0.0032
vn 0.9651 0.2614 0.0166
vn 0.9651 0.2614 0.0169
vn -0.0000 -0.9980 -0.0635
vn -0.0000 -0.9980 0.0635
vn 0.9409 -0.3218 -0.1059
vn 0.9819 -0.1896 0.0019
vn 0.9638 -0.2363 -0.1231
vn 0.9891 -0.1468 -0.0088
vn 0.9906 -0.1367 0.0081
vn 0.9906 -0.1366 0.0080
vn 0.9732 -0.2297 -0.0136
vn 0.9748 -0.2224 0.0160
vn 0.9736 -0.2277 -0.0135
vn -0.9906 -0.1367 0.0081
vn -0.9891 -0.1468 -0.0088
vn -0.9906 -0.1366 0.0080
vn -0.0000 0.5911 0.8066
vn -0.0000 0.2947 -0.9556
vn -0.0000 0.9939 -0.1107
vn -0.0000 0.9972 -0.0754
vn -0.9885 -0.1505 -0.0133
vn -0.9904 -0.1378 -0.0055
vn -0.9748 -0.2224 0.0160
vn -0.9874 -0.1581 -0.0051
vn -0.9638 -0.2363 -0.1231
vn -0.9732 -0.2297 -0.0136
vn -0.9736 -0.2277 -0.0135
vn -0.0000 0.9947 0.1025
vn -0.0000 0.9916 0.1291
vn 0.9904 -0.1378 -0.0055
vn 0.9874 -0.1581 -0.0051
vn -0.0000 0.9981 0.0612
vn -0.0000 0.9981 0.0613
vn -0.0000 0.9995 -0.0324
vn 0.9738 -0.2265 0.0201
vn 0.9885 -0.1505 -0.0133
vn -0.0000 0.8230 -0.5680
vn -0.0000 0.9958 -0.0912
vn 0.0001 0.9958 -0.0912
vn -0.0000 0.9930 0.1179
vn -0.0000 0.8187 0.5743
vn -0.0000 0.7290 0.6845
vn -0.0013 0.9970 -0.0772
vn 0.0010 0.9984 0.0565
vn 0.0006 1.0000 0.0096
vn 0.0017 0.9997 0.0262
vn -0.0000 1.0000 -0.0000
vn 0.0006 1.0000 -0.0096
vn 0.0017 0.9997 -0.0262
vn -0.0006 1.0000 0.0096
vn -0.0017 0.9997 0.0262
vn -0.0006 1.0000 -0.0100
vn -0.0017 0.9997 -0.0262
vn -0.0000 0.9914 0.1311
vn -0.0000 0.9914 -0.1311
vn -0.0000 0.9979 -0.0640
vn -0.0014 0.9999 0.0148
vn 0.0014 0.9999 0.0148
vn -0.0000 0.9980 -0.0640
vn -0.0014 0.9999 -0.0148
vn -0.0000 0.9980 0.0640
vn 0.0014 0.9999 -0.0148
vt 0.018825 0.183211
vt 0.068629 0.171488
vt 0.027702 0.184188
vt 0.341179 0.171488
vt 0.065371 0.091917
vt 0.342678 0.183252
vt 0.199411 0.125786
vt 0.342678 0.147522
vt 0.027702 0.013866
vt 0.341179 0.159286
vt 0.018826 0.012889
vt 0.068630 0.159285
vt 0.065371 0.089678
vt 0.365086 0.199909
vt 0.068850 0.082725
vt 0.374605 0.209085
vt 0.061390 0.089678
vt 0.061024 0.082725
vt 0.369845 0.201139
vt 0.064967 0.082725
vt 0.373330 0.204497
vt 0.245736 0.082725
vt 0.374605 0.429739
vt 0.199411 0.123546
vt 0.365085 0.438914
vt 0.249619 0.082725
vt 0.207355 0.123546
vt 0.373329 0.434327
vt 0.203413 0.123546
vt 0.369845 0.437685
vt 0.249036 0.074937
vt 0.014794 0.209085
vt 0.198342 0.111814
vt 0.024314 0.199910
vt 0.252985 0.074937
vt 0.016069 0.204497
vt 0.202317 0.111814
vt 0.256996 0.074937
vt 0.019554 0.201139
vt 0.065896 0.100696
vt 0.024314 0.438914
vt 0.069102 0.074937
vt 0.014795 0.429739
vt 0.061920 0.100696
vt 0.061142 0.074937
vt 0.019554 0.437685
vt 0.065153 0.074937
vt 0.016070 0.434327
vt 0.198126 0.091917
vt 0.209425 0.183255
vt 0.200385 0.171491
vt 0.204905 0.171491
vt 0.200385 0.159283
vt 0.209425 0.159283
vt 0.204905 0.159283
vt 0.065787 0.111814
vt 0.189112 0.199909
vt 0.198126 0.089678
vt 0.200287 0.199909
vt 0.194699 0.199909
vt 0.061275 0.111814
vt 0.202645 0.089678
vt 0.065973 0.123546
vt 0.200287 0.438914
vt 0.198490 0.100696
vt 0.189113 0.438914
vt 0.194700 0.438914
vt 0.203004 0.100696
vt 0.061430 0.123546
vt 0.181301 0.100696
vt 0.167830 0.438914
vt 0.140843 0.438914
vt 0.159507 0.100696
vt 0.161354 0.159283
vt 0.183175 0.159283
vt 0.140842 0.199909
vt 0.104759 0.111814
vt 0.082971 0.111814
vt 0.167829 0.199909
vt 0.082971 0.114376
vt 0.183175 0.183255
vt 0.161354 0.171490
vt 0.248456 0.159283
vt 0.226635 0.159283
vt 0.248456 0.171490
vt 0.226635 0.171491
vt 0.221570 0.199909
vt 0.180916 0.089678
vt 0.248557 0.199909
vt 0.159095 0.089678
vt 0.083271 0.123546
vt 0.221569 0.438914
vt 0.105204 0.123546
vt 0.248556 0.438914
vt 0.215584 0.493288
vt 0.293926 0.524562
vt 0.808763 0.026704
vt 0.233080 0.479336
vt 0.317547 0.544053
vt 0.410082 0.026704
vt 0.014847 0.544053
vt 0.234191 0.456169
vt 0.410082 0.298575
vt 0.215651 0.468940
vt 0.015815 0.524562
vt 0.808763 0.298575
vt 0.433687 0.451337
vt 0.017687 0.458428
vt 0.432583 0.474504
vt 0.017620 0.482776
vt 0.218628 0.483415
vt 0.291981 0.514517
vt 0.230011 0.475149
vt 0.315429 0.539451
vt 0.016965 0.539451
vt 0.231123 0.451981
vt 0.218696 0.459067
vt 0.017761 0.514517
vt 0.080175 0.487458
vt 0.080241 0.463110
vt 0.369541 0.479223
vt 0.370648 0.456055
vt 0.097643 0.502203
vt 0.690979 0.026704
vt 0.135562 0.502204
vt 0.728691 0.026704
vt 0.135629 0.477856
vt 0.728691 0.298575
vt 0.097709 0.477856
vt 0.690979 0.298575
vt 0.291519 0.486944
vt 0.468237 0.026704
vt 0.341512 0.490511
vt 0.517696 0.026703
vt 0.342620 0.467344
vt 0.517696 0.298575
vt 0.292629 0.463777
vt 0.468237 0.298575
vt 0.430297 0.459312
vt 0.604581 0.298575
vt 0.429192 0.482479
vt 0.604581 0.026704
vt 0.433687 0.456972
vt 0.017687 0.464019
vt 0.608647 0.298575
vt 0.017619 0.488367
vt 0.432582 0.480139
vt 0.608648 0.026704
vt 0.022970 0.468982
vt 0.615857 0.298575
vt 0.027995 0.471251
vt 0.621340 0.298575
vt 0.027929 0.495599
vt 0.621340 0.026704
vt 0.022905 0.493329
vt 0.615857 0.026704
vt 0.738560 0.339898
vt 0.738560 0.568230
vt 0.645110 0.342268
vt 0.637505 0.565953
vt 0.512926 0.339184
vt 0.515641 0.569445
vt 0.622777 0.342151
vt 0.619610 0.565423
vt 0.202317 0.114376
vt 0.256996 0.072346
vt 0.063282 0.182255
vt 0.198342 0.114376
vt 0.067131 0.183252
vt 0.252985 0.072346
vt 0.060464 0.179531
vt 0.249036 0.072346
vt 0.059433 0.175810
vt 0.009628 0.187533
vt 0.061390 0.091917
vt 0.061024 0.080146
vt 0.346527 0.182255
vt 0.064967 0.080146
vt 0.349345 0.179531
vt 0.068850 0.080146
vt 0.350376 0.175810
vt 0.036899 0.188510
vt 0.065896 0.103277
vt 0.067131 0.147521
vt 0.061920 0.103277
vt 0.061142 0.072346
vt 0.063282 0.148518
vt 0.065153 0.072346
vt 0.060465 0.151242
vt 0.069102 0.072346
vt 0.059433 0.154963
vt 0.009629 0.008567
vt 0.245736 0.080146
vt 0.350375 0.154964
vt 0.036899 0.009544
vt 0.249619 0.080146
vt 0.207355 0.125786
vt 0.349344 0.151243
vt 0.203413 0.125786
vt 0.346526 0.148518
vt 0.203004 0.103277
vt 0.061430 0.125786
vt 0.204905 0.147518
vt 0.065973 0.125786
vt 0.209425 0.147518
vt 0.209425 0.171491
vt 0.061275 0.114376
vt 0.202645 0.091917
vt 0.204905 0.183255
vt 0.198490 0.103277
vt 0.200385 0.147518
vt 0.065787 0.114376
vt 0.200384 0.183255
vt 0.159507 0.103277
vt 0.161354 0.147519
vt 0.181301 0.103277
vt 0.183175 0.147519
vt 0.183175 0.171491
vt 0.104759 0.114376
vt 0.161353 0.183254
vt 0.105204 0.125786
vt 0.248456 0.147519
vt 0.083271 0.125786
vt 0.226635 0.147519
vt 0.159095 0.091917
vt 0.248456 0.183254
vt 0.180916 0.091917
vt 0.226635 0.183255
s 1
usemtl M_Clipboard_Notepad_1024
f 100/193/1 11/22/2 8/15/3 95/180/4
f 92/172/5 15/31/6 20/42/7 99/190/8
f 16/34/9 39/76/9 36/72/9 19/41/9
f 3/5/10 7/13/11 48/90/12 115/225/13
f 90/168/14 16/33/15 18/37/16 89/165/17
f 89/166/17 18/38/16 17/35/18 91/170/19
f 91/170/19 17/35/18 15/31/6 92/172/5
f 7/13/11 3/5/10 93/175/20 9/17/21
f 9/18/21 93/176/20 94/178/22 10/20/23
f 10/20/23 94/178/22 95/180/4 8/15/3
f 19/40/24 96/183/25 97/185/26 21/44/27
f 21/45/27 97/186/26 98/188/28 22/47/29
f 22/47/29 98/188/28 99/190/8 20/42/7
f 11/22/2 100/193/1 101/196/30 13/26/31
f 13/27/31 101/197/30 102/199/32 14/29/33
f 14/29/33 102/199/32 4/7/34 12/24/35
f 12/25/36 50/94/36 48/89/36 7/14/36
f 33/66/37 29/57/37 31/60/38 34/67/38
f 34/67/38 31/60/38 30/59/39 32/64/39
f 29/56/40 108/212/41 106/207/42 31/61/42
f 31/62/42 106/208/42 23/49/43 30/58/44
f 107/210/45 33/65/46 34/68/47 103/201/47
f 103/202/47 34/69/47 32/63/48 104/204/49
f 96/183/25 19/40/24 36/73/50 109/214/51
f 116/227/52 47/88/53 30/58/44 23/49/43
f 75/143/54 55/107/55 73/139/56
f 108/212/41 29/56/40 40/78/57 41/80/58
f 112/219/59 39/77/60 16/33/15 90/168/14
f 110/216/61 35/70/62 33/65/46 107/210/45
f 50/93/63 12/24/35 4/7/34 113/221/64
f 32/63/48 49/91/65 114/223/66 104/204/49
f 49/92/67 32/64/39 30/59/39 47/87/67
f 40/79/68 35/71/68 36/72/9 39/76/9
f 76/146/69 56/110/70 80/155/71
f 39/77/60 112/219/59 41/80/58 40/78/57
f 35/70/62 110/216/61 109/214/51 36/73/50
f 50/93/63 113/221/64 114/223/66 49/91/65
f 49/92/67 47/87/67 48/89/36 50/94/36
f 47/88/53 116/227/52 115/225/13 48/90/12
f 40/79/68 29/57/37 33/66/37 35/71/68
f 16/34/9 19/41/9 21/46/38 22/48/38 20/43/38 15/32/38 17/36/38 18/39/38
f 9/19/38 10/21/38 8/16/38 11/23/38 13/28/38 14/30/38 12/25/36 7/14/36
f 61/119/72 57/111/73 51/95/73 66/125/74
f 52/98/75 58/113/75 63/121/76 69/131/77
f 54/104/78 60/117/78 62/120/79 67/127/80
f 53/101/81 59/115/81 58/114/81 52/99/81
f 51/96/82 57/112/82 60/118/82 54/105/82
f 54/106/83 67/128/84 66/126/84 51/97/83
f 62/120/79 55/108/55 78/151/85 68/129/86
f 55/107/55 64/122/87 71/135/88 73/139/56
f 77/149/89 55/108/55 75/144/54
f 64/122/87 59/116/90 53/102/90 72/137/91
f 72/138/92 53/103/93 52/100/93 69/132/92
f 65/123/94 61/119/72 66/125/74
f 67/127/80 62/120/79 68/129/86
f 69/131/77 63/121/76 70/133/95
f 71/135/88 64/122/87 72/137/91
f 65/124/96 66/126/84 67/128/84 68/130/97
f 69/132/92 70/134/98 71/136/98 72/138/92
f 63/121/76 56/109/70 74/141/99 70/133/95
f 74/141/99 56/109/70 76/147/69
f 56/110/70 61/119/72 65/123/94 79/153/100
f 75/145/101 73/140/102 74/142/103 76/148/101
f 73/140/102 71/136/98 70/134/98 74/142/103
f 68/130/97 78/152/104 79/154/104 65/124/96
f 77/149/89 78/151/85 55/108/55
f 79/153/100 80/155/71 56/110/70
f 77/150/105 80/156/105 79/154/104 78/152/104
f 77/150/105 75/145/106 76/148/106 80/156/105
f 82/158/107 84/160/107 83/159/107 81/157/107
f 88/164/108 86/162/108 85/161/108 87/163/108
f 1/2/109 90/169/110 89/167/111
f 1/2/109 89/167/111 91/171/111
f 1/2/109 91/171/111 92/173/111
f 2/4/112 93/177/111 3/6/113
f 2/4/112 94/179/111 93/177/111
f 2/4/112 95/181/111 94/179/111
f 6/12/114 97/187/111 96/184/115
f 6/12/114 98/189/111 97/187/111
f 6/12/114 99/191/111 98/189/111
f 5/10/116 101/198/111 100/194/111
f 5/10/116 102/200/111 101/198/111
f 5/10/116 4/8/117 102/200/111
f 6/11/114 1/1/109 92/174/111 99/192/111
f 2/3/112 5/9/116 100/195/111 95/182/111
f 27/54/118 28/55/111 103/203/111 104/205/118
f 25/52/111 105/206/118 23/50/118 106/209/111
f 28/55/111 26/53/119 107/211/119 103/203/111
f 24/51/119 25/52/111 106/209/111 108/213/119
f 38/75/120 37/74/121 109/215/121 110/217/120
f 42/82/122 111/218/123 41/81/120 112/220/122
f 43/83/124 44/84/125 114/224/125 113/222/124
f 46/86/125 45/85/126 115/226/126 116/228/125
f 37/74/121 6/12/114 96/184/115 109/215/121
f 26/53/119 38/75/120 110/217/120 107/211/119
f 111/218/123 24/51/119 108/213/119 41/81/120
f 1/2/109 42/82/122 112/220/122 90/169/110
f 45/85/126 2/4/112 3/6/113 115/226/126
f 5/10/116 43/83/124 113/222/124 4/8/117
f 44/84/125 27/54/118 104/205/118 114/224/125
f 105/206/118 46/86/125 116/228/125 23/50/118
