# Blender 3.1.0
# www.blender.org
mtllib pen1.mtl
o Pen_Simple_CapV1
v 0.139000 1.000194 5.127357
v 0.142982 1.000194 5.134252
v 0.135019 1.000194 5.134252
v 0.142982 1.000194 5.129655
v 0.139000 1.000194 5.136551
v 0.135019 1.000194 5.129655
v 0.139000 0.986016 5.128071
v 0.142363 0.986016 5.133895
v 0.135638 0.986016 5.133895
v 0.142363 0.986016 5.130013
v 0.139000 0.986016 5.135837
v 0.135638 0.986016 5.130013
v 0.139000 0.969461 5.129835
v 0.140835 0.969461 5.133013
v 0.137165 0.969461 5.133013
v 0.140835 0.969461 5.130894
v 0.139000 0.969461 5.134073
v 0.137165 0.969461 5.130894
v 0.143041 1.009880 5.129621
v 0.139000 1.009880 5.136619
v 0.134960 1.009880 5.129621
v 0.139000 1.009880 5.127288
v 0.143041 1.009880 5.134286
v 0.134960 1.009880 5.134286
v 0.141734 0.977813 5.130375
v 0.139000 0.977813 5.135110
v 0.136267 0.977813 5.130375
v 0.139000 0.977813 5.128797
v 0.141734 0.977813 5.133532
v 0.136267 0.977813 5.133532
v 0.139000 1.011297 5.131954
v 0.139000 1.009880 5.126529
v 0.143698 1.009880 5.129241
v 0.143698 1.009880 5.134666
v 0.139000 1.009880 5.137378
v 0.134303 1.009880 5.134666
v 0.134303 1.009880 5.129241
v 0.139000 1.014423 5.126529
v 0.143698 1.014423 5.129241
v 0.143698 1.014423 5.134666
v 0.139000 1.014423 5.137378
v 0.134303 1.014423 5.134666
v 0.134303 1.014423 5.129241
v 0.143698 1.039646 5.131040
v 0.143698 1.039646 5.132868
v 0.143931 1.001693 5.134252
v 0.143931 1.001693 5.129655
v 0.144994 1.005537 5.129621
v 0.144994 1.005537 5.134286
v 0.145658 1.009374 5.129774
v 0.145658 1.009374 5.134134
v 0.146081 1.021060 5.130334
v 0.146081 1.021060 5.133574
v 0.144729 1.038301 5.131040
v 0.144729 1.038301 5.132868
vn 0.0178 -0.0322 -0.9993
vn 0.8186 -0.0629 -0.5710
vn -0.0852 -0.0629 -0.9944
vn 0.6844 -0.0569 0.7269
vn 0.0852 -0.0629 0.9944
vn 0.9037 -0.0629 0.4234
vn -0.8743 -0.0322 0.4842
vn -0.9037 -0.0629 -0.4234
vn -0.8186 -0.0629 0.5710
vn 0.8039 -0.0664 -0.5910
vn -0.0178 -0.0322 0.9993
vn -0.8565 -0.0322 -0.5151
vn -0.0527 -0.1042 -0.9932
vn -0.8864 -0.1042 -0.4510
vn -0.8338 -0.1042 0.5422
vn 0.0527 -0.1042 0.9932
vn 0.8864 -0.1042 0.4510
vn 0.8338 -0.1042 -0.5422
vn 0.1872 -0.0077 -0.9823
vn 0.3872 -0.0121 0.9219
vn -0.9443 -0.0077 0.3290
vn 0.2703 0.1104 -0.9564
vn 0.8933 0.0421 -0.4475
vn 0.3229 0.0423 -0.9455
vn -0.1872 -0.0077 0.9823
vn -0.7571 -0.0077 -0.6533
vn 0.7160 -0.1198 -0.6877
vn -0.2376 -0.1198 -0.9640
vn 0.2376 -0.1198 0.9640
vn 0.9536 -0.1198 0.2762
vn -0.9536 -0.1198 -0.2762
vn -0.7160 -0.1198 0.6877
vn -0.0000 -1.0000 -0.0000
vn -0.0000 1.0000 -0.0000
vn 0.4324 0.8664 0.2497
vn 0.4324 0.8664 -0.2497
vn -0.0000 0.8664 0.4993
vn -0.0000 0.8664 -0.4993
vn -0.4324 0.8664 -0.2497
vn 0.8467 -0.1713 0.5038
vn -0.1890 -0.0000 0.9820
vn -0.7559 -0.0000 0.6546
vn -0.9449 0.0001 0.3273
vn -0.9449 -0.0000 -0.3273
vn -0.7559 0.0001 -0.6546
vn 0.5000 -0.0000 -0.8660
vn 0.4294 -0.0323 -0.9025
vn -0.1890 -0.0001 -0.9820
vn -0.0000 -0.0000 -1.0000
vn -1.0000 -0.0000 -0.0000
vn 0.4596 -0.0187 0.8879
vn 0.1890 -0.0001 0.9820
vn -0.4324 0.8664 0.2497
vn 0.9337 -0.0479 0.3548
vn 0.9069 -0.0721 -0.4152
vn 0.9352 -0.3521 0.0389
vn 0.8459 -0.1994 -0.4947
vn 0.9328 -0.3519 -0.0779
vn 0.3151 -0.0156 -0.9489
vn 0.2418 0.0876 0.9664
vn 0.7618 0.0568 0.6453
vn 0.9787 0.1191 0.1675
vn 0.3229 0.0423 0.9455
vn 0.9017 0.1312 -0.4119
vt 0.073727 0.590718
vt 0.073727 0.565549
vt 0.020383 0.621899
vt 0.073727 0.577981
vt 0.073727 0.560589
vt 0.073727 0.596790
vt 0.020542 0.615026
vt 0.073727 0.571654
vt 0.073727 0.584404
vt 0.057699 0.587773
vt 0.057699 0.568748
vt 0.057699 0.578126
vt 0.057699 0.564427
vt 0.057699 0.592395
vt 0.057699 0.573344
vt 0.057699 0.582976
vt 0.129343 0.625124
vt 0.037817 0.584506
vt 0.037817 0.570888
vt 0.125075 0.622661
vt 0.037817 0.577711
vt 0.125075 0.627589
vt 0.037817 0.567580
vt 0.037817 0.587794
vt 0.127920 0.622661
vt 0.037817 0.574284
vt 0.123652 0.625124
vt 0.037817 0.581132
vt 0.127920 0.627589
vt 0.088483 0.600385
vt 0.033576 0.611653
vt 0.088483 0.569130
vt 0.088483 0.585516
vt 0.088483 0.593278
vt 0.088483 0.561761
vt 0.033456 0.625646
vt 0.088483 0.577327
vt 0.048730 0.590349
vt 0.048730 0.566556
vt 0.048730 0.574391
vt 0.048730 0.582581
vt 0.048730 0.586574
vt 0.048730 0.570386
vt 0.048730 0.578486
vt 0.101220 0.626361
vt 0.089677 0.593516
vt 0.089677 0.600951
vt 0.034262 0.612565
vt 0.089677 0.561159
vt 0.034184 0.624728
vt 0.089677 0.569494
vt 0.089677 0.577762
vt 0.089677 0.585927
vt 0.109204 0.626361
vt 0.097287 0.594449
vt 0.042294 0.632229
vt 0.105211 0.619447
vt 0.097287 0.601971
vt 0.040833 0.612450
vt 0.097228 0.619447
vt 0.097287 0.559811
vt 0.040795 0.624873
vt 0.093237 0.626361
vt 0.097287 0.568041
vt 0.097228 0.633276
vt 0.097287 0.577144
vt 0.105211 0.633276
vt 0.097287 0.586149
vt 0.076003 0.622821
vt 0.075462 0.617036
vt 0.075498 0.620341
vt 0.022857 0.621602
vt 0.022968 0.615400
vt 0.028319 0.615493
vt 0.028247 0.621653
vt 0.033638 0.615520
vt 0.033595 0.621749
vt 0.049757 0.616536
vt 0.049749 0.620806
vt 0.073239 0.617573
vt 0.073249 0.619816
s 1
usemtl M_OfficeAppliances_1024
f 1/1/1 10/14/2 7/10/3
f 2/2/4 11/15/5 8/11/6
f 3/4/7 12/16/8 9/12/9
f 4/5/10 8/11/6 10/13/2
f 5/8/11 9/12/9 11/15/5
f 6/9/12 7/10/3 12/16/8
f 12/16/8 28/42/13 27/41/14
f 11/15/5 30/44/15 26/40/16
f 10/13/2 29/43/17 25/39/18
f 9/12/9 27/41/14 30/44/15
f 8/11/6 26/40/16 29/43/17
f 7/10/3 25/38/18 28/42/13
f 22/34/19 4/6/10 1/1/1
f 23/35/20 5/8/11 2/2/4
f 24/37/21 6/9/12 3/4/7
f 44/70/22 52/78/23 39/59/24
f 20/32/25 3/4/7 5/8/11
f 21/33/26 1/1/1 6/9/12
f 28/42/13 16/24/27 13/18/28
f 29/43/17 17/26/29 14/19/30
f 30/44/15 18/28/31 15/21/32
f 25/39/18 14/19/30 16/23/27
f 26/40/16 15/21/32 17/26/29
f 27/41/14 13/18/28 18/28/31
f 14/20/33 15/22/33 16/25/33
f 16/25/33 18/29/33 13/17/33
f 31/45/34 43/67/35 42/65/36
f 31/45/34 38/54/37 43/67/35
f 22/34/33 33/47/33 19/30/33
f 31/45/34 41/63/38 40/60/39
f 2/3/4 49/75/40 23/36/20
f 31/45/34 42/65/36 41/63/38
f 35/51/41 42/66/42 36/52/43
f 36/52/43 43/68/44 37/53/45
f 32/46/46 39/58/24 33/47/47
f 37/53/45 38/55/48 32/46/49
f 40/62/50 44/69/50 39/56/50
f 34/49/51 41/64/52 35/51/41
f 20/32/33 36/52/33 24/37/33
f 20/32/33 34/49/33 35/51/33
f 31/45/34 40/60/39 39/57/53
f 22/34/33 37/53/33 32/46/33
f 31/45/34 39/57/53 38/54/37
f 24/37/33 37/53/33 21/33/33
f 23/36/20 51/77/54 34/50/51
f 39/59/24 50/76/55 33/48/47
f 4/7/10 46/72/56 2/3/4
f 4/7/10 48/74/57 47/73/58
f 19/31/59 50/76/55 48/74/57
f 45/71/60 53/79/61 55/81/62
f 40/62/63 51/77/54 53/79/61
f 55/81/62 52/78/23 54/80/64
f 52/78/23 51/77/54 50/76/55
f 49/75/40 50/76/55 51/77/54
f 46/72/56 48/74/57 49/75/40
f 55/81/62 44/70/22 45/71/60
f 1/1/1 4/6/10 10/14/2
f 2/2/4 5/8/11 11/15/5
f 3/4/7 6/9/12 12/16/8
f 4/5/10 2/2/4 8/11/6
f 5/8/11 3/4/7 9/12/9
f 6/9/12 1/1/1 7/10/3
f 12/16/8 7/10/3 28/42/13
f 11/15/5 9/12/9 30/44/15
f 10/13/2 8/11/6 29/43/17
f 9/12/9 12/16/8 27/41/14
f 8/11/6 11/15/5 26/40/16
f 7/10/3 10/14/2 25/38/18
f 22/34/19 19/30/59 4/6/10
f 23/35/20 20/32/25 5/8/11
f 24/37/21 21/33/26 6/9/12
f 44/70/22 54/80/64 52/78/23
f 20/32/25 24/37/21 3/4/7
f 21/33/26 22/34/19 1/1/1
f 28/42/13 25/38/18 16/24/27
f 29/43/17 26/40/16 17/26/29
f 30/44/15 27/41/14 18/28/31
f 25/39/18 29/43/17 14/19/30
f 26/40/16 30/44/15 15/21/32
f 27/41/14 28/42/13 13/18/28
f 14/20/33 17/27/33 15/22/33
f 16/25/33 15/22/33 18/29/33
f 22/34/33 32/46/33 33/47/33
f 2/3/4 46/72/56 49/75/40
f 35/51/41 41/64/52 42/66/42
f 36/52/43 42/66/42 43/68/44
f 32/46/49 38/55/48 39/58/46
f 37/53/45 43/68/44 38/55/48
f 40/62/50 45/71/50 44/69/50
f 34/49/51 40/61/63 41/64/52
f 20/32/33 35/51/33 36/52/33
f 20/32/33 23/35/33 34/49/33
f 22/34/33 21/33/33 37/53/33
f 24/37/33 36/52/33 37/53/33
f 23/36/20 49/75/40 51/77/54
f 39/59/24 52/78/23 50/76/55
f 4/7/10 47/73/58 46/72/56
f 4/7/10 19/31/59 48/74/57
f 19/31/59 33/48/47 50/76/55
f 45/71/60 40/62/63 53/79/61
f 40/62/63 34/50/51 51/77/54
f 55/81/62 53/79/61 52/78/23
f 52/78/23 53/79/61 51/77/54
f 49/75/40 48/74/57 50/76/55
f 46/72/56 47/73/58 48/74/57
f 55/81/62 54/80/64 44/70/22
