# Blender 3.1.0
# www.blender.org
mtllib pen 1.mtl
o Pen_SimpleV1
v 0.139000 0.973873 5.157859
v 0.138234 0.973873 5.158301
v 0.138234 0.973873 5.159186
v 0.139000 0.973873 5.159629
v 0.139767 0.973873 5.159186
v 0.139767 0.973873 5.158301
v 0.139000 1.135415 5.156039
v 0.136658 1.135415 5.157392
v 0.136658 1.135415 5.160096
v 0.139000 1.135415 5.161448
v 0.141343 1.135415 5.160096
v 0.141343 1.135415 5.157392
v 0.142746 1.101721 5.156581
v 0.139000 1.101721 5.154418
v 0.139000 1.101721 5.163069
v 0.142746 1.101721 5.160906
v 0.135255 1.101721 5.156581
v 0.135255 1.101721 5.160906
v 0.139000 0.988862 5.154418
v 0.142746 0.988862 5.160906
v 0.135255 0.988862 5.160906
v 0.142746 0.988862 5.156581
v 0.139000 0.988862 5.163069
v 0.135255 0.988862 5.156581
v 0.139000 0.982819 5.155210
v 0.142061 0.982819 5.160511
v 0.135940 0.982819 5.160511
v 0.142061 0.982819 5.156977
v 0.139000 0.982819 5.162277
v 0.135940 0.982819 5.156977
v 0.139000 0.971036 5.158744
v 0.139000 0.974281 5.157039
v 0.140477 0.974281 5.159596
v 0.137524 0.974281 5.159596
v 0.140477 0.974281 5.157891
v 0.139000 0.974281 5.160449
v 0.137524 0.974281 5.157891
v 0.142350 1.122545 5.156810
v 0.139000 1.122545 5.162612
v 0.135650 1.122545 5.156810
v 0.139000 1.122545 5.154876
v 0.142350 1.122545 5.160678
v 0.135650 1.122545 5.160678
v 0.139000 1.135415 5.157032
v 0.137517 1.135415 5.157887
v 0.137517 1.135415 5.159600
v 0.139000 1.135415 5.160456
v 0.140484 1.135415 5.159600
v 0.140484 1.135415 5.157887
v 0.139000 1.134384 5.158744
v 0.139000 1.102225 5.154013
v 0.143097 1.102225 5.161109
v 0.134904 1.102225 5.161109
v 0.143097 1.102225 5.156379
v 0.139000 1.102225 5.163475
v 0.134904 1.102225 5.156379
vn 0.0058 0.0598 -0.9982
vn 0.8593 0.1248 -0.4961
vn 0.8673 0.0603 -0.4941
vn 0.8475 0.1316 0.5142
vn -0.0101 0.0600 0.9981
vn 0.8594 0.0600 0.5078
vn -0.8684 0.1371 0.4764
vn -0.8594 0.0600 -0.5078
vn -0.8695 0.0600 0.4903
vn -0.0216 0.1316 0.9911
vn -0.8481 0.1260 -0.5146
vn -0.8661 -0.0045 -0.4999
vn -0.0009 -0.0062 -1.0000
vn -0.8664 -0.0062 -0.4992
vn -0.0000 -0.0047 1.0000
vn -0.8656 -0.0062 0.5007
vn 0.0009 -0.0062 1.0000
vn 0.8660 -0.0043 -0.5000
vn 0.8664 -0.0062 0.4992
vn 0.8656 -0.0062 -0.5007
vn -0.8660 -0.0043 0.5000
vn 0.8661 -0.0045 0.4999
vn -0.0000 -0.0047 -1.0000
vn 0.8420 -0.1732 -0.5109
vn -0.0215 -0.1732 -0.9846
vn 0.0215 -0.1732 0.9846
vn 0.8635 -0.1732 0.4737
vn -0.8635 -0.1732 -0.4737
vn -0.8420 -0.1732 0.5109
vn -0.0612 -0.2539 -0.9653
vn -0.8691 -0.2437 -0.4304
vn -0.8053 -0.2539 0.5357
vn 0.0633 -0.2488 0.9665
vn 0.8686 -0.2488 0.4284
vn 0.8073 -0.2437 -0.5375
vn 0.0258 -0.5611 0.8274
vn -0.6940 -0.5982 0.4007
vn -0.0000 -1.0000 -0.0000
vn -0.7420 -0.5157 -0.4284
vn -0.0000 -0.5982 -0.8013
vn 0.7420 -0.5157 -0.4284
vn 0.7294 -0.5611 0.3913
vn 0.0063 0.0256 -0.9997
vn -0.8628 0.0262 -0.5049
vn -0.8688 0.0269 0.4944
vn -0.0063 0.0256 0.9997
vn 0.8628 0.0262 0.5049
vn 0.8689 0.0269 -0.4943
vn -0.0000 0.9740 0.2265
vn -0.2412 0.9604 0.1393
vn -0.0000 0.9683 -0.2499
vn 0.1962 0.9740 -0.1133
vn 0.2412 0.9604 0.1392
vn -0.2164 0.9683 -0.1249
vn -0.0000 0.1390 -0.9903
vn -0.0000 1.0000 -0.0000
vt 0.018638 0.726690
vt 0.019145 0.725381
vt 0.018264 0.724287
vt 0.016877 0.724503
vt 0.016370 0.725812
vt 0.017251 0.726905
vt 0.217243 0.733631
vt 0.217048 0.706385
vt 0.216386 0.729040
vt 0.220749 0.705559
vt 0.216066 0.724365
vt 0.223329 0.708044
vt 0.215794 0.719889
vt 0.222641 0.711505
vt 0.215738 0.715292
vt 0.219305 0.712823
vt 0.216199 0.710656
vt 0.177948 0.709282
vt 0.177948 0.704005
vt 0.177953 0.735666
vt 0.177950 0.719836
vt 0.177949 0.714559
vt 0.177952 0.730389
vt 0.177951 0.725112
vt 0.040248 0.704026
vt 0.040248 0.735694
vt 0.040248 0.714731
vt 0.040248 0.724955
vt 0.040248 0.709512
vt 0.040248 0.719841
vt 0.040248 0.730188
vt 0.031214 0.733903
vt 0.031167 0.705901
vt 0.033067 0.715232
vt 0.033068 0.724388
vt 0.032456 0.710620
vt 0.033246 0.719801
vt 0.032469 0.729059
vt 0.017757 0.725596
vt 0.020065 0.712313
vt 0.019589 0.727759
vt 0.021242 0.716777
vt 0.014918 0.726037
vt 0.021141 0.722463
vt 0.018795 0.722916
vt 0.020783 0.714126
vt 0.016720 0.728276
vt 0.021358 0.719599
vt 0.015955 0.723358
vt 0.020568 0.725231
vt 0.201510 0.709155
vt 0.201339 0.719887
vt 0.201739 0.730540
vt 0.202244 0.735994
vt 0.202219 0.703792
vt 0.201317 0.714566
vt 0.201470 0.725087
vt 0.218097 0.707521
vt 0.220390 0.706874
vt 0.222071 0.708440
vt 0.221627 0.710663
vt 0.219474 0.711468
vt 0.217612 0.710006
vt 0.219879 0.709162
vt 0.178964 0.703709
vt 0.178954 0.735942
vt 0.178587 0.714502
vt 0.178588 0.725192
vt 0.178670 0.709141
vt 0.178570 0.719849
vt 0.178669 0.730534
s 1
usemtl M_OfficeAppliances_1024
f 41/55/1 12/17/2 38/51/3
f 11/15/4 39/52/5 42/56/6
f 9/11/7 40/53/8 43/57/9
f 12/17/2 42/56/6 38/51/3
f 10/13/10 43/57/9 39/52/5
f 8/9/11 41/54/1 40/53/8
f 17/23/12 19/26/13 24/31/14
f 15/21/15 21/28/16 23/30/17
f 13/18/18 20/27/19 22/29/20
f 18/24/21 24/31/14 21/28/16
f 16/22/22 23/30/17 20/27/19
f 14/19/23 22/29/20 19/25/13
f 19/25/13 28/36/24 25/33/25
f 20/27/19 29/37/26 26/34/27
f 21/28/16 30/38/28 27/35/29
f 22/29/20 26/34/27 28/36/24
f 23/30/17 27/35/29 29/37/26
f 24/31/14 25/32/25 30/38/28
f 30/38/28 32/41/30 37/50/31
f 29/37/26 34/44/32 36/48/33
f 28/36/24 33/42/34 35/46/35
f 27/35/29 37/50/31 34/44/32
f 26/34/27 36/48/33 33/42/34
f 25/33/25 35/46/35 32/40/30
f 4/4/36 3/3/37 31/39/38
f 2/2/39 1/1/40 31/39/38
f 1/1/40 6/6/41 31/39/38
f 5/5/42 4/4/36 31/39/38
f 3/3/37 2/2/39 31/39/38
f 6/6/41 5/5/42 31/39/38
f 1/1/40 35/47/35 6/6/41
f 33/43/34 4/4/36 5/5/42
f 3/3/37 37/50/31 2/2/39
f 35/47/35 5/5/42 6/6/41
f 36/49/33 3/3/37 4/4/36
f 37/50/31 1/1/40 2/2/39
f 40/53/8 51/66/43 56/71/44
f 39/52/5 53/68/45 55/70/46
f 38/51/3 52/67/47 54/69/48
f 43/57/9 56/71/44 53/68/45
f 42/56/6 55/70/46 52/67/47
f 41/55/1 54/69/48 51/65/43
f 12/17/2 44/58/49 49/63/50
f 11/16/4 47/61/51 10/14/10
f 8/10/11 46/60/52 45/59/53
f 12/17/2 48/62/54 11/16/4
f 10/14/10 46/60/52 9/12/7
f 8/10/11 44/58/49 7/8/55
f 47/61/51 50/64/56 46/60/52
f 45/59/53 50/64/56 44/58/49
f 14/19/23 54/69/48 13/18/18
f 52/67/47 15/21/15 16/22/22
f 53/68/45 17/23/12 18/24/21
f 54/69/48 16/22/22 13/18/18
f 15/21/15 53/68/45 18/24/21
f 56/71/44 14/20/23 17/23/12
f 49/63/50 50/64/56 48/62/54
f 41/55/1 7/8/55 12/17/2
f 11/15/4 10/13/10 39/52/5
f 9/11/7 8/9/11 40/53/8
f 12/17/2 11/15/4 42/56/6
f 10/13/10 9/11/7 43/57/9
f 8/9/11 7/7/55 41/54/1
f 17/23/12 14/20/23 19/26/13
f 15/21/15 18/24/21 21/28/16
f 13/18/18 16/22/22 20/27/19
f 18/24/21 17/23/12 24/31/14
f 16/22/22 15/21/15 23/30/17
f 14/19/23 13/18/18 22/29/20
f 19/25/13 22/29/20 28/36/24
f 20/27/19 23/30/17 29/37/26
f 21/28/16 24/31/14 30/38/28
f 22/29/20 20/27/19 26/34/27
f 23/30/17 21/28/16 27/35/29
f 24/31/14 19/26/13 25/32/25
f 30/38/28 25/32/25 32/41/30
f 29/37/26 27/35/29 34/44/32
f 28/36/24 26/34/27 33/42/34
f 27/35/29 30/38/28 37/50/31
f 26/34/27 29/37/26 36/48/33
f 25/33/25 28/36/24 35/46/35
f 1/1/40 32/41/30 35/47/35
f 33/43/34 36/49/33 4/4/36
f 3/3/37 34/45/32 37/50/31
f 35/47/35 33/43/34 5/5/42
f 36/49/33 34/45/32 3/3/37
f 37/50/31 32/41/30 1/1/40
f 40/53/8 41/54/1 51/66/43
f 39/52/5 43/57/9 53/68/45
f 38/51/3 42/56/6 52/67/47
f 43/57/9 40/53/8 56/71/44
f 42/56/6 39/52/5 55/70/46
f 41/55/1 38/51/3 54/69/48
f 12/17/2 7/8/55 44/58/49
f 11/16/4 48/62/54 47/61/51
f 8/10/11 9/12/7 46/60/52
f 12/17/2 49/63/50 48/62/54
f 10/14/10 47/61/51 46/60/52
f 8/10/11 45/59/53 44/58/49
f 47/61/51 48/62/54 50/64/56
f 45/59/53 46/60/52 50/64/56
f 14/19/23 51/65/43 54/69/48
f 52/67/47 55/70/46 15/21/15
f 53/68/45 56/71/44 17/23/12
f 54/69/48 52/67/47 16/22/22
f 15/21/15 55/70/46 53/68/45
f 56/71/44 51/66/43 14/20/23
f 49/63/50 44/58/49 50/64/56
