# Blender 3.1.0
# www.blender.org
mtllib pencil 2.mtl
o PencilV2
v 0.089000 1.152792 5.213285
v 0.089000 1.152205 5.209723
v 0.092085 1.152205 5.215066
v 0.085915 1.152205 5.215066
v 0.092085 1.152205 5.211504
v 0.089000 1.152205 5.216847
v 0.085915 1.152205 5.211504
v 0.085254 1.151235 5.211123
v 0.089000 1.151235 5.217611
v 0.092746 1.151235 5.211123
v 0.085254 1.151235 5.215448
v 0.092746 1.151235 5.215448
v 0.089000 1.151235 5.208960
v 0.088504 0.970906 5.212999
v 0.089000 0.970906 5.213859
v 0.089497 0.970906 5.212999
v 0.088504 0.970906 5.213572
v 0.089497 0.970906 5.213572
v 0.089000 0.970906 5.212712
v 0.089000 0.987183 5.209376
v 0.089000 0.990579 5.208960
v 0.092385 0.987183 5.215240
v 0.092746 0.990579 5.215448
v 0.085615 0.987183 5.215240
v 0.085254 0.990579 5.215448
v 0.092746 0.990579 5.211123
v 0.092385 0.987183 5.211331
v 0.089000 0.990579 5.217611
v 0.089000 0.987183 5.217195
v 0.085254 0.990579 5.211123
v 0.085615 0.987183 5.211331
v 0.089000 0.970330 5.213285
vn 0.3209 0.9107 -0.2599
vn -0.0647 0.9107 -0.4079
vn -0.0000 1.0000 -0.0000
vn 0.3998 0.8871 0.2308
vn -0.7568 0.0056 0.6536
vn -0.0647 0.9107 0.4079
vn -0.2932 0.9409 0.1693
vn -0.1871 0.0044 -0.9823
vn 0.7572 0.0044 -0.6532
vn -0.3856 0.9107 -0.1480
vn -0.9443 0.0044 -0.3292
vn 0.1865 -0.0017 -0.9825
vn 0.9425 -0.0024 -0.3341
vn 0.8599 -0.1827 -0.4767
vn 0.3975 -0.1896 -0.8978
vn -0.0276 -0.1781 -0.9836
vn 0.9447 0.0031 0.3280
vn 0.7606 -0.0024 0.6492
vn 0.1888 0.0043 0.9820
vn -0.1819 -0.0024 0.9833
vn -0.5787 -0.1896 -0.7932
vn -0.8663 -0.1880 -0.4627
vn -0.8599 -0.1827 0.4767
vn -0.3975 -0.1896 0.8978
vn -0.0171 -0.1827 0.9830
vn 0.8428 -0.1827 0.5063
vn 0.9763 -0.1896 -0.1046
vn -0.9425 -0.0024 0.3341
vn -0.7591 -0.0031 -0.6510
vn -0.9763 -0.1896 0.1046
vn 0.5787 -0.1896 0.7932
vn -0.0000 -1.0000 -0.0000
vt 0.425340 0.609596
vt 0.429131 0.611833
vt 0.425381 0.605224
vt 0.421533 0.611747
vt 0.429146 0.607446
vt 0.421549 0.607360
vt 0.425298 0.613969
vt 0.425259 0.615534
vt 0.420164 0.617488
vt 0.420164 0.638751
vt 0.420163 0.606521
vt 0.430516 0.606686
vt 0.420164 0.628119
vt 0.420163 0.612507
vt 0.425420 0.603659
vt 0.420164 0.633435
vt 0.430516 0.612672
vt 0.420164 0.622804
vt 0.198246 0.622141
vt 0.198241 0.612925
vt 0.198245 0.611559
vt 0.198161 0.634116
vt 0.198242 0.623507
vt 0.198166 0.632742
vt 0.198401 0.612248
vt 0.198322 0.633436
vt 0.198402 0.622831
vt 0.218803 0.622850
vt 0.222876 0.622847
vt 0.218794 0.633448
vt 0.222874 0.633445
vt 0.218802 0.612259
vt 0.222874 0.612256
vt 0.222734 0.628141
vt 0.218431 0.627644
vt 0.218426 0.628626
vt 0.222731 0.606957
vt 0.222734 0.638743
vt 0.218432 0.607450
vt 0.218424 0.638253
vt 0.222734 0.617549
vt 0.218435 0.618040
vt 0.218432 0.617054
vt 0.197329 0.633430
vt 0.197416 0.622824
vt 0.197415 0.612242
s 1
usemtl M_OfficeAppliances_1024
f 5/5/1 2/2/2 1/1/3
f 3/3/4 5/5/1 1/1/3
f 11/14/5 6/6/6 4/4/7
f 13/17/8 5/5/1 10/12/9
f 6/6/6 3/3/4 1/1/3
f 2/2/2 7/7/10 1/1/3
f 11/14/5 7/7/10 8/8/11
f 21/29/12 10/13/9 26/34/13
f 27/35/14 19/27/15 20/28/16
f 10/12/9 3/3/4 12/15/17
f 23/31/18 9/10/19 28/38/20
f 9/11/19 3/3/4 6/6/6
f 8/8/11 2/2/2 13/17/8
f 20/28/16 14/19/21 31/42/22
f 26/34/13 12/16/17 23/31/18
f 24/32/23 15/21/24 29/39/25
f 22/30/26 16/24/27 27/36/14
f 25/33/28 8/9/11 30/41/29
f 31/43/22 17/25/30 24/32/23
f 28/37/20 11/14/5 25/33/28
f 30/41/29 13/18/8 21/29/12
f 4/4/7 6/6/6 1/1/3
f 7/7/10 4/4/7 1/1/3
f 26/34/13 20/28/16 21/29/12
f 28/38/20 22/30/26 23/31/18
f 30/41/29 24/32/23 25/33/28
f 23/31/18 27/36/14 26/34/13
f 25/33/28 29/39/25 28/37/20
f 30/41/29 20/28/16 31/42/22
f 29/40/25 18/26/31 22/30/26
f 14/19/21 19/27/15 32/45/32
f 16/24/27 18/26/31 32/44/32
f 18/26/31 15/22/24 32/44/32
f 15/21/24 17/25/30 32/46/32
f 19/27/15 16/23/27 32/45/32
f 17/25/30 14/20/21 32/46/32
f 11/14/5 9/11/19 6/6/6
f 13/17/8 2/2/2 5/5/1
f 11/14/5 4/4/7 7/7/10
f 21/29/12 13/18/8 10/13/9
f 27/35/14 16/23/27 19/27/15
f 10/12/9 5/5/1 3/3/4
f 23/31/18 12/16/17 9/10/19
f 9/11/19 12/15/17 3/3/4
f 8/8/11 7/7/10 2/2/2
f 20/28/16 19/27/15 14/19/21
f 26/34/13 10/13/9 12/16/17
f 24/32/23 17/25/30 15/21/24
f 22/30/26 18/26/31 16/24/27
f 25/33/28 11/14/5 8/9/11
f 31/43/22 14/20/21 17/25/30
f 28/37/20 9/11/19 11/14/5
f 30/41/29 8/9/11 13/18/8
f 26/34/13 27/35/14 20/28/16
f 28/38/20 29/40/25 22/30/26
f 30/41/29 31/43/22 24/32/23
f 23/31/18 22/30/26 27/36/14
f 25/33/28 24/32/23 29/39/25
f 30/41/29 21/29/12 20/28/16
f 29/40/25 15/22/24 18/26/31
