# Blender 3.1.0
# www.blender.org
mtllib ruler.mtl
o Ruler
v 0.138921 0.968333 5.263154
v 0.138921 1.268333 5.263154
v 0.138921 0.968333 5.294221
v 0.138921 1.268333 5.294221
v 0.141534 0.968333 5.286622
v 0.141534 0.968333 5.270753
v 0.141534 1.268333 5.270753
v 0.141534 1.268333 5.286622
v 0.138921 0.968333 5.286188
v 0.138921 0.968333 5.271187
v 0.138921 1.268333 5.271187
v 0.138921 1.268333 5.286188
v 0.137726 0.968333 5.263154
v 0.137726 1.268333 5.263154
v 0.137726 0.968333 5.294221
v 0.137726 1.268333 5.294221
vn 0.9457 -0.0000 0.3251
vn 0.9457 -0.0000 -0.3251
vn 0.1640 -0.0000 -0.9865
vn 0.1640 -0.0000 0.9865
vn 1.0000 -0.0000 -0.0000
vn -0.0000 -0.0000 1.0000
vn -0.0000 -0.0000 -1.0000
vn -1.0000 -0.0000 -0.0000
vn -0.0000 -1.0000 -0.0000
vn -0.0000 1.0000 -0.0000
vt 0.462052 0.689779
vt 0.460857 0.688584
vt 0.762048 0.689779
vt 0.763235 0.688585
vt 0.462052 0.726150
vt 0.460857 0.657516
vt 0.762048 0.726148
vt 0.763250 0.657518
vt 0.458244 0.665116
vt 0.462052 0.718113
vt 0.462052 0.697815
vt 0.458244 0.680984
vt 0.765851 0.680987
vt 0.762048 0.697815
vt 0.762048 0.718112
vt 0.765859 0.665118
vt 0.462052 0.715464
vt 0.460857 0.665550
vt 0.462052 0.700464
vt 0.460857 0.680550
vt 0.762048 0.700464
vt 0.763239 0.680551
vt 0.762048 0.715464
vt 0.763246 0.665551
vt 0.462052 0.688584
vt 0.762047 0.688585
vt 0.462052 0.727344
vt 0.462052 0.657516
vt 0.762048 0.727343
vt 0.762048 0.657517
s 0
usemtl M_OfficeAppliances_1024
f 8/15/1 3/5/1 5/10/1
f 2/3/2 6/11/2 1/1/2
f 12/23/3 5/10/3 9/17/3
f 7/14/4 10/19/4 6/11/4
f 11/21/5 9/17/5 10/19/5
f 4/7/6 15/27/6 3/5/6
f 1/1/7 14/26/7 2/3/7
f 15/28/8 14/26/8 13/25/8
f 9/18/9 13/25/9 10/20/9
f 3/6/9 9/18/9 5/9/9
f 1/2/9 10/20/9 13/25/9
f 11/22/10 16/30/10 12/24/10
f 4/8/10 12/24/10 16/30/10
f 2/4/10 11/22/10 7/13/10
f 8/15/1 4/7/1 3/5/1
f 2/3/2 7/14/2 6/11/2
f 12/23/3 8/15/3 5/10/3
f 7/14/4 11/21/4 10/19/4
f 11/21/5 12/23/5 9/17/5
f 4/7/6 16/29/6 15/27/6
f 1/1/7 13/25/7 14/26/7
f 15/28/8 16/30/8 14/26/8
f 9/18/9 15/28/9 13/25/9
f 3/6/9 15/28/9 9/18/9
f 1/2/9 6/12/9 10/20/9
f 11/22/10 14/26/10 16/30/10
f 4/8/10 8/16/10 12/24/10
f 2/4/10 14/26/10 11/22/10
