# Blender 3.1.0
# www.blender.org
mtllib Scissors.mtl
o Scissors
v 0.147281 1.045758 4.828393
v 0.147281 1.044833 4.830628
v 0.147281 1.042597 4.831554
v 0.147281 1.040362 4.830628
v 0.147281 1.039436 4.828393
v 0.147281 1.040362 4.826158
v 0.147281 1.042597 4.825232
v 0.147281 1.044833 4.826158
v 0.148762 1.045002 4.828393
v 0.148762 1.044298 4.830094
v 0.148762 1.042597 4.830798
v 0.148762 1.040897 4.830094
v 0.148762 1.040192 4.828393
v 0.148762 1.040897 4.826693
v 0.148762 1.042597 4.825988
v 0.148762 1.044298 4.826693
v 0.149490 1.042597 4.828393
v 0.141911 1.044487 4.828393
v 0.141911 1.043933 4.829729
v 0.141911 1.042597 4.830283
v 0.141911 1.041261 4.829729
v 0.141911 1.040708 4.828393
v 0.141911 1.041261 4.827057
v 0.141911 1.042597 4.826503
v 0.141911 1.043933 4.827057
v 0.141911 1.042597 4.828393
vn -0.0863 -0.7389 0.7475
vn 0.8004 -0.6865 0.0195
vn 0.8004 -0.4717 0.4992
vn -0.1036 -0.0000 1.0495
vn 0.8004 0.4717 0.4992
vn -0.0909 0.7474 0.7385
vn -0.0909 0.7385 -0.7474
vn 0.7879 -0.0000 -0.7010
vn -0.0825 -0.0120 -1.0513
vn -0.0952 -1.0503 0.0058
vn 0.8004 -0.4992 -0.4717
vn 0.8140 -0.0000 0.6705
vn 0.8004 0.6865 0.0194
vn -0.0909 1.0507 -0.0063
vn 0.8004 0.4992 -0.4717
vn -0.0863 -0.7475 -0.7389
vn 1.0546 -0.0000 -0.0000
vn -0.4327 -0.9618 -0.0000
vn -0.4615 -0.6706 -0.6706
vn -0.4327 -0.0000 0.9618
vn -0.4615 -0.6706 0.6706
vn -0.4459 0.6977 0.6532
vn -0.4459 0.9552 -0.0315
vn -0.4459 -0.0315 -0.9552
vn -0.4459 0.6532 -0.6977
vn -1.0546 -0.0000 -0.0000
vt 0.786520 0.742837
vt 0.799100 0.739892
vt 0.783773 0.740633
vt 0.801837 0.740109
vt 0.783461 0.736964
vt 0.804569 0.739841
vt 0.786002 0.734300
vt 0.807212 0.739098
vt 0.809683 0.737902
vt 0.789758 0.734537
vt 0.791699 0.736478
vt 0.792019 0.739977
vt 0.793951 0.738048
vt 0.789906 0.742468
vt 0.796444 0.739198
vt 0.787035 0.740800
vt 0.785653 0.739550
vt 0.785625 0.737726
vt 0.786789 0.736322
vt 0.788649 0.736213
vt 0.790039 0.737454
vt 0.790189 0.739333
vt 0.788895 0.740703
vt 0.787859 0.738513
vt 0.800143 0.733718
vt 0.798520 0.728876
vt 0.801779 0.733847
vt 0.797360 0.727715
vt 0.803412 0.733687
vt 0.795719 0.727715
vt 0.804991 0.733243
vt 0.794559 0.728876
vt 0.806468 0.732528
vt 0.794559 0.730517
vt 0.795719 0.731677
vt 0.797065 0.732615
vt 0.797360 0.731677
vt 0.798555 0.733303
vt 0.798520 0.730517
vt 0.796540 0.729696
s 1
usemtl M_OfficeAppliances_1024
f 4/7/1 13/20/2 12/19/3
f 3/5/4 10/17/5 2/3/6
f 8/14/7 15/22/8 7/12/9
f 5/10/10 14/21/11 13/20/2
f 3/5/4 12/19/3 11/18/12
f 2/3/6 9/16/13 1/1/14
f 1/1/14 16/23/15 8/14/7
f 6/11/16 15/22/8 14/21/11
f 15/22/8 16/23/15 17/24/17
f 13/20/2 14/21/11 17/24/17
f 11/18/12 12/19/3 17/24/17
f 9/16/13 10/17/5 17/24/17
f 16/23/15 9/16/13 17/24/17
f 14/21/11 15/22/8 17/24/17
f 12/19/3 13/20/2 17/24/17
f 10/17/5 11/18/12 17/24/17
f 6/11/16 22/34/18 23/35/19
f 4/8/1 20/29/20 21/31/21
f 1/2/14 19/27/22 2/4/6
f 8/15/7 18/25/23 1/2/14
f 6/11/16 24/36/24 7/13/9
f 4/8/1 22/33/18 5/9/10
f 2/4/6 20/29/20 3/6/4
f 7/13/9 25/38/25 8/15/7
f 21/32/21 26/40/26 22/34/18
f 19/28/22 26/40/26 20/30/20
f 25/39/25 26/40/26 18/26/23
f 23/35/19 26/40/26 24/37/24
f 4/7/1 5/10/10 13/20/2
f 3/5/4 11/18/12 10/17/5
f 8/14/7 16/23/15 15/22/8
f 5/10/10 6/11/16 14/21/11
f 3/5/4 4/7/1 12/19/3
f 2/3/6 10/17/5 9/16/13
f 1/1/14 9/16/13 16/23/15
f 6/11/16 7/12/9 15/22/8
f 6/11/16 5/10/10 22/34/18
f 4/8/1 3/6/4 20/29/20
f 1/2/14 18/25/23 19/27/22
f 8/15/7 25/38/25 18/25/23
f 6/11/16 23/35/19 24/36/24
f 4/8/1 21/31/21 22/33/18
f 2/4/6 19/27/22 20/29/20
f 7/13/9 24/36/24 25/38/25
f 21/32/21 20/30/20 26/40/26
f 19/28/22 18/26/23 26/40/26
f 25/39/25 24/37/24 26/40/26
f 23/35/19 22/34/18 26/40/26
