# Blender 3.1.0
# www.blender.org
mtllib scissors2.mtl
o Scissors_MAIN_SIDE
v 0.146447 0.992112 4.827827
v 0.146447 0.986903 4.827799
v 0.147366 0.985327 4.825751
v 0.143555 0.992112 4.827827
v 0.143555 0.986903 4.827799
v 0.142636 0.985327 4.825751
v 0.146255 0.999564 4.812846
v 0.148248 1.000858 4.812889
v 0.148248 0.998877 4.819213
v 0.146255 0.997945 4.818169
v 0.148248 0.993472 4.824277
v 0.146255 0.993874 4.821990
v 0.148248 0.989471 4.825096
v 0.146255 0.988432 4.823263
v 0.148248 0.981909 4.822945
v 0.146255 0.982586 4.821677
v 0.148248 0.976298 4.818023
v 0.146255 0.977410 4.817244
v 0.146255 0.975255 4.811253
v 0.148248 0.975597 4.804609
v 0.146255 0.976750 4.805345
v 0.146255 0.981359 4.801655
v 0.146255 0.987573 4.801037
v 0.146255 0.993913 4.803443
v 0.148248 0.999525 4.807087
v 0.146255 0.998343 4.807780
v 0.141753 1.001061 4.812898
v 0.143746 0.999564 4.812846
v 0.143746 0.997945 4.818169
v 0.141753 0.999080 4.819440
v 0.143746 0.993874 4.821990
v 0.141753 0.993472 4.824276
v 0.143746 0.988432 4.823263
v 0.141753 0.988390 4.824769
v 0.143746 0.982586 4.821677
v 0.143746 0.977410 4.817244
v 0.143746 0.975255 4.811253
v 0.143746 0.976750 4.805345
v 0.141753 0.975549 4.804579
v 0.143746 0.981359 4.801655
v 0.143746 0.987573 4.801037
v 0.141753 0.987752 4.799603
v 0.143746 0.993913 4.803443
v 0.141753 0.994854 4.802289
v 0.143746 0.998343 4.807780
v 0.141753 0.999660 4.807010
v 0.148248 1.019426 4.820298
v 0.145921 1.019981 4.818665
v 0.145921 1.010119 4.812265
v 0.148248 1.008744 4.813378
v 0.145921 0.981097 4.824460
v 0.145921 0.975004 4.819027
v 0.145921 0.972145 4.811306
v 0.148248 0.973809 4.811280
v 0.145921 0.974147 4.803690
v 0.145921 0.979949 4.798629
v 0.148248 0.980707 4.800244
v 0.145921 0.988000 4.797934
v 0.148248 0.987753 4.799584
v 0.145921 0.996021 4.800986
v 0.148248 0.994869 4.802270
v 0.145921 1.001993 4.805633
v 0.144081 1.019981 4.818665
v 0.141753 1.019426 4.820298
v 0.141753 1.008744 4.813378
v 0.144081 1.010119 4.812265
v 0.141753 0.981895 4.822970
v 0.144081 0.981098 4.824460
v 0.141753 0.976256 4.818050
v 0.144081 0.975006 4.819028
v 0.141753 0.973811 4.811281
v 0.144081 0.972145 4.811306
v 0.144081 0.974147 4.803690
v 0.141753 0.980708 4.800244
v 0.144081 0.979949 4.798629
v 0.144081 0.988000 4.797934
v 0.144081 0.996021 4.800986
v 0.144081 1.001993 4.805633
v 0.146100 1.017332 4.826458
v 0.148248 1.017859 4.824907
v 0.146100 0.993179 4.825946
v 0.146100 1.004906 4.824907
v 0.148248 1.005027 4.823337
v 0.141753 1.017859 4.824907
v 0.143901 1.017332 4.826458
v 0.143901 0.993179 4.825946
v 0.141753 1.005027 4.823337
v 0.143901 1.004906 4.824907
v 0.144545 1.120678 4.832181
v 0.145031 1.018619 4.820600
v 0.145031 1.017279 4.824471
v 0.144873 1.123650 4.830492
v 0.145039 1.123436 4.828595
v 0.145031 1.024478 4.827370
v 0.145031 1.029544 4.835806
v 0.146207 1.120678 4.832181
v 0.147668 1.018619 4.820600
v 0.147668 1.017279 4.824471
v 0.145879 1.123650 4.830492
v 0.145714 1.123436 4.828595
v 0.147668 1.024478 4.827370
v 0.147668 1.029544 4.835806
vn 0.4090 0.5669 -0.7897
vn -0.3963 0.6056 -0.7671
vn 0.3691 0.7397 -0.6549
vn 0.3460 0.9941 -0.0656
vn -0.3370 0.8160 -0.5770
vn 0.3262 0.8193 -0.5784
vn 0.3472 0.8419 0.5319
vn -0.3469 0.9939 -0.0641
vn 0.3696 0.3554 0.9216
vn -0.3576 0.8388 0.5299
vn 0.3398 -0.1411 0.9884
vn -0.3690 0.3551 0.9220
vn -0.3491 -0.5207 0.8481
vn -0.3359 -0.1412 0.9897
vn 0.3542 -0.5196 0.8467
vn -0.3702 -0.8490 0.5044
vn 1.0187 0.0596 -0.2663
vn 1.0252 0.1442 -0.2011
vn 1.0450 -0.1424 -0.0060
vn 0.3379 -0.8620 0.5051
vn -0.3488 -0.9946 -0.0379
vn 0.4061 0.0790 -0.9701
vn -0.4304 -0.4871 -0.8305
vn 0.4153 -0.5009 -0.8300
vn 0.4415 -0.3167 0.9039
vn 1.0537 0.0184 -0.0414
vn 0.5220 0.2330 0.8863
vn -0.3396 0.4784 -0.8764
vn 0.3335 0.4794 -0.8782
vn -0.3752 0.0543 -0.9841
vn -1.0177 0.0675 -0.2684
vn -1.0450 -0.1424 -0.0058
vn -1.0249 0.1453 -0.2020
vn -1.0300 -0.0063 0.2267
vn -1.0406 -0.1437 -0.0940
vn -1.0282 -0.0520 0.2288
vn -0.5004 -0.2343 0.8983
vn -1.0482 0.0378 -0.1098
vn -0.5763 -0.3627 0.8053
vn -0.9824 0.2465 0.2940
vn -0.3543 0.1180 0.9863
vn 0.9854 0.2374 0.2915
vn 0.3651 -0.5710 0.8080
vn -0.3531 -0.8181 0.5642
vn 0.3603 -0.8157 0.5630
vn 1.0306 -0.0537 0.2171
vn 0.3650 -0.0217 0.9892
vn -0.3367 0.2645 0.9638
vn 0.3327 0.2766 0.9618
vn 0.3664 -0.9871 0.0599
vn -0.3727 -0.8398 -0.5178
vn 0.3833 -0.8364 -0.5156
vn -0.3835 -0.3692 -0.9104
vn 0.3847 -0.3702 -0.9095
vn 0.3652 0.1426 -0.9791
vn -0.3682 0.1430 -0.9779
vn 0.4117 0.4921 -0.8370
vn -0.4098 0.4891 -0.8397
vn -0.5382 0.5502 -0.7210
vn 0.5584 0.5396 -0.7136
vn -0.5946 0.1911 0.8498
vn -0.3889 -0.8448 -0.4973
vn 0.3252 -0.8617 -0.5138
vn 1.0401 -0.1469 -0.0944
vn 1.0305 -0.0062 0.2241
vn 0.6283 -0.3672 0.7634
vn -0.4090 0.5669 -0.7897
vn -0.3654 -0.9874 0.0612
vn 0.6172 0.4074 -0.7519
vn 0.5957 0.7101 -0.5031
vn 0.6156 0.8543 -0.0583
vn 0.5967 0.7371 0.4614
vn 0.6410 0.3035 0.7806
vn 0.6261 -0.1188 0.8403
vn 0.6288 -0.4503 0.7170
vn 0.3044 -1.0090 -0.0385
vn -0.6237 0.4083 -0.7460
vn -0.6086 0.7023 -0.4986
vn -0.6170 0.8535 -0.0561
vn -0.6130 0.7275 0.4552
vn -0.6424 0.3019 0.7800
vn -0.6214 -0.1195 0.8437
vn -0.6276 -0.4497 0.7184
vn 0.6638 -0.4939 0.6540
vn 0.6063 -0.7112 0.4887
vn 0.6125 -0.8562 0.0628
vn 0.6269 -0.7218 -0.4453
vn 0.6391 -0.3016 -0.7828
vn 0.6145 0.1205 -0.8486
vn 0.6217 0.4427 -0.7279
vn 0.9211 0.5039 -0.0994
vn -0.6517 -0.5007 0.6610
vn -0.5935 -0.7197 0.4921
vn -0.6116 -0.8567 0.0654
vn -0.6165 -0.7282 -0.4493
vn -0.6396 -0.2983 -0.7837
vn -0.6189 0.1214 -0.8453
vn -0.6263 0.4329 -0.7298
vn -0.9259 0.4940 -0.1042
vn 0.3727 -0.0274 0.9862
vn -0.3650 -0.0217 0.9892
vn -0.3173 -0.5440 0.8460
vn 1.0481 0.0226 -0.1147
vn 1.0479 0.0219 -0.1173
vn 1.0543 0.0195 -0.0161
vn 0.0012 0.0573 1.0531
vn -0.0000 0.7833 0.7062
vn -0.0000 0.8002 0.6870
vn -0.0058 0.1029 -1.0496
vn -0.0000 0.0999 -1.0499
vn -0.0000 -0.3940 0.9783
vn -0.0000 -0.7158 0.7745
vn 0.0002 -0.0527 1.0533
vn -0.0000 0.0581 1.0530
vn -0.0000 -0.0536 1.0533
vn -0.0000 0.0802 -1.0516
vn -1.0546 -0.0018 0.0002
vn -1.0465 0.0014 -0.1304
vn -1.0470 0.0023 -0.1264
vn 1.0546 -0.0000 -0.0000
vn 1.0543 0.0210 -0.0182
vn 1.0483 0.0598 -0.0984
vn 1.0545 0.0165 -0.0099
vn -1.0546 -0.0000 -0.0000
vn -1.0546 -0.0055 0.0033
vn -1.0483 0.0598 -0.0984
vt 0.959468 0.696521
vt 0.964024 0.696143
vt 0.966144 0.697808
vt 0.949502 0.687966
vt 0.958657 0.693792
vt 0.954998 0.689357
vt 0.964229 0.693151
vt 0.967437 0.692655
vt 0.957249 0.687420
vt 0.955230 0.714985
vt 0.952662 0.715720
vt 0.952780 0.707961
vt 0.955231 0.709131
vt 0.957693 0.700745
vt 0.958404 0.704176
vt 0.962146 0.699462
vt 0.963590 0.701949
vt 0.969990 0.700303
vt 0.969231 0.702485
vt 0.975938 0.704173
vt 0.974403 0.705745
vt 0.977505 0.710400
vt 0.979789 0.716176
vt 0.977709 0.715596
vt 0.974849 0.719863
vt 0.969824 0.722311
vt 0.963602 0.722290
vt 0.956370 0.721631
vt 0.958086 0.719646
vt 0.945043 0.668382
vt 0.947649 0.669270
vt 0.957562 0.714241
vt 0.947334 0.674867
vt 0.957616 0.709745
vt 0.944665 0.676002
vt 0.960056 0.705982
vt 0.950012 0.679965
vt 0.948970 0.683255
vt 0.964045 0.704155
vt 0.954937 0.682794
vt 0.954361 0.685282
vt 0.968604 0.704555
vt 0.960938 0.682721
vt 0.972928 0.707306
vt 0.966981 0.679989
vt 0.975609 0.711108
vt 0.970629 0.675270
vt 0.975790 0.715134
vt 0.971150 0.669768
vt 0.973430 0.669218
vt 0.973444 0.718302
vt 0.968239 0.665257
vt 0.969307 0.720205
vt 0.962834 0.662797
vt 0.963428 0.660295
vt 0.964081 0.720094
vt 0.956214 0.662684
vt 0.955543 0.660197
vt 0.959677 0.717844
vt 0.950548 0.664992
vt 0.948914 0.662931
vt 0.929063 0.714021
vt 0.928630 0.717399
vt 0.926274 0.715991
vt 0.942112 0.721215
vt 0.943654 0.718061
vt 0.971064 0.697633
vt 0.977878 0.702143
vt 0.982323 0.709037
vt 0.979600 0.709777
vt 0.982620 0.716938
vt 0.978495 0.723648
vt 0.976415 0.721549
vt 0.971033 0.727380
vt 0.970354 0.724527
vt 0.962077 0.727551
vt 0.962932 0.724628
vt 0.953950 0.725217
vt 0.923237 0.665723
vt 0.928038 0.719482
vt 0.924106 0.715942
vt 0.921410 0.713847
vt 0.923450 0.668872
vt 0.937033 0.665941
vt 0.941458 0.723315
vt 0.935754 0.663001
vt 0.961523 0.685290
vt 0.962295 0.688278
vt 0.971842 0.695802
vt 0.968558 0.681891
vt 0.979288 0.700719
vt 0.970436 0.684323
vt 0.972941 0.676063
vt 0.984282 0.708385
vt 0.975839 0.677036
vt 0.984706 0.717432
vt 0.976341 0.668526
vt 0.970002 0.663444
vt 0.980031 0.725305
vt 0.972234 0.661206
vt 0.971507 0.729413
vt 0.964135 0.657223
vt 0.961819 0.729571
vt 0.954683 0.657219
vt 0.953314 0.727298
vt 0.946777 0.659643
vt 0.926706 0.706298
vt 0.928933 0.705121
vt 0.929193 0.708285
vt 0.957447 0.697419
vt 0.943657 0.702029
vt 0.944376 0.705102
vt 0.921540 0.708112
vt 0.923267 0.674150
vt 0.924115 0.706239
vt 0.922880 0.677031
vt 0.928388 0.702560
vt 0.947927 0.686208
vt 0.956432 0.695049
vt 0.936942 0.677778
vt 0.936046 0.680516
vt 0.942971 0.699458
vt 0.803599 0.716011
vt 0.805556 0.696667
vt 0.909258 0.709598
vt 0.915655 0.698743
vt 0.911904 0.720358
vt 0.916695 0.694476
vt 0.801306 0.712041
vt 0.802554 0.698770
vt 0.803014 0.709598
vt 0.802973 0.700773
vt 0.902956 0.724311
vt 0.908719 0.692107
vt 0.892484 0.731355
vt 0.902461 0.683613
vt 0.804918 0.714360
vt 0.909290 0.712950
vt 0.910677 0.717459
vt 0.802762 0.712172
vt 0.803477 0.710630
vt 0.901111 0.721040
vt 0.891738 0.728326
s 1
usemtl M_OfficeAppliances_1024
f 49/65/1 63/80/2 48/63/3
f 19/22/4 36/44/5 18/21/6
f 21/24/7 37/46/8 19/22/4
f 22/25/9 38/48/10 21/24/7
f 23/26/11 40/51/12 22/25/9
f 23/26/11 43/56/13 41/53/14
f 24/27/15 45/59/16 43/56/13
f 25/28/17 50/66/18 8/11/19
f 26/29/20 28/32/21 45/59/16
f 14/17/22 31/36/23 12/15/24
f 2/2/25 13/16/26 1/1/27
f 18/21/6 35/42/28 16/19/29
f 16/19/29 33/39/30 14/17/22
f 46/61/31 27/30/32 65/84/33
f 27/30/32 87/120/34 65/84/33
f 30/35/35 32/38/36 87/120/34
f 5/6/37 34/41/38 6/9/39
f 84/113/40 85/115/41 80/109/42
f 51/67/43 70/91/44 52/68/45
f 11/14/46 1/1/27 13/16/26
f 82/111/47 86/119/48 81/110/49
f 53/69/50 73/96/51 55/71/52
f 55/71/52 75/99/53 56/72/54
f 58/74/55 75/99/53 76/101/56
f 60/76/57 76/101/56 77/103/58
f 60/76/57 78/105/59 62/78/60
f 32/38/36 34/41/38 4/4/61
f 12/15/24 29/34/62 10/13/63
f 9/12/64 83/112/65 11/14/46
f 1/1/27 5/7/37 2/2/25
f 2/2/25 6/8/39 3/3/66
f 8/11/19 83/112/65 9/12/64
f 84/114/40 65/84/33 87/120/34
f 62/78/60 66/85/67 49/65/1
f 52/68/45 72/94/68 53/69/50
f 10/13/63 8/11/19 9/12/64
f 12/15/24 9/12/64 11/14/46
f 14/17/22 11/14/46 13/16/26
f 14/17/22 15/18/69 16/19/29
f 18/21/6 15/18/69 17/20/70
f 19/22/4 17/20/70 54/70/71
f 21/24/7 54/70/71 20/23/72
f 21/24/7 57/73/73 22/25/9
f 22/25/9 59/75/74 23/26/11
f 24/27/15 59/75/74 61/77/75
f 26/29/20 61/77/75 25/28/17
f 26/29/20 8/11/19 7/10/76
f 27/30/32 29/33/62 30/35/35
f 30/35/35 31/37/23 32/38/36
f 32/38/36 33/40/30 34/41/38
f 67/87/77 33/40/30 35/43/28
f 67/87/77 36/45/5 69/90/78
f 69/90/78 37/47/8 71/93/79
f 71/93/79 38/49/10 39/50/80
f 74/98/81 38/49/10 40/52/12
f 42/55/82 40/52/12 41/54/14
f 42/55/82 43/57/13 44/58/83
f 44/58/83 45/60/16 46/61/31
f 27/30/32 45/60/16 28/31/21
f 10/13/63 28/32/21 7/10/76
f 50/66/18 62/78/60 49/65/1
f 15/18/84 52/68/45 17/20/85
f 54/70/86 52/68/45 53/69/50
f 20/23/87 53/69/50 55/71/52
f 20/23/87 56/72/54 57/73/88
f 57/73/88 58/74/55 59/75/89
f 61/77/90 58/74/55 60/76/57
f 25/28/17 60/76/57 62/78/60
f 47/62/91 49/65/1 48/63/3
f 78/106/59 65/84/33 66/86/67
f 70/92/44 67/87/92 69/90/93
f 70/92/44 71/93/94 72/95/68
f 72/95/68 39/50/95 73/97/51
f 75/100/53 39/50/95 74/98/96
f 76/102/56 74/98/96 42/55/97
f 76/102/56 44/58/98 77/104/58
f 77/104/58 46/61/31 78/106/59
f 66/86/67 64/83/99 63/79/2
f 80/109/42 50/66/18 47/62/91
f 83/112/65 79/108/100 82/111/47
f 11/14/46 82/111/47 81/110/49
f 85/116/41 87/120/34 88/121/101
f 88/121/101 32/38/36 86/118/48
f 79/108/100 88/122/101 82/111/47
f 11/14/46 81/110/49 1/1/27
f 4/4/61 86/118/48 32/38/36
f 4/5/61 81/110/49 86/119/48
f 15/18/84 3/3/66 51/67/43
f 6/9/39 67/87/92 68/88/102
f 68/89/102 3/3/66 6/8/39
f 100/141/103 96/137/104 101/142/105
f 89/123/106 99/140/107 92/129/108
f 92/129/108 100/141/109 93/131/110
f 91/127/111 101/142/112 94/133/112
f 95/135/113 96/137/114 89/123/106
f 94/133/112 102/143/115 95/135/113
f 90/125/116 100/141/116 97/138/116
f 94/134/117 89/124/118 93/132/119
f 49/65/1 66/85/67 63/80/2
f 19/22/4 37/46/8 36/44/5
f 21/24/7 38/48/10 37/46/8
f 22/25/9 40/51/12 38/48/10
f 23/26/11 41/53/14 40/51/12
f 23/26/11 24/27/15 43/56/13
f 24/27/15 26/29/20 45/59/16
f 26/29/20 7/10/76 28/32/21
f 14/17/22 33/39/30 31/36/23
f 2/2/25 3/3/66 13/16/26
f 18/21/6 36/44/5 35/42/28
f 16/19/29 35/42/28 33/39/30
f 27/30/32 30/35/35 87/120/34
f 5/6/37 4/4/61 34/41/38
f 85/115/41 79/107/100 80/109/42
f 80/109/42 47/62/91 64/82/99
f 47/62/91 48/64/3 64/82/99
f 48/64/3 63/81/2 64/82/99
f 64/82/99 84/113/40 80/109/42
f 51/67/43 68/89/102 70/91/44
f 82/111/47 88/122/101 86/119/48
f 53/69/50 72/94/68 73/96/51
f 55/71/52 73/96/51 75/99/53
f 58/74/55 56/72/54 75/99/53
f 60/76/57 58/74/55 76/101/56
f 60/76/57 77/103/58 78/105/59
f 12/15/24 31/36/23 29/34/62
f 1/1/27 4/5/61 5/7/37
f 2/2/25 5/7/37 6/8/39
f 8/11/19 50/66/18 83/112/65
f 84/114/40 64/83/99 65/84/33
f 62/78/60 78/105/59 66/85/67
f 52/68/45 70/91/44 72/94/68
f 10/13/63 7/10/76 8/11/19
f 12/15/24 10/13/63 9/12/64
f 14/17/22 12/15/24 11/14/46
f 14/17/22 13/16/26 15/18/69
f 18/21/6 16/19/29 15/18/69
f 19/22/4 18/21/6 17/20/70
f 21/24/7 19/22/4 54/70/71
f 21/24/7 20/23/72 57/73/73
f 22/25/9 57/73/73 59/75/74
f 24/27/15 23/26/11 59/75/74
f 26/29/20 24/27/15 61/77/75
f 26/29/20 25/28/17 8/11/19
f 27/30/32 28/31/21 29/33/62
f 30/35/35 29/33/62 31/37/23
f 32/38/36 31/37/23 33/40/30
f 67/87/77 34/41/38 33/40/30
f 67/87/77 35/43/28 36/45/5
f 69/90/78 36/45/5 37/47/8
f 71/93/79 37/47/8 38/49/10
f 74/98/81 39/50/80 38/49/10
f 42/55/82 74/98/81 40/52/12
f 42/55/82 41/54/14 43/57/13
f 44/58/83 43/57/13 45/60/16
f 27/30/32 46/61/31 45/60/16
f 10/13/63 29/34/62 28/32/21
f 50/66/18 25/28/17 62/78/60
f 15/18/84 51/67/43 52/68/45
f 54/70/86 17/20/85 52/68/45
f 20/23/87 54/70/86 53/69/50
f 20/23/87 55/71/52 56/72/54
f 57/73/88 56/72/54 58/74/55
f 61/77/90 59/75/89 58/74/55
f 25/28/17 61/77/90 60/76/57
f 47/62/91 50/66/18 49/65/1
f 78/106/59 46/61/31 65/84/33
f 70/92/44 68/88/102 67/87/92
f 70/92/44 69/90/93 71/93/94
f 72/95/68 71/93/94 39/50/95
f 75/100/53 73/97/51 39/50/95
f 76/102/56 75/100/53 74/98/96
f 76/102/56 42/55/97 44/58/98
f 77/104/58 44/58/98 46/61/31
f 66/86/67 65/84/33 64/83/99
f 80/109/42 83/112/65 50/66/18
f 83/112/65 80/109/42 79/108/100
f 11/14/46 83/112/65 82/111/47
f 85/116/41 84/114/40 87/120/34
f 88/121/101 87/120/34 32/38/36
f 79/108/100 85/117/41 88/122/101
f 4/5/61 1/1/27 81/110/49
f 15/18/84 13/16/26 3/3/66
f 6/9/39 34/41/38 67/87/92
f 68/89/102 51/67/43 3/3/66
f 98/139/120 97/138/120 101/142/120
f 97/138/121 100/141/103 101/142/105
f 100/141/103 99/140/122 96/137/104
f 96/137/104 102/143/123 101/142/105
f 89/123/106 96/137/114 99/140/107
f 92/129/108 99/140/107 100/141/109
f 91/127/111 98/139/111 101/142/112
f 95/135/113 102/143/115 96/137/114
f 94/133/112 101/142/112 102/143/115
f 90/125/116 93/131/110 100/141/109
f 93/132/119 90/126/124 94/134/117
f 90/126/124 91/128/124 94/134/117
f 94/134/117 95/136/125 89/124/118
f 89/124/118 92/130/126 93/132/119
